<svg xmlns="http://www.w3.org/2000/svg" viewBox="0 0 1024 689.31"><defs><style>.cls-1{fill:#e84f2c;}</style></defs><g id="Layer_2" data-name="Layer 2"><g id="Layer_1-2" data-name="Layer 1"><path class="cls-1" d="M1013,250.87,637.82,4.76A29.73,29.73,0,0,0,621.54,0H402.46a29.75,29.75,0,0,0-16.28,4.76L11,250.87a25.36,25.36,0,0,0-7.8,8A22.12,22.12,0,0,0,0,269a21.73,21.73,0,0,0,2,10.41,24.57,24.57,0,0,0,6.79,8.68L493.53,682.92a29.89,29.89,0,0,0,36.94,0L1015.2,288.11a24.57,24.57,0,0,0,6.79-8.68,21.73,21.73,0,0,0,2-10.41,22.12,22.12,0,0,0-3.2-10.17A25.36,25.36,0,0,0,1013,250.87ZM701.61,246.1H323.19l97-197.75H604.41Zm-3.24,48.48-186,318.79L326.48,294.58ZM263.74,246.1H109.93L336.68,97.36ZM265,294.58,416.9,554.93,97.23,294.58Zm494.84,0h166.8L608.89,553.43Zm1.29-48.48L688.81,98.28,914.12,246.1Z"/></g></g></svg>