<svg xmlns="http://www.w3.org/2000/svg" xmlns:xlink="http://www.w3.org/1999/xlink" viewBox="0 0 69 69"><defs><linearGradient id="Безымянный_градиент" x1="37.15" y1="303.77" x2="32.32" y2="204.76" gradientTransform="matrix(1 0 0 -1 0 284)" gradientUnits="userSpaceOnUse"><stop offset="0" stop-color="#ff958a"/><stop offset=".39" stop-color="#fb8b9f"/><stop offset=".7" stop-color="#e76ee7"/><stop offset=".97" stop-color="#da43ff"/></linearGradient><style>.cls-1{fill:#c4c4c4}</style><mask id="mask" x="-59.45" y="-215" width="365.45" height="712" maskUnits="userSpaceOnUse"><g id="mask0"><circle class="cls-1" cx="-55.67" cy="-211.85" r="3.15"/><circle class="cls-1" cx="-31.73" cy="-211.85" r="3.15"/><circle class="cls-1" cx="-7.79" cy="-211.85" r="3.15"/><circle class="cls-1" cx="16.16" cy="-211.85" r="3.15"/><circle class="cls-1" cx="40.1" cy="-211.85" r="3.15"/><circle class="cls-1" cx="64.04" cy="-211.85" r="3.15"/><circle class="cls-1" cx="87.99" cy="-211.85" r="3.15"/><circle class="cls-1" cx="111.93" cy="-211.85" r="3.15"/><circle class="cls-1" cx="-55.67" cy="-190.43" r="3.15"/><circle class="cls-1" cx="-31.73" cy="-190.43" r="3.15"/><circle class="cls-1" cx="-7.79" cy="-190.43" r="3.15"/><circle class="cls-1" cx="16.16" cy="-190.43" r="3.15"/><circle class="cls-1" cx="40.1" cy="-190.43" r="3.15"/><circle class="cls-1" cx="64.04" cy="-190.43" r="3.15"/><circle class="cls-1" cx="87.99" cy="-190.43" r="3.15"/><circle class="cls-1" cx="111.93" cy="-190.43" r="3.15"/><circle class="cls-1" cx="-55.67" cy="-169" r="3.15"/><circle class="cls-1" cx="-31.73" cy="-169" r="3.15"/><circle class="cls-1" cx="-7.79" cy="-169" r="3.15"/><circle class="cls-1" cx="16.16" cy="-169" r="3.15"/><circle class="cls-1" cx="40.1" cy="-169" r="3.15"/><circle class="cls-1" cx="64.04" cy="-169" r="3.15"/><circle class="cls-1" cx="87.99" cy="-169" r="3.15"/><circle class="cls-1" cx="111.93" cy="-169" r="3.15"/><circle class="cls-1" cx="-55.67" cy="-147.58" r="3.15"/><circle class="cls-1" cx="-31.73" cy="-147.58" r="3.15"/><circle class="cls-1" cx="-7.79" cy="-147.58" r="3.15"/><circle class="cls-1" cx="16.16" cy="-147.58" r="3.15"/><circle class="cls-1" cx="40.1" cy="-147.58" r="3.15"/><circle class="cls-1" cx="64.04" cy="-147.58" r="3.15"/><circle class="cls-1" cx="87.99" cy="-147.58" r="3.15"/><circle class="cls-1" cx="111.93" cy="-147.58" r="3.15"/><circle class="cls-1" cx="-55.67" cy="-126.16" r="3.15"/><circle class="cls-1" cx="-31.73" cy="-126.16" r="3.15"/><circle class="cls-1" cx="-7.79" cy="-126.16" r="3.15"/><circle class="cls-1" cx="16.16" cy="-126.16" r="3.15"/><circle class="cls-1" cx="40.1" cy="-126.16" r="3.15"/><circle class="cls-1" cx="64.04" cy="-126.16" r="3.15"/><circle class="cls-1" cx="87.99" cy="-126.16" r="3.15"/><circle class="cls-1" cx="111.93" cy="-126.16" r="3.15"/><circle class="cls-1" cx="-55.67" cy="-104.74" r="3.15"/><circle class="cls-1" cx="-31.73" cy="-104.74" r="3.15"/><circle class="cls-1" cx="-7.79" cy="-104.74" r="3.15"/><circle class="cls-1" cx="16.16" cy="-104.74" r="3.15"/><circle class="cls-1" cx="40.1" cy="-104.74" r="3.15"/><circle class="cls-1" cx="64.04" cy="-104.74" r="3.15"/><circle class="cls-1" cx="87.99" cy="-104.74" r="3.15"/><circle class="cls-1" cx="111.93" cy="-104.74" r="3.15"/><circle class="cls-1" cx="-55.67" cy="-83.31" r="3.15"/><circle class="cls-1" cx="-31.73" cy="-83.31" r="3.15"/><circle class="cls-1" cx="-7.79" cy="-83.31" r="3.15"/><circle class="cls-1" cx="16.16" cy="-83.31" r="3.15"/><circle class="cls-1" cx="40.1" cy="-83.31" r="3.15"/><circle class="cls-1" cx="64.04" cy="-83.31" r="3.15"/><circle class="cls-1" cx="87.99" cy="-83.31" r="3.15"/><circle class="cls-1" cx="111.93" cy="-83.31" r="3.15"/><circle class="cls-1" cx="-55.67" cy="-61.89" r="3.15"/><circle class="cls-1" cx="-31.73" cy="-61.89" r="3.15"/><circle class="cls-1" cx="-7.79" cy="-61.89" r="3.15"/><circle class="cls-1" cx="16.16" cy="-61.89" r="3.15"/><circle class="cls-1" cx="40.1" cy="-61.89" r="3.15"/><circle class="cls-1" cx="64.04" cy="-61.89" r="3.15"/><circle class="cls-1" cx="87.99" cy="-61.89" r="3.15"/><circle class="cls-1" cx="111.93" cy="-61.89" r="3.15"/><circle class="cls-1" cx="-55.67" cy="-40.46" r="3.15"/><circle class="cls-1" cx="-31.73" cy="-40.46" r="3.15"/><circle class="cls-1" cx="-7.79" cy="-40.46" r="3.15"/><circle class="cls-1" cx="16.16" cy="-40.46" r="3.15"/><circle class="cls-1" cx="40.1" cy="-40.46" r="3.15"/><circle class="cls-1" cx="64.04" cy="-40.46" r="3.15"/><circle class="cls-1" cx="87.99" cy="-40.46" r="3.15"/><circle class="cls-1" cx="111.93" cy="-40.46" r="3.15"/><circle class="cls-1" cx="-55.67" cy="-19.04" r="3.15"/><circle class="cls-1" cx="-31.73" cy="-19.04" r="3.15"/><circle class="cls-1" cx="-7.79" cy="-19.04" r="3.15"/><circle class="cls-1" cx="16.16" cy="-19.04" r="3.15"/><circle class="cls-1" cx="40.1" cy="-19.04" r="3.15"/><circle class="cls-1" cx="64.04" cy="-19.04" r="3.15"/><circle class="cls-1" cx="87.99" cy="-19.04" r="3.15"/><circle class="cls-1" cx="111.93" cy="-19.04" r="3.15"/><circle class="cls-1" cx="-55.67" cy="2.38" r="3.15"/><circle class="cls-1" cx="-31.73" cy="2.38" r="3.15"/><circle class="cls-1" cx="-7.79" cy="2.38" r="3.15"/><circle class="cls-1" cx="16.16" cy="2.38" r="3.15"/><circle class="cls-1" cx="40.1" cy="2.38" r="3.15"/><circle class="cls-1" cx="64.04" cy="2.38" r="3.15"/><circle class="cls-1" cx="87.99" cy="2.38" r="3.15"/><circle class="cls-1" cx="111.93" cy="2.38" r="3.15"/><circle class="cls-1" cx="-55.67" cy="23.8" r="3.15"/><circle class="cls-1" cx="-31.73" cy="23.8" r="3.15"/><circle class="cls-1" cx="-7.79" cy="23.8" r="3.15"/><circle class="cls-1" cx="16.16" cy="23.8" r="3.15"/><circle class="cls-1" cx="40.1" cy="23.8" r="3.15"/><circle class="cls-1" cx="64.04" cy="23.8" r="3.15"/><circle class="cls-1" cx="87.99" cy="23.8" r="3.15"/><circle class="cls-1" cx="111.93" cy="23.8" r="3.15"/><circle class="cls-1" cx="-55.67" cy="45.23" r="3.15"/><circle class="cls-1" cx="-31.73" cy="45.23" r="3.15"/><circle class="cls-1" cx="-7.79" cy="45.23" r="3.15" transform="rotate(-88.09 -7.786 45.229)"/><circle class="cls-1" cx="16.16" cy="45.23" r="3.15"/><circle class="cls-1" cx="40.1" cy="45.23" r="3.15"/><circle class="cls-1" cx="64.04" cy="45.23" r="3.15"/><circle class="cls-1" cx="87.99" cy="45.23" r="3.15"/><circle class="cls-1" cx="111.93" cy="45.23" r="3.15"/><circle class="cls-1" cx="-55.67" cy="66.65" r="3.15"/><circle class="cls-1" cx="-31.73" cy="66.65" r="3.15"/><circle class="cls-1" cx="-7.79" cy="66.65" r="3.15" transform="rotate(-88.09 -7.785 66.652)"/><circle class="cls-1" cx="16.16" cy="66.65" r="3.15"/><circle class="cls-1" cx="40.1" cy="66.65" r="3.15"/><circle class="cls-1" cx="64.04" cy="66.65" r="3.15"/><circle class="cls-1" cx="87.99" cy="66.65" r="3.15"/><circle class="cls-1" cx="111.93" cy="66.65" r="3.15"/><circle class="cls-1" cx="-55.67" cy="88.07" r="3.15"/><circle class="cls-1" cx="-31.73" cy="88.07" r="3.15"/><circle class="cls-1" cx="-7.79" cy="88.07" r="3.15" transform="rotate(-88.09 -7.784 88.075)"/><circle class="cls-1" cx="16.16" cy="88.07" r="3.15"/><circle class="cls-1" cx="40.1" cy="88.07" r="3.15"/><circle class="cls-1" cx="64.04" cy="88.07" r="3.15"/><circle class="cls-1" cx="87.99" cy="88.07" r="3.15"/><circle class="cls-1" cx="111.93" cy="88.07" r="3.15"/><circle class="cls-1" cx="-55.67" cy="109.5" r="3.15"/><circle class="cls-1" cx="-31.73" cy="109.5" r="3.15"/><circle class="cls-1" cx="-7.79" cy="109.5" r="3.15" transform="rotate(-88.09 -7.783 109.498)"/><circle class="cls-1" cx="16.16" cy="109.5" r="3.15"/><circle class="cls-1" cx="40.1" cy="109.5" r="3.15"/><circle class="cls-1" cx="64.04" cy="109.5" r="3.15"/><circle class="cls-1" cx="87.99" cy="109.5" r="3.15"/><circle class="cls-1" cx="111.93" cy="109.5" r="3.15"/><circle class="cls-1" cx="-55.67" cy="128.4" r="3.15"/><circle class="cls-1" cx="-31.73" cy="128.4" r="3.15"/><circle class="cls-1" cx="-7.79" cy="128.4" r="3.15" transform="rotate(-88.09 -7.783 128.398)"/><circle class="cls-1" cx="16.16" cy="128.4" r="3.15"/><circle class="cls-1" cx="40.1" cy="128.4" r="3.15"/><circle class="cls-1" cx="64.04" cy="128.4" r="3.15"/><circle class="cls-1" cx="87.99" cy="128.4" r="3.15"/><circle class="cls-1" cx="111.93" cy="128.4" r="3.15"/><circle class="cls-1" cx="-55.67" cy="149.82" r="3.15"/><circle class="cls-1" cx="-31.73" cy="149.82" r="3.15"/><circle class="cls-1" cx="-7.79" cy="149.82" r="3.15" transform="rotate(-88.09 -7.782 149.82)"/><circle class="cls-1" cx="16.16" cy="149.82" r="3.15"/><circle class="cls-1" cx="40.1" cy="149.82" r="3.15"/><circle class="cls-1" cx="64.04" cy="149.82" r="3.15"/><circle class="cls-1" cx="87.99" cy="149.82" r="3.15"/><circle class="cls-1" cx="111.93" cy="149.82" r="3.15"/><circle class="cls-1" cx="-55.67" cy="171.24" r="3.15"/><circle class="cls-1" cx="-31.73" cy="171.24" r="3.15"/><circle class="cls-1" cx="-7.79" cy="171.24" r="3.15" transform="rotate(-88.09 -7.786 171.249)"/><circle class="cls-1" cx="16.16" cy="171.24" r="3.15"/><circle class="cls-1" cx="40.1" cy="171.24" r="3.15"/><circle class="cls-1" cx="64.04" cy="171.24" r="3.15"/><circle class="cls-1" cx="87.99" cy="171.24" r="3.15"/><circle class="cls-1" cx="111.93" cy="171.24" r="3.15"/><circle class="cls-1" cx="-55.67" cy="192.67" r="3.15"/><circle class="cls-1" cx="-31.73" cy="192.67" r="3.15"/><circle class="cls-1" cx="-7.79" cy="192.67" r="3.15" transform="rotate(-88.09 -7.785 192.672)"/><circle class="cls-1" cx="16.16" cy="192.67" r="3.15"/><circle class="cls-1" cx="40.1" cy="192.67" r="3.15"/><circle class="cls-1" cx="64.04" cy="192.67" r="3.15"/><circle class="cls-1" cx="87.99" cy="192.67" r="3.15"/><circle class="cls-1" cx="111.93" cy="192.67" r="3.15"/><circle class="cls-1" cx="-55.67" cy="214.09" r="3.15"/><circle class="cls-1" cx="-31.73" cy="214.09" r="3.15"/><circle class="cls-1" cx="-7.79" cy="214.09" r="3.15" transform="rotate(-88.09 -7.783 214.095)"/><circle class="cls-1" cx="16.16" cy="214.09" r="3.15"/><circle class="cls-1" cx="40.1" cy="214.09" r="3.15"/><circle class="cls-1" cx="64.04" cy="214.09" r="3.15"/><circle class="cls-1" cx="87.99" cy="214.09" r="3.15"/><circle class="cls-1" cx="111.93" cy="214.09" r="3.15"/><circle class="cls-1" cx="-55.67" cy="235.51" r="3.15"/><circle class="cls-1" cx="-31.73" cy="235.51" r="3.15"/><circle class="cls-1" cx="-7.79" cy="235.51" r="3.15" transform="rotate(-88.09 -7.782 235.518)"/><circle class="cls-1" cx="16.16" cy="235.51" r="3.15"/><circle class="cls-1" cx="40.1" cy="235.51" r="3.15"/><circle class="cls-1" cx="64.04" cy="235.51" r="3.15"/><circle class="cls-1" cx="87.99" cy="235.51" r="3.15"/><circle class="cls-1" cx="111.93" cy="235.51" r="3.15"/><circle class="cls-1" cx="-55.67" cy="256.94" r="3.15"/><circle class="cls-1" cx="-31.73" cy="256.94" r="3.15"/><circle class="cls-1" cx="-7.79" cy="256.94" r="3.15" transform="rotate(-88.09 -7.781 256.94)"/><circle class="cls-1" cx="16.16" cy="256.94" r="3.15"/><circle class="cls-1" cx="40.1" cy="256.94" r="3.15"/><circle class="cls-1" cx="64.04" cy="256.94" r="3.15"/><circle class="cls-1" cx="87.99" cy="256.94" r="3.15"/><circle class="cls-1" cx="111.93" cy="256.94" r="3.15"/><circle class="cls-1" cx="135.24" cy="-211.85" r="3.15"/><circle class="cls-1" cx="159.19" cy="-211.85" r="3.15"/><circle class="cls-1" cx="183.13" cy="-211.85" r="3.15" transform="rotate(-77.07 183.13 -211.838)"/><circle class="cls-1" cx="207.07" cy="-211.85" r="3.15"/><circle class="cls-1" cx="231.02" cy="-211.85" r="3.15"/><circle class="cls-1" cx="254.96" cy="-211.85" r="3.15"/><circle class="cls-1" cx="278.9" cy="-211.85" r="3.15"/><circle class="cls-1" cx="302.85" cy="-211.85" r="3.15"/><circle class="cls-1" cx="135.24" cy="-190.43" r="3.15"/><circle class="cls-1" cx="159.19" cy="-190.43" r="3.15"/><circle class="cls-1" cx="183.13" cy="-190.43" r="3.15" transform="rotate(-76.72 183.133 -190.416)"/><circle class="cls-1" cx="207.07" cy="-190.43" r="3.15"/><circle class="cls-1" cx="231.02" cy="-190.43" r="3.15"/><circle class="cls-1" cx="254.96" cy="-190.43" r="3.15"/><circle class="cls-1" cx="278.9" cy="-190.43" r="3.15"/><circle class="cls-1" cx="302.85" cy="-190.43" r="3.15"/><circle class="cls-1" cx="135.24" cy="-169" r="3.15"/><circle class="cls-1" cx="159.19" cy="-169" r="3.15"/><circle class="cls-1" cx="183.13" cy="-169" r="3.15" transform="rotate(-76.72 183.132 -168.994)"/><circle class="cls-1" cx="207.07" cy="-169" r="3.15"/><circle class="cls-1" cx="231.02" cy="-169" r="3.15"/><circle class="cls-1" cx="254.96" cy="-169" r="3.15"/><circle class="cls-1" cx="278.9" cy="-169" r="3.15"/><circle class="cls-1" cx="302.85" cy="-169" r="3.15"/><circle class="cls-1" cx="135.24" cy="-147.58" r="3.15"/><circle class="cls-1" cx="159.19" cy="-147.58" r="3.15"/><circle class="cls-1" cx="183.13" cy="-147.58" r="3.15" transform="rotate(-80.78 183.134 -147.585)"/><circle class="cls-1" cx="207.07" cy="-147.58" r="3.15"/><circle class="cls-1" cx="231.02" cy="-147.58" r="3.15"/><circle class="cls-1" cx="254.96" cy="-147.58" r="3.15"/><circle class="cls-1" cx="278.9" cy="-147.58" r="3.15"/><circle class="cls-1" cx="302.85" cy="-147.58" r="3.15"/><circle class="cls-1" cx="135.24" cy="-126.16" r="3.15"/><circle class="cls-1" cx="159.19" cy="-126.16" r="3.15"/><circle class="cls-1" cx="183.13" cy="-126.16" r="3.15" transform="rotate(-80.78 183.137 -126.166)"/><circle class="cls-1" cx="207.07" cy="-126.16" r="3.15"/><circle class="cls-1" cx="231.02" cy="-126.16" r="3.15"/><circle class="cls-1" cx="254.96" cy="-126.16" r="3.15"/><circle class="cls-1" cx="278.9" cy="-126.16" r="3.15"/><circle class="cls-1" cx="302.85" cy="-126.16" r="3.15"/><circle class="cls-1" cx="135.24" cy="-104.74" r="3.15"/><circle class="cls-1" cx="159.19" cy="-104.74" r="3.15"/><circle class="cls-1" cx="183.13" cy="-104.74" r="3.15" transform="rotate(-80.78 183.135 -104.741)"/><circle class="cls-1" cx="207.07" cy="-104.74" r="3.15"/><circle class="cls-1" cx="231.02" cy="-104.74" r="3.15"/><circle class="cls-1" cx="254.96" cy="-104.74" r="3.15"/><circle class="cls-1" cx="278.9" cy="-104.74" r="3.15"/><circle class="cls-1" cx="302.85" cy="-104.74" r="3.15"/><circle class="cls-1" cx="135.24" cy="-83.31" r="3.15"/><circle class="cls-1" cx="159.19" cy="-83.31" r="3.15"/><circle class="cls-1" cx="183.13" cy="-83.31" r="3.15" transform="rotate(-80.78 183.133 -83.316)"/><circle class="cls-1" cx="207.07" cy="-83.31" r="3.15"/><circle class="cls-1" cx="231.02" cy="-83.31" r="3.15"/><circle class="cls-1" cx="254.96" cy="-83.31" r="3.15"/><circle class="cls-1" cx="278.9" cy="-83.31" r="3.15"/><circle class="cls-1" cx="302.85" cy="-83.31" r="3.15"/><circle class="cls-1" cx="135.24" cy="-61.89" r="3.15"/><circle class="cls-1" cx="159.19" cy="-61.89" r="3.15"/><circle class="cls-1" cx="183.13" cy="-61.89" r="3.15" transform="rotate(-80.78 183.136 -61.897)"/><circle class="cls-1" cx="207.07" cy="-61.89" r="3.15"/><circle class="cls-1" cx="231.02" cy="-61.89" r="3.15"/><circle class="cls-1" cx="254.96" cy="-61.89" r="3.15"/><circle class="cls-1" cx="278.9" cy="-61.89" r="3.15"/><circle class="cls-1" cx="302.85" cy="-61.89" r="3.15"/><circle class="cls-1" cx="135.24" cy="-40.46" r="3.15"/><circle class="cls-1" cx="159.19" cy="-40.46" r="3.15"/><circle class="cls-1" cx="183.13" cy="-40.46" r="3.15" transform="rotate(-80.78 183.133 -40.472)"/><circle class="cls-1" cx="207.07" cy="-40.46" r="3.15"/><circle class="cls-1" cx="231.02" cy="-40.46" r="3.15"/><circle class="cls-1" cx="254.96" cy="-40.46" r="3.15"/><circle class="cls-1" cx="278.9" cy="-40.46" r="3.15"/><circle class="cls-1" cx="302.85" cy="-40.46" r="3.15"/><circle class="cls-1" cx="135.24" cy="-19.04" r="3.15"/><circle class="cls-1" cx="159.19" cy="-19.04" r="3.15"/><circle class="cls-1" cx="183.13" cy="-19.04" r="3.15" transform="rotate(-80.78 183.131 -19.047)"/><circle class="cls-1" cx="207.07" cy="-19.04" r="3.15"/><circle class="cls-1" cx="231.02" cy="-19.04" r="3.15"/><circle class="cls-1" cx="254.96" cy="-19.04" r="3.15"/><circle class="cls-1" cx="278.9" cy="-19.04" r="3.15"/><circle class="cls-1" cx="302.85" cy="-19.04" r="3.15"/><circle class="cls-1" cx="135.24" cy="2.38" r="3.15"/><circle class="cls-1" cx="159.19" cy="2.38" r="3.15"/><circle class="cls-1" cx="183.13" cy="2.38" r="3.15" transform="rotate(-80.78 183.14 2.377)"/><circle class="cls-1" cx="207.07" cy="2.38" r="3.15"/><circle class="cls-1" cx="231.02" cy="2.38" r="3.15"/><circle class="cls-1" cx="254.96" cy="2.38" r="3.15"/><circle class="cls-1" cx="278.9" cy="2.38" r="3.15"/><circle class="cls-1" cx="302.85" cy="2.38" r="3.15"/><circle class="cls-1" cx="135.24" cy="23.8" r="3.15"/><circle class="cls-1" cx="159.19" cy="23.8" r="3.15"/><circle class="cls-1" cx="183.13" cy="23.8" r="3.15" transform="rotate(-80.78 183.138 23.802)"/><circle class="cls-1" cx="207.07" cy="23.8" r="3.15"/><circle class="cls-1" cx="231.02" cy="23.8" r="3.15"/><circle class="cls-1" cx="254.96" cy="23.8" r="3.15"/><circle class="cls-1" cx="278.9" cy="23.8" r="3.15"/><circle class="cls-1" cx="302.85" cy="23.8" r="3.15"/><circle class="cls-1" cx="135.24" cy="45.23" r="3.15"/><circle class="cls-1" cx="159.19" cy="45.23" r="3.15"/><circle class="cls-1" cx="183.13" cy="45.23" r="3.15"/><circle class="cls-1" cx="207.07" cy="45.23" r="3.15"/><circle class="cls-1" cx="231.02" cy="45.23" r="3.15"/><circle class="cls-1" cx="254.96" cy="45.23" r="3.15"/><circle class="cls-1" cx="278.9" cy="45.23" r="3.15"/><circle class="cls-1" cx="302.85" cy="45.23" r="3.15"/><circle class="cls-1" cx="135.24" cy="66.65" r="3.15"/><circle class="cls-1" cx="159.19" cy="66.65" r="3.15"/><circle class="cls-1" cx="183.13" cy="66.65" r="3.15"/><circle class="cls-1" cx="207.07" cy="66.65" r="3.15"/><circle class="cls-1" cx="231.02" cy="66.65" r="3.15"/><circle class="cls-1" cx="254.96" cy="66.65" r="3.15"/><circle class="cls-1" cx="278.9" cy="66.65" r="3.15"/><circle class="cls-1" cx="302.85" cy="66.65" r="3.15"/><circle class="cls-1" cx="135.24" cy="88.07" r="3.15"/><circle class="cls-1" cx="159.19" cy="88.07" r="3.15"/><circle class="cls-1" cx="183.13" cy="88.07" r="3.15"/><circle class="cls-1" cx="207.07" cy="88.07" r="3.15"/><circle class="cls-1" cx="231.02" cy="88.07" r="3.15"/><circle class="cls-1" cx="254.96" cy="88.07" r="3.15"/><circle class="cls-1" cx="278.9" cy="88.07" r="3.15"/><circle class="cls-1" cx="302.85" cy="88.07" r="3.15"/><circle class="cls-1" cx="135.24" cy="109.5" r="3.15"/><circle class="cls-1" cx="159.19" cy="109.5" r="3.15"/><circle class="cls-1" cx="183.13" cy="109.5" r="3.15"/><circle class="cls-1" cx="207.07" cy="109.5" r="3.15"/><circle class="cls-1" cx="231.02" cy="109.5" r="3.15"/><circle class="cls-1" cx="254.96" cy="109.5" r="3.15"/><circle class="cls-1" cx="278.9" cy="109.5" r="3.15"/><circle class="cls-1" cx="302.85" cy="109.5" r="3.15"/><circle class="cls-1" cx="135.24" cy="128.4" r="3.15"/><circle class="cls-1" cx="159.19" cy="128.4" r="3.15"/><circle class="cls-1" cx="183.13" cy="128.4" r="3.15"/><circle class="cls-1" cx="207.07" cy="128.4" r="3.15"/><circle class="cls-1" cx="231.02" cy="128.4" r="3.15"/><circle class="cls-1" cx="254.96" cy="128.4" r="3.15"/><circle class="cls-1" cx="278.9" cy="128.4" r="3.15"/><circle class="cls-1" cx="302.85" cy="128.4" r="3.15"/><circle class="cls-1" cx="135.24" cy="149.82" r="3.15"/><circle class="cls-1" cx="159.19" cy="149.82" r="3.15"/><circle class="cls-1" cx="183.13" cy="149.82" r="3.15"/><circle class="cls-1" cx="207.07" cy="149.82" r="3.15"/><circle class="cls-1" cx="231.02" cy="149.82" r="3.15"/><circle class="cls-1" cx="254.96" cy="149.82" r="3.15"/><circle class="cls-1" cx="278.9" cy="149.82" r="3.15"/><circle class="cls-1" cx="302.85" cy="149.82" r="3.15"/><circle class="cls-1" cx="135.24" cy="171.24" r="3.15"/><circle class="cls-1" cx="159.19" cy="171.24" r="3.15"/><circle class="cls-1" cx="183.13" cy="171.24" r="3.15"/><circle class="cls-1" cx="207.07" cy="171.24" r="3.15"/><circle class="cls-1" cx="231.02" cy="171.24" r="3.15"/><circle class="cls-1" cx="254.96" cy="171.24" r="3.15"/><circle class="cls-1" cx="278.9" cy="171.24" r="3.15"/><circle class="cls-1" cx="302.85" cy="171.24" r="3.15"/><circle class="cls-1" cx="135.24" cy="192.67" r="3.15"/><circle class="cls-1" cx="159.19" cy="192.67" r="3.15"/><circle class="cls-1" cx="183.13" cy="192.67" r="3.15"/><circle class="cls-1" cx="207.07" cy="192.67" r="3.15"/><circle class="cls-1" cx="231.02" cy="192.67" r="3.15"/><circle class="cls-1" cx="254.96" cy="192.67" r="3.15"/><circle class="cls-1" cx="278.9" cy="192.67" r="3.15"/><circle class="cls-1" cx="302.85" cy="192.67" r="3.15"/><circle class="cls-1" cx="135.24" cy="214.09" r="3.15"/><circle class="cls-1" cx="159.19" cy="214.09" r="3.15"/><circle class="cls-1" cx="183.13" cy="214.09" r="3.15"/><circle class="cls-1" cx="207.07" cy="214.09" r="3.15"/><circle class="cls-1" cx="231.02" cy="214.09" r="3.15"/><circle class="cls-1" cx="254.96" cy="214.09" r="3.15"/><circle class="cls-1" cx="278.9" cy="214.09" r="3.15"/><circle class="cls-1" cx="302.85" cy="214.09" r="3.15"/><circle class="cls-1" cx="135.24" cy="235.51" r="3.15"/><circle class="cls-1" cx="159.19" cy="235.51" r="3.15"/><circle class="cls-1" cx="183.13" cy="235.51" r="3.15"/><circle class="cls-1" cx="207.07" cy="235.51" r="3.15"/><circle class="cls-1" cx="231.02" cy="235.51" r="3.15"/><circle class="cls-1" cx="254.96" cy="235.51" r="3.15"/><circle class="cls-1" cx="278.9" cy="235.51" r="3.15"/><circle class="cls-1" cx="302.85" cy="235.51" r="3.15"/><circle class="cls-1" cx="135.24" cy="256.94" r="3.15"/><circle class="cls-1" cx="159.19" cy="256.94" r="3.15"/><circle class="cls-1" cx="183.13" cy="256.94" r="3.15"/><circle class="cls-1" cx="207.07" cy="256.94" r="3.15"/><circle class="cls-1" cx="231.02" cy="256.94" r="3.15"/><circle class="cls-1" cx="254.96" cy="256.94" r="3.15"/><circle class="cls-1" cx="278.9" cy="256.94" r="3.15"/><circle class="cls-1" cx="302.85" cy="256.94" r="3.15"/><circle class="cls-1" cx="-56.3" cy="279.62" r="3.15"/><circle class="cls-1" cx="-32.36" cy="279.62" r="3.15"/><circle class="cls-1" cx="-8.42" cy="279.62" r="3.15" transform="rotate(-88.09 -8.41 279.625)"/><circle class="cls-1" cx="15.53" cy="279.62" r="3.15"/><circle class="cls-1" cx="39.47" cy="279.62" r="3.15"/><circle class="cls-1" cx="63.41" cy="279.62" r="3.15"/><circle class="cls-1" cx="87.36" cy="279.62" r="3.15"/><circle class="cls-1" cx="111.3" cy="279.62" r="3.15"/><circle class="cls-1" cx="-56.3" cy="301.04" r="3.15"/><circle class="cls-1" cx="-32.36" cy="301.04" r="3.15"/><circle class="cls-1" cx="-8.42" cy="301.04" r="3.15" transform="rotate(-88.09 -8.41 301.048)"/><circle class="cls-1" cx="15.53" cy="301.04" r="3.15"/><circle class="cls-1" cx="39.47" cy="301.04" r="3.15"/><circle class="cls-1" cx="63.41" cy="301.04" r="3.15"/><circle class="cls-1" cx="87.36" cy="301.04" r="3.15"/><circle class="cls-1" cx="111.3" cy="301.04" r="3.15"/><circle class="cls-1" cx="-56.3" cy="322.47" r="3.15"/><circle class="cls-1" cx="-32.36" cy="322.47" r="3.15"/><circle class="cls-1" cx="-8.42" cy="322.47" r="3.15" transform="rotate(-88.09 -8.408 322.471)"/><circle class="cls-1" cx="15.53" cy="322.47" r="3.15"/><circle class="cls-1" cx="39.47" cy="322.47" r="3.15"/><circle class="cls-1" cx="63.41" cy="322.47" r="3.15"/><circle class="cls-1" cx="87.36" cy="322.47" r="3.15"/><circle class="cls-1" cx="111.3" cy="322.47" r="3.15"/><circle class="cls-1" cx="-56.3" cy="343.89" r="3.15"/><circle class="cls-1" cx="-32.36" cy="343.89" r="3.15"/><circle class="cls-1" cx="-8.42" cy="343.89" r="3.15" transform="rotate(-88.09 -8.407 343.894)"/><circle class="cls-1" cx="15.53" cy="343.89" r="3.15"/><circle class="cls-1" cx="39.47" cy="343.89" r="3.15"/><circle class="cls-1" cx="63.41" cy="343.89" r="3.15"/><circle class="cls-1" cx="87.36" cy="343.89" r="3.15"/><circle class="cls-1" cx="111.3" cy="343.89" r="3.15"/><circle class="cls-1" cx="-56.3" cy="365.31" r="3.15"/><circle class="cls-1" cx="-32.36" cy="365.31" r="3.15"/><circle class="cls-1" cx="-8.42" cy="365.31" r="3.15" transform="rotate(-88.09 -8.406 365.317)"/><circle class="cls-1" cx="15.53" cy="365.31" r="3.15"/><circle class="cls-1" cx="39.47" cy="365.31" r="3.15"/><circle class="cls-1" cx="63.41" cy="365.31" r="3.15"/><circle class="cls-1" cx="87.36" cy="365.31" r="3.15"/><circle class="cls-1" cx="111.3" cy="365.31" r="3.15"/><circle class="cls-1" cx="-56.3" cy="386.73" r="3.15"/><circle class="cls-1" cx="-32.36" cy="386.73" r="3.15"/><circle class="cls-1" cx="-8.42" cy="386.73" r="3.15" transform="rotate(-88.09 -8.41 386.745)"/><circle class="cls-1" cx="15.53" cy="386.73" r="3.15"/><circle class="cls-1" cx="39.47" cy="386.73" r="3.15"/><circle class="cls-1" cx="63.41" cy="386.73" r="3.15"/><circle class="cls-1" cx="87.36" cy="386.73" r="3.15"/><circle class="cls-1" cx="111.3" cy="386.73" r="3.15"/><circle class="cls-1" cx="-56.3" cy="408.16" r="3.15"/><circle class="cls-1" cx="-32.36" cy="408.16" r="3.15"/><circle class="cls-1" cx="-8.42" cy="408.16" r="3.15" transform="rotate(-88.09 -8.409 408.168)"/><circle class="cls-1" cx="15.53" cy="408.16" r="3.15"/><circle class="cls-1" cx="39.47" cy="408.16" r="3.15"/><circle class="cls-1" cx="63.41" cy="408.16" r="3.15"/><circle class="cls-1" cx="87.36" cy="408.16" r="3.15"/><circle class="cls-1" cx="111.3" cy="408.16" r="3.15"/><circle class="cls-1" cx="-56.3" cy="429.58" r="3.15"/><circle class="cls-1" cx="-32.36" cy="429.58" r="3.15"/><circle class="cls-1" cx="-8.42" cy="429.58" r="3.15" transform="rotate(-88.09 -8.408 429.591)"/><circle class="cls-1" cx="15.53" cy="429.58" r="3.15"/><circle class="cls-1" cx="39.47" cy="429.58" r="3.15"/><circle class="cls-1" cx="63.41" cy="429.58" r="3.15"/><circle class="cls-1" cx="87.36" cy="429.58" r="3.15"/><circle class="cls-1" cx="111.3" cy="429.58" r="3.15"/><circle class="cls-1" cx="-56.3" cy="451" r="3.15"/><circle class="cls-1" cx="-32.36" cy="451" r="3.15"/><circle class="cls-1" cx="-8.42" cy="451" r="3.15" transform="rotate(-88.09 -8.407 451.014)"/><circle class="cls-1" cx="15.53" cy="451" r="3.15"/><circle class="cls-1" cx="39.47" cy="451" r="3.15"/><circle class="cls-1" cx="63.41" cy="451" r="3.15"/><circle class="cls-1" cx="87.36" cy="451" r="3.15"/><circle class="cls-1" cx="111.3" cy="451" r="3.15"/><circle class="cls-1" cx="-56.3" cy="472.43" r="3.15"/><circle class="cls-1" cx="-32.36" cy="472.43" r="3.15"/><circle class="cls-1" cx="-8.42" cy="472.43" r="3.15" transform="rotate(-88.09 -8.406 472.437)"/><circle class="cls-1" cx="15.53" cy="472.43" r="3.15"/><circle class="cls-1" cx="39.47" cy="472.43" r="3.15"/><circle class="cls-1" cx="63.41" cy="472.43" r="3.15"/><circle class="cls-1" cx="87.36" cy="472.43" r="3.15"/><circle class="cls-1" cx="111.3" cy="472.43" r="3.15"/><circle class="cls-1" cx="-56.3" cy="493.85" r="3.15"/><circle class="cls-1" cx="-32.36" cy="493.85" r="3.15"/><circle class="cls-1" cx="-8.42" cy="493.85" r="3.15" transform="rotate(-88.09 -8.405 493.86)"/><circle class="cls-1" cx="15.53" cy="493.85" r="3.15"/><circle class="cls-1" cx="39.47" cy="493.85" r="3.15"/><circle class="cls-1" cx="63.41" cy="493.85" r="3.15"/><circle class="cls-1" cx="87.36" cy="493.85" r="3.15"/><circle class="cls-1" cx="111.3" cy="493.85" r="3.15"/><circle class="cls-1" cx="134.61" cy="279.62" r="3.15"/><circle class="cls-1" cx="158.56" cy="279.62" r="3.15"/><circle class="cls-1" cx="182.5" cy="279.62" r="3.15"/><circle class="cls-1" cx="206.44" cy="279.62" r="3.15"/><circle class="cls-1" cx="230.39" cy="279.62" r="3.15"/><circle class="cls-1" cx="254.33" cy="279.62" r="3.15"/><circle class="cls-1" cx="278.27" cy="279.62" r="3.15"/><circle class="cls-1" cx="302.22" cy="279.62" r="3.15"/><circle class="cls-1" cx="134.61" cy="301.04" r="3.15"/><circle class="cls-1" cx="158.56" cy="301.04" r="3.15"/><circle class="cls-1" cx="182.5" cy="301.04" r="3.15"/><circle class="cls-1" cx="206.44" cy="301.04" r="3.15"/><circle class="cls-1" cx="230.39" cy="301.04" r="3.15"/><circle class="cls-1" cx="254.33" cy="301.04" r="3.15"/><circle class="cls-1" cx="278.27" cy="301.04" r="3.15"/><circle class="cls-1" cx="302.22" cy="301.04" r="3.15"/><circle class="cls-1" cx="134.61" cy="322.47" r="3.15"/><circle class="cls-1" cx="158.56" cy="322.47" r="3.15"/><circle class="cls-1" cx="182.5" cy="322.47" r="3.15"/><circle class="cls-1" cx="206.44" cy="322.47" r="3.15"/><circle class="cls-1" cx="230.39" cy="322.47" r="3.15"/><circle class="cls-1" cx="254.33" cy="322.47" r="3.15"/><circle class="cls-1" cx="278.27" cy="322.47" r="3.15"/><circle class="cls-1" cx="302.22" cy="322.47" r="3.15"/><circle class="cls-1" cx="134.61" cy="343.89" r="3.15"/><circle class="cls-1" cx="158.56" cy="343.89" r="3.15"/><circle class="cls-1" cx="182.5" cy="343.89" r="3.15"/><circle class="cls-1" cx="206.44" cy="343.89" r="3.15"/><circle class="cls-1" cx="230.39" cy="343.89" r="3.15"/><circle class="cls-1" cx="254.33" cy="343.89" r="3.15"/><circle class="cls-1" cx="278.27" cy="343.89" r="3.15"/><circle class="cls-1" cx="302.22" cy="343.89" r="3.15"/><circle class="cls-1" cx="134.61" cy="365.31" r="3.15"/><circle class="cls-1" cx="158.56" cy="365.31" r="3.15"/><circle class="cls-1" cx="182.5" cy="365.31" r="3.15"/><circle class="cls-1" cx="206.44" cy="365.31" r="3.15"/><circle class="cls-1" cx="230.39" cy="365.31" r="3.15"/><circle class="cls-1" cx="254.33" cy="365.31" r="3.15"/><circle class="cls-1" cx="278.27" cy="365.31" r="3.15"/><circle class="cls-1" cx="302.22" cy="365.31" r="3.15"/><circle class="cls-1" cx="134.61" cy="386.73" r="3.15"/><circle class="cls-1" cx="158.56" cy="386.73" r="3.15"/><circle class="cls-1" cx="182.5" cy="386.73" r="3.15"/><circle class="cls-1" cx="206.44" cy="386.73" r="3.15"/><circle class="cls-1" cx="230.39" cy="386.73" r="3.15"/><circle class="cls-1" cx="254.33" cy="386.73" r="3.15"/><circle class="cls-1" cx="278.27" cy="386.73" r="3.15"/><circle class="cls-1" cx="302.22" cy="386.73" r="3.15"/><circle class="cls-1" cx="134.61" cy="408.16" r="3.15"/><circle class="cls-1" cx="158.56" cy="408.16" r="3.15"/><circle class="cls-1" cx="182.5" cy="408.16" r="3.15"/><circle class="cls-1" cx="206.44" cy="408.16" r="3.15"/><circle class="cls-1" cx="230.39" cy="408.16" r="3.15"/><circle class="cls-1" cx="254.33" cy="408.16" r="3.15"/><circle class="cls-1" cx="278.27" cy="408.16" r="3.15"/><circle class="cls-1" cx="302.22" cy="408.16" r="3.15"/><circle class="cls-1" cx="134.61" cy="429.58" r="3.15"/><circle class="cls-1" cx="158.56" cy="429.58" r="3.15"/><circle class="cls-1" cx="182.5" cy="429.58" r="3.15"/><circle class="cls-1" cx="206.44" cy="429.58" r="3.15"/><circle class="cls-1" cx="230.39" cy="429.58" r="3.15"/><circle class="cls-1" cx="254.33" cy="429.58" r="3.15"/><circle class="cls-1" cx="278.27" cy="429.58" r="3.15"/><circle class="cls-1" cx="302.22" cy="429.58" r="3.15"/><circle class="cls-1" cx="134.61" cy="451" r="3.15"/><circle class="cls-1" cx="158.56" cy="451" r="3.15"/><circle class="cls-1" cx="182.5" cy="451" r="3.15"/><circle class="cls-1" cx="206.44" cy="451" r="3.15"/><circle class="cls-1" cx="230.39" cy="451" r="3.15"/><circle class="cls-1" cx="254.33" cy="451" r="3.15"/><circle class="cls-1" cx="278.27" cy="451" r="3.15"/><circle class="cls-1" cx="302.22" cy="451" r="3.15"/><circle class="cls-1" cx="134.61" cy="472.43" r="3.15"/><circle class="cls-1" cx="158.56" cy="472.43" r="3.15"/><circle class="cls-1" cx="182.5" cy="472.43" r="3.15"/><circle class="cls-1" cx="206.44" cy="472.43" r="3.15"/><circle class="cls-1" cx="230.39" cy="472.43" r="3.15"/><circle class="cls-1" cx="254.33" cy="472.43" r="3.15"/><circle class="cls-1" cx="278.27" cy="472.43" r="3.15"/><circle class="cls-1" cx="302.22" cy="472.43" r="3.15"/><circle class="cls-1" cx="134.61" cy="493.85" r="3.15"/><circle class="cls-1" cx="158.56" cy="493.85" r="3.15"/><circle class="cls-1" cx="182.5" cy="493.85" r="3.15"/><circle class="cls-1" cx="206.44" cy="493.85" r="3.15"/><circle class="cls-1" cx="230.39" cy="493.85" r="3.15"/><circle class="cls-1" cx="254.33" cy="493.85" r="3.15"/><circle class="cls-1" cx="278.27" cy="493.85" r="3.15"/><circle class="cls-1" cx="302.22" cy="493.85" r="3.15"/></g></mask></defs><g id="Слой_2" data-name="Слой 2"><g mask="url(#mask)" id="Слой_1-2" data-name="Слой 1"><circle cx="34.5" cy="34.5" r="34.5" fill="url(#Безымянный_градиент)"/></g></g></svg>