<svg xmlns="http://www.w3.org/2000/svg" xmlns:xlink="http://www.w3.org/1999/xlink" viewBox="0 0 139 139"><defs><style>.cls-1{fill:#c4c4c4;}.cls-2{mask:url(#mask);}.cls-3{fill:url(#Безымянный_градиент);}</style><mask id="mask" x="-227.23" y="-56.46" width="366.23" height="583.46" maskUnits="userSpaceOnUse"><g id="mask0"><circle class="cls-1" cx="-223.45" cy="-53.31" r="3.15"/><circle class="cls-1" cx="-199.5" cy="-53.31" r="3.15"/><circle class="cls-1" cx="-175.56" cy="-53.31" r="3.15"/><circle class="cls-1" cx="-151.62" cy="-53.31" r="3.15"/><circle class="cls-1" cx="-127.67" cy="-53.31" r="3.15"/><circle class="cls-1" cx="-103.73" cy="-53.31" r="3.15"/><circle class="cls-1" cx="-79.79" cy="-53.31" r="3.15"/><circle class="cls-1" cx="-55.84" cy="-53.31" r="3.15"/><circle class="cls-1" cx="-31.9" cy="-53.31" r="3.15"/><circle class="cls-1" cx="-7.96" cy="-53.31" r="3.15"/><circle class="cls-1" cx="15.99" cy="-53.31" r="3.15"/><circle class="cls-1" cx="39.93" cy="-53.31" r="3.15"/><circle class="cls-1" cx="-223.45" cy="-31.89" r="3.15"/><circle class="cls-1" cx="-199.5" cy="-31.89" r="3.15"/><circle class="cls-1" cx="-175.56" cy="-31.89" r="3.15"/><circle class="cls-1" cx="-151.62" cy="-31.89" r="3.15"/><circle class="cls-1" cx="-127.67" cy="-31.89" r="3.15"/><circle class="cls-1" cx="-103.73" cy="-31.89" r="3.15"/><circle class="cls-1" cx="-79.79" cy="-31.89" r="3.15"/><circle class="cls-1" cx="-55.84" cy="-31.89" r="3.15"/><circle class="cls-1" cx="-31.9" cy="-31.89" r="3.15"/><circle class="cls-1" cx="-7.96" cy="-31.89" r="3.15"/><circle class="cls-1" cx="15.99" cy="-31.89" r="3.15"/><circle class="cls-1" cx="39.93" cy="-31.89" r="3.15"/><circle class="cls-1" cx="-223.45" cy="-10.47" r="3.15"/><circle class="cls-1" cx="-199.5" cy="-10.47" r="3.15"/><circle class="cls-1" cx="-175.56" cy="-10.47" r="3.15"/><circle class="cls-1" cx="-151.62" cy="-10.47" r="3.15"/><circle class="cls-1" cx="-127.67" cy="-10.47" r="3.15"/><circle class="cls-1" cx="-103.73" cy="-10.47" r="3.15"/><circle class="cls-1" cx="-79.79" cy="-10.47" r="3.15"/><circle class="cls-1" cx="-55.84" cy="-10.47" r="3.15"/><circle class="cls-1" cx="-31.9" cy="-10.47" r="3.15"/><circle class="cls-1" cx="-7.96" cy="-10.47" r="3.15"/><circle class="cls-1" cx="15.99" cy="-10.47" r="3.15"/><circle class="cls-1" cx="39.93" cy="-10.47" r="3.15"/><circle class="cls-1" cx="-223.45" cy="10.96" r="3.15"/><circle class="cls-1" cx="-199.5" cy="10.96" r="3.15"/><circle class="cls-1" cx="-175.56" cy="10.96" r="3.15"/><circle class="cls-1" cx="-151.62" cy="10.96" r="3.15"/><circle class="cls-1" cx="-127.67" cy="10.96" r="3.15"/><circle class="cls-1" cx="-103.73" cy="10.96" r="3.15"/><circle class="cls-1" cx="-79.79" cy="10.96" r="3.15"/><circle class="cls-1" cx="-55.84" cy="10.96" r="3.15"/><circle class="cls-1" cx="-31.9" cy="10.96" r="3.15"/><circle class="cls-1" cx="-7.96" cy="10.96" r="3.15"/><circle class="cls-1" cx="15.99" cy="10.96" r="3.15"/><circle class="cls-1" cx="39.93" cy="10.96" r="3.15"/><circle class="cls-1" cx="-223.45" cy="32.38" r="3.15"/><circle class="cls-1" cx="-199.5" cy="32.38" r="3.15"/><circle class="cls-1" cx="-175.56" cy="32.38" r="3.15"/><circle class="cls-1" cx="-151.62" cy="32.38" r="3.15"/><circle class="cls-1" cx="-127.67" cy="32.38" r="3.15"/><circle class="cls-1" cx="-103.73" cy="32.38" r="3.15"/><circle class="cls-1" cx="-79.79" cy="32.38" r="3.15"/><circle class="cls-1" cx="-55.84" cy="32.38" r="3.15"/><circle class="cls-1" cx="-31.9" cy="32.38" r="3.15"/><circle class="cls-1" cx="-7.96" cy="32.38" r="3.15"/><circle class="cls-1" cx="15.99" cy="32.38" r="3.15"/><circle class="cls-1" cx="39.93" cy="32.38" r="3.15"/><circle class="cls-1" cx="-223.45" cy="53.8" r="3.15"/><circle class="cls-1" cx="-199.5" cy="53.8" r="3.15"/><circle class="cls-1" cx="-175.56" cy="53.8" r="3.15"/><circle class="cls-1" cx="-151.62" cy="53.8" r="3.15"/><circle class="cls-1" cx="-127.67" cy="53.8" r="3.15"/><circle class="cls-1" cx="-103.73" cy="53.8" r="3.15"/><circle class="cls-1" cx="-79.79" cy="53.8" r="3.15"/><circle class="cls-1" cx="-55.84" cy="53.8" r="3.15"/><circle class="cls-1" cx="-31.9" cy="53.8" r="3.15"/><circle class="cls-1" cx="-7.96" cy="53.8" r="3.15"/><circle class="cls-1" cx="15.99" cy="53.8" r="3.15"/><circle class="cls-1" cx="39.93" cy="53.8" r="3.15"/><circle class="cls-1" cx="-223.45" cy="75.23" r="3.15"/><circle class="cls-1" cx="-199.5" cy="75.23" r="3.15"/><circle class="cls-1" cx="-175.56" cy="75.23" r="3.15"/><circle class="cls-1" cx="-151.62" cy="75.23" r="3.15"/><circle class="cls-1" cx="-127.67" cy="75.23" r="3.15"/><circle class="cls-1" cx="-103.73" cy="75.23" r="3.15"/><circle class="cls-1" cx="-79.79" cy="75.23" r="3.15"/><circle class="cls-1" cx="-55.84" cy="75.23" r="3.15"/><circle class="cls-1" cx="-31.9" cy="75.23" r="3.15"/><circle class="cls-1" cx="-7.96" cy="75.23" r="3.15"/><circle class="cls-1" cx="15.99" cy="75.23" r="3.15"/><circle class="cls-1" cx="39.93" cy="75.23" r="3.15"/><circle class="cls-1" cx="-223.45" cy="96.65" r="3.15"/><circle class="cls-1" cx="-199.5" cy="96.65" r="3.15"/><circle class="cls-1" cx="-175.56" cy="96.65" r="3.15"/><circle class="cls-1" cx="-151.62" cy="96.65" r="3.15"/><circle class="cls-1" cx="-127.67" cy="96.65" r="3.15"/><circle class="cls-1" cx="-103.73" cy="96.65" r="3.15"/><circle class="cls-1" cx="-79.79" cy="96.65" r="3.15"/><circle class="cls-1" cx="-55.84" cy="96.65" r="3.15"/><circle class="cls-1" cx="-31.9" cy="96.65" r="3.15"/><circle class="cls-1" cx="-7.96" cy="96.65" r="3.15"/><circle class="cls-1" cx="15.99" cy="96.65" r="3.15"/><circle class="cls-1" cx="39.93" cy="96.65" r="3.15"/><circle class="cls-1" cx="-223.45" cy="118.07" r="3.15"/><circle class="cls-1" cx="-199.5" cy="118.07" r="3.15"/><circle class="cls-1" cx="-175.56" cy="118.07" r="3.15"/><circle class="cls-1" cx="-151.62" cy="118.07" r="3.15"/><circle class="cls-1" cx="-127.67" cy="118.07" r="3.15"/><circle class="cls-1" cx="-103.73" cy="118.07" r="3.15"/><circle class="cls-1" cx="-79.79" cy="118.07" r="3.15"/><circle class="cls-1" cx="-55.84" cy="118.07" r="3.15"/><circle class="cls-1" cx="-31.9" cy="118.07" r="3.15"/><circle class="cls-1" cx="-7.96" cy="118.07" r="3.15"/><circle class="cls-1" cx="15.99" cy="118.07" r="3.15"/><circle class="cls-1" cx="39.93" cy="118.07" r="3.15"/><circle class="cls-1" cx="-223.45" cy="139.5" r="3.15"/><circle class="cls-1" cx="-199.5" cy="139.5" r="3.15"/><circle class="cls-1" cx="-175.56" cy="139.5" r="3.15"/><circle class="cls-1" cx="-151.62" cy="139.5" r="3.15"/><circle class="cls-1" cx="-127.67" cy="139.5" r="3.15"/><circle class="cls-1" cx="-103.73" cy="139.5" r="3.15"/><circle class="cls-1" cx="-79.79" cy="139.5" r="3.15"/><circle class="cls-1" cx="-55.84" cy="139.5" r="3.15"/><circle class="cls-1" cx="-31.9" cy="139.5" r="3.15"/><circle class="cls-1" cx="-7.96" cy="139.5" r="3.15"/><circle class="cls-1" cx="15.99" cy="139.5" r="3.15"/><circle class="cls-1" cx="39.93" cy="139.5" r="3.15"/><circle class="cls-1" cx="-223.45" cy="158.4" r="3.15"/><circle class="cls-1" cx="-199.5" cy="158.4" r="3.15"/><circle class="cls-1" cx="-175.56" cy="158.4" r="3.15"/><circle class="cls-1" cx="-151.62" cy="158.4" r="3.15"/><circle class="cls-1" cx="-127.67" cy="158.4" r="3.15"/><circle class="cls-1" cx="-103.73" cy="158.4" r="3.15"/><circle class="cls-1" cx="-79.79" cy="158.4" r="3.15"/><circle class="cls-1" cx="-55.84" cy="158.4" r="3.15"/><circle class="cls-1" cx="-31.9" cy="158.4" r="3.15"/><circle class="cls-1" cx="-7.96" cy="158.4" r="3.15"/><circle class="cls-1" cx="15.99" cy="158.4" r="3.15"/><circle class="cls-1" cx="39.93" cy="158.4" r="3.15"/><circle class="cls-1" cx="-223.45" cy="179.82" r="3.15"/><circle class="cls-1" cx="-199.5" cy="179.82" r="3.15"/><circle class="cls-1" cx="-175.56" cy="179.82" r="3.15"/><circle class="cls-1" cx="-151.62" cy="179.82" r="3.15"/><circle class="cls-1" cx="-127.67" cy="179.82" r="3.15"/><circle class="cls-1" cx="-103.73" cy="179.82" r="3.15"/><circle class="cls-1" cx="-79.79" cy="179.82" r="3.15"/><circle class="cls-1" cx="-55.84" cy="179.82" r="3.15"/><circle class="cls-1" cx="-31.9" cy="179.82" r="3.15"/><circle class="cls-1" cx="-7.96" cy="179.82" r="3.15"/><circle class="cls-1" cx="15.99" cy="179.82" r="3.15"/><circle class="cls-1" cx="39.93" cy="179.82" r="3.15"/><circle class="cls-1" cx="-223.45" cy="201.24" r="3.15" transform="translate(-0.26 -0.29) rotate(-0.07)"/><circle class="cls-1" cx="-199.5" cy="201.24" r="3.15"/><circle class="cls-1" cx="-175.56" cy="201.24" r="3.15"/><circle class="cls-1" cx="-151.62" cy="201.24" r="3.15"/><circle class="cls-1" cx="-127.67" cy="201.24" r="3.15"/><circle class="cls-1" cx="-103.73" cy="201.24" r="3.15"/><circle class="cls-1" cx="-79.79" cy="201.24" r="3.15"/><circle class="cls-1" cx="-55.84" cy="201.24" r="3.15"/><circle class="cls-1" cx="-31.9" cy="201.24" r="3.15"/><circle class="cls-1" cx="-7.96" cy="201.24" r="3.15"/><circle class="cls-1" cx="15.99" cy="201.24" r="3.15"/><circle class="cls-1" cx="39.93" cy="201.24" r="3.15"/><circle class="cls-1" cx="-223.45" cy="222.67" r="3.15" transform="translate(-0.28 -0.29) rotate(-0.07)"/><circle class="cls-1" cx="-199.5" cy="222.67" r="3.15"/><circle class="cls-1" cx="-175.56" cy="222.67" r="3.15"/><circle class="cls-1" cx="-151.62" cy="222.67" r="3.15"/><circle class="cls-1" cx="-127.67" cy="222.67" r="3.15"/><circle class="cls-1" cx="-103.73" cy="222.67" r="3.15"/><circle class="cls-1" cx="-79.79" cy="222.67" r="3.15"/><circle class="cls-1" cx="-55.84" cy="222.67" r="3.15"/><circle class="cls-1" cx="-31.9" cy="222.67" r="3.15"/><circle class="cls-1" cx="-7.96" cy="222.67" r="3.15"/><circle class="cls-1" cx="15.99" cy="222.67" r="3.15"/><circle class="cls-1" cx="39.93" cy="222.67" r="3.15"/><circle class="cls-1" cx="-223.45" cy="244.09" r="3.15" transform="translate(-0.31 -0.29) rotate(-0.07)"/><circle class="cls-1" cx="-199.5" cy="244.09" r="3.15"/><circle class="cls-1" cx="-175.56" cy="244.09" r="3.15"/><circle class="cls-1" cx="-151.62" cy="244.09" r="3.15"/><circle class="cls-1" cx="-127.67" cy="244.09" r="3.15"/><circle class="cls-1" cx="-103.73" cy="244.09" r="3.15"/><circle class="cls-1" cx="-79.79" cy="244.09" r="3.15"/><circle class="cls-1" cx="-55.84" cy="244.09" r="3.15"/><circle class="cls-1" cx="-31.9" cy="244.09" r="3.15"/><circle class="cls-1" cx="-7.96" cy="244.09" r="3.15"/><circle class="cls-1" cx="15.99" cy="244.09" r="3.15"/><circle class="cls-1" cx="39.93" cy="244.09" r="3.15"/><circle class="cls-1" cx="-223.45" cy="265.51" r="3.15" transform="translate(-0.34 -0.29) rotate(-0.07)"/><circle class="cls-1" cx="-199.5" cy="265.51" r="3.15"/><circle class="cls-1" cx="-175.56" cy="265.51" r="3.15"/><circle class="cls-1" cx="-151.62" cy="265.51" r="3.15"/><circle class="cls-1" cx="-127.67" cy="265.51" r="3.15"/><circle class="cls-1" cx="-103.73" cy="265.51" r="3.15"/><circle class="cls-1" cx="-79.79" cy="265.51" r="3.15"/><circle class="cls-1" cx="-55.84" cy="265.51" r="3.15"/><circle class="cls-1" cx="-31.9" cy="265.51" r="3.15"/><circle class="cls-1" cx="-7.96" cy="265.51" r="3.15"/><circle class="cls-1" cx="15.99" cy="265.51" r="3.15"/><circle class="cls-1" cx="39.93" cy="265.51" r="3.15"/><circle class="cls-1" cx="-223.45" cy="286.94" r="3.15" transform="translate(-0.37 -0.29) rotate(-0.07)"/><circle class="cls-1" cx="-199.5" cy="286.94" r="3.15"/><circle class="cls-1" cx="-175.56" cy="286.94" r="3.15"/><circle class="cls-1" cx="-151.62" cy="286.94" r="3.15"/><circle class="cls-1" cx="-127.67" cy="286.94" r="3.15"/><circle class="cls-1" cx="-103.73" cy="286.94" r="3.15"/><circle class="cls-1" cx="-79.79" cy="286.94" r="3.15"/><circle class="cls-1" cx="-55.84" cy="286.94" r="3.15"/><circle class="cls-1" cx="-31.9" cy="286.94" r="3.15"/><circle class="cls-1" cx="-7.96" cy="286.94" r="3.15"/><circle class="cls-1" cx="15.99" cy="286.94" r="3.15"/><circle class="cls-1" cx="39.93" cy="286.94" r="3.15"/><circle class="cls-1" cx="63.24" cy="-53.31" r="3.15"/><circle class="cls-1" cx="87.19" cy="-53.31" r="3.15"/><circle class="cls-1" cx="111.13" cy="-53.31" r="3.15"/><circle class="cls-1" cx="135.07" cy="-53.31" r="3.15"/><circle class="cls-1" cx="63.24" cy="-31.89" r="3.15"/><circle class="cls-1" cx="87.19" cy="-31.89" r="3.15"/><circle class="cls-1" cx="111.13" cy="-31.89" r="3.15"/><circle class="cls-1" cx="135.07" cy="-31.89" r="3.15"/><circle class="cls-1" cx="63.24" cy="-10.47" r="3.15"/><circle class="cls-1" cx="87.19" cy="-10.47" r="3.15"/><circle class="cls-1" cx="111.13" cy="-10.47" r="3.15"/><circle class="cls-1" cx="135.07" cy="-10.47" r="3.15"/><circle class="cls-1" cx="63.24" cy="10.96" r="3.15"/><circle class="cls-1" cx="87.19" cy="10.96" r="3.15"/><circle class="cls-1" cx="111.13" cy="10.96" r="3.15"/><circle class="cls-1" cx="135.07" cy="10.96" r="3.15"/><circle class="cls-1" cx="63.24" cy="32.38" r="3.15"/><circle class="cls-1" cx="87.19" cy="32.38" r="3.15"/><circle class="cls-1" cx="111.13" cy="32.38" r="3.15"/><circle class="cls-1" cx="135.07" cy="32.38" r="3.15"/><circle class="cls-1" cx="63.24" cy="53.8" r="3.15"/><circle class="cls-1" cx="87.19" cy="53.8" r="3.15"/><circle class="cls-1" cx="111.13" cy="53.8" r="3.15"/><circle class="cls-1" cx="135.07" cy="53.8" r="3.15"/><circle class="cls-1" cx="63.24" cy="75.23" r="3.15"/><circle class="cls-1" cx="87.19" cy="75.23" r="3.15"/><circle class="cls-1" cx="111.13" cy="75.23" r="3.15"/><circle class="cls-1" cx="135.07" cy="75.23" r="3.15"/><circle class="cls-1" cx="63.24" cy="96.65" r="3.15"/><circle class="cls-1" cx="87.19" cy="96.65" r="3.15"/><circle class="cls-1" cx="111.13" cy="96.65" r="3.15"/><circle class="cls-1" cx="135.07" cy="96.65" r="3.15"/><circle class="cls-1" cx="63.24" cy="118.07" r="3.15"/><circle class="cls-1" cx="87.19" cy="118.07" r="3.15"/><circle class="cls-1" cx="111.13" cy="118.07" r="3.15"/><circle class="cls-1" cx="135.07" cy="118.07" r="3.15"/><circle class="cls-1" cx="63.24" cy="139.5" r="3.15"/><circle class="cls-1" cx="87.19" cy="139.5" r="3.15"/><circle class="cls-1" cx="111.13" cy="139.5" r="3.15"/><circle class="cls-1" cx="135.07" cy="139.5" r="3.15"/><circle class="cls-1" cx="63.24" cy="158.4" r="3.15"/><circle class="cls-1" cx="87.19" cy="158.4" r="3.15"/><circle class="cls-1" cx="111.13" cy="158.4" r="3.15"/><circle class="cls-1" cx="135.07" cy="158.4" r="3.15"/><circle class="cls-1" cx="63.24" cy="179.82" r="3.15"/><circle class="cls-1" cx="87.19" cy="179.82" r="3.15"/><circle class="cls-1" cx="111.13" cy="179.82" r="3.15"/><circle class="cls-1" cx="135.07" cy="179.82" r="3.15"/><circle class="cls-1" cx="63.24" cy="201.24" r="3.15"/><circle class="cls-1" cx="87.19" cy="201.24" r="3.15"/><circle class="cls-1" cx="111.13" cy="201.24" r="3.15"/><circle class="cls-1" cx="135.07" cy="201.24" r="3.15"/><circle class="cls-1" cx="63.24" cy="222.67" r="3.15"/><circle class="cls-1" cx="87.19" cy="222.67" r="3.15"/><circle class="cls-1" cx="111.13" cy="222.67" r="3.15"/><circle class="cls-1" cx="135.07" cy="222.67" r="3.15"/><circle class="cls-1" cx="63.24" cy="244.09" r="3.15"/><circle class="cls-1" cx="87.19" cy="244.09" r="3.15"/><circle class="cls-1" cx="111.13" cy="244.09" r="3.15"/><circle class="cls-1" cx="135.07" cy="244.09" r="3.15"/><circle class="cls-1" cx="63.24" cy="265.51" r="3.15"/><circle class="cls-1" cx="87.19" cy="265.51" r="3.15"/><circle class="cls-1" cx="111.13" cy="265.51" r="3.15"/><circle class="cls-1" cx="135.07" cy="265.51" r="3.15"/><circle class="cls-1" cx="63.24" cy="286.94" r="3.15"/><circle class="cls-1" cx="87.19" cy="286.94" r="3.15"/><circle class="cls-1" cx="111.13" cy="286.94" r="3.15"/><circle class="cls-1" cx="135.07" cy="286.94" r="3.15"/><circle class="cls-1" cx="-224.08" cy="309.62" r="3.15"/><circle class="cls-1" cx="-200.13" cy="309.62" r="3.15"/><circle class="cls-1" cx="-176.19" cy="309.62" r="3.15"/><circle class="cls-1" cx="-152.25" cy="309.62" r="3.15"/><circle class="cls-1" cx="-128.3" cy="309.62" r="3.15"/><circle class="cls-1" cx="-104.36" cy="309.62" r="3.15"/><circle class="cls-1" cx="-80.42" cy="309.62" r="3.15"/><circle class="cls-1" cx="-56.47" cy="309.62" r="3.15"/><circle class="cls-1" cx="-32.53" cy="309.62" r="3.15"/><circle class="cls-1" cx="-8.59" cy="309.62" r="3.15"/><circle class="cls-1" cx="15.36" cy="309.62" r="3.15"/><circle class="cls-1" cx="39.3" cy="309.62" r="3.15"/><circle class="cls-1" cx="-224.08" cy="331.04" r="3.15"/><circle class="cls-1" cx="-200.13" cy="331.04" r="3.15"/><circle class="cls-1" cx="-176.19" cy="331.04" r="3.15"/><circle class="cls-1" cx="-152.25" cy="331.04" r="3.15"/><circle class="cls-1" cx="-128.3" cy="331.04" r="3.15"/><circle class="cls-1" cx="-104.36" cy="331.04" r="3.15"/><circle class="cls-1" cx="-80.42" cy="331.04" r="3.15"/><circle class="cls-1" cx="-56.47" cy="331.04" r="3.15"/><circle class="cls-1" cx="-32.53" cy="331.04" r="3.15"/><circle class="cls-1" cx="-8.59" cy="331.04" r="3.15"/><circle class="cls-1" cx="15.36" cy="331.04" r="3.15"/><circle class="cls-1" cx="39.3" cy="331.04" r="3.15"/><circle class="cls-1" cx="-224.08" cy="352.46" r="3.15"/><circle class="cls-1" cx="-200.13" cy="352.46" r="3.15"/><circle class="cls-1" cx="-176.19" cy="352.46" r="3.15"/><circle class="cls-1" cx="-152.25" cy="352.46" r="3.15"/><circle class="cls-1" cx="-128.3" cy="352.46" r="3.15"/><circle class="cls-1" cx="-104.36" cy="352.46" r="3.15"/><circle class="cls-1" cx="-80.42" cy="352.46" r="3.15"/><circle class="cls-1" cx="-56.47" cy="352.46" r="3.15"/><circle class="cls-1" cx="-32.53" cy="352.46" r="3.15"/><circle class="cls-1" cx="-8.59" cy="352.46" r="3.15"/><circle class="cls-1" cx="15.36" cy="352.46" r="3.15"/><circle class="cls-1" cx="39.3" cy="352.46" r="3.15"/><circle class="cls-1" cx="-224.08" cy="373.89" r="3.15"/><circle class="cls-1" cx="-200.13" cy="373.89" r="3.15"/><circle class="cls-1" cx="-176.19" cy="373.89" r="3.15"/><circle class="cls-1" cx="-152.25" cy="373.89" r="3.15"/><circle class="cls-1" cx="-128.3" cy="373.89" r="3.15"/><circle class="cls-1" cx="-104.36" cy="373.89" r="3.15"/><circle class="cls-1" cx="-80.42" cy="373.89" r="3.15"/><circle class="cls-1" cx="-56.47" cy="373.89" r="3.15"/><circle class="cls-1" cx="-32.53" cy="373.89" r="3.15"/><circle class="cls-1" cx="-8.59" cy="373.89" r="3.15"/><circle class="cls-1" cx="15.36" cy="373.89" r="3.15"/><circle class="cls-1" cx="39.3" cy="373.89" r="3.15"/><circle class="cls-1" cx="-224.08" cy="395.31" r="3.15"/><circle class="cls-1" cx="-200.13" cy="395.31" r="3.15"/><circle class="cls-1" cx="-176.19" cy="395.31" r="3.15"/><circle class="cls-1" cx="-152.25" cy="395.31" r="3.15"/><circle class="cls-1" cx="-128.3" cy="395.31" r="3.15"/><circle class="cls-1" cx="-104.36" cy="395.31" r="3.15"/><circle class="cls-1" cx="-80.42" cy="395.31" r="3.15"/><circle class="cls-1" cx="-56.47" cy="395.31" r="3.15"/><circle class="cls-1" cx="-32.53" cy="395.31" r="3.15"/><circle class="cls-1" cx="-8.59" cy="395.31" r="3.15"/><circle class="cls-1" cx="15.36" cy="395.31" r="3.15"/><circle class="cls-1" cx="39.3" cy="395.31" r="3.15"/><circle class="cls-1" cx="-224.08" cy="416.73" r="3.15"/><circle class="cls-1" cx="-200.13" cy="416.73" r="3.15"/><circle class="cls-1" cx="-176.19" cy="416.73" r="3.15"/><circle class="cls-1" cx="-152.25" cy="416.73" r="3.15"/><circle class="cls-1" cx="-128.3" cy="416.73" r="3.15"/><circle class="cls-1" cx="-104.36" cy="416.73" r="3.15"/><circle class="cls-1" cx="-80.42" cy="416.73" r="3.15"/><circle class="cls-1" cx="-56.47" cy="416.73" r="3.15"/><circle class="cls-1" cx="-32.53" cy="416.73" r="3.15"/><circle class="cls-1" cx="-8.59" cy="416.73" r="3.15"/><circle class="cls-1" cx="15.36" cy="416.73" r="3.15"/><circle class="cls-1" cx="39.3" cy="416.73" r="3.15"/><circle class="cls-1" cx="-224.08" cy="438.16" r="3.15"/><circle class="cls-1" cx="-200.13" cy="438.16" r="3.15"/><circle class="cls-1" cx="-176.19" cy="438.16" r="3.15"/><circle class="cls-1" cx="-152.25" cy="438.16" r="3.15"/><circle class="cls-1" cx="-128.3" cy="438.16" r="3.15"/><circle class="cls-1" cx="-104.36" cy="438.16" r="3.15"/><circle class="cls-1" cx="-80.42" cy="438.16" r="3.15"/><circle class="cls-1" cx="-56.47" cy="438.16" r="3.15"/><circle class="cls-1" cx="-32.53" cy="438.16" r="3.15"/><circle class="cls-1" cx="-8.59" cy="438.16" r="3.15"/><circle class="cls-1" cx="15.36" cy="438.16" r="3.15"/><circle class="cls-1" cx="39.3" cy="438.16" r="3.15"/><circle class="cls-1" cx="-224.08" cy="459.58" r="3.15"/><circle class="cls-1" cx="-200.13" cy="459.58" r="3.15"/><circle class="cls-1" cx="-176.19" cy="459.58" r="3.15"/><circle class="cls-1" cx="-152.25" cy="459.58" r="3.15"/><circle class="cls-1" cx="-128.3" cy="459.58" r="3.15"/><circle class="cls-1" cx="-104.36" cy="459.58" r="3.15"/><circle class="cls-1" cx="-80.42" cy="459.58" r="3.15"/><circle class="cls-1" cx="-56.47" cy="459.58" r="3.15"/><circle class="cls-1" cx="-32.53" cy="459.58" r="3.15"/><circle class="cls-1" cx="-8.59" cy="459.58" r="3.15"/><circle class="cls-1" cx="15.36" cy="459.58" r="3.15"/><circle class="cls-1" cx="39.3" cy="459.58" r="3.15"/><circle class="cls-1" cx="-224.08" cy="481" r="3.15"/><circle class="cls-1" cx="-200.13" cy="481" r="3.15"/><circle class="cls-1" cx="-176.19" cy="481" r="3.15"/><circle class="cls-1" cx="-152.25" cy="481" r="3.15"/><circle class="cls-1" cx="-128.3" cy="481" r="3.15"/><circle class="cls-1" cx="-104.36" cy="481" r="3.15"/><circle class="cls-1" cx="-80.42" cy="481" r="3.15"/><circle class="cls-1" cx="-56.47" cy="481" r="3.15"/><circle class="cls-1" cx="-32.53" cy="481" r="3.15"/><circle class="cls-1" cx="-8.59" cy="481" r="3.15"/><circle class="cls-1" cx="15.36" cy="481" r="3.15"/><circle class="cls-1" cx="39.3" cy="481" r="3.15"/><circle class="cls-1" cx="-224.08" cy="502.43" r="3.15"/><circle class="cls-1" cx="-200.13" cy="502.43" r="3.15"/><circle class="cls-1" cx="-176.19" cy="502.43" r="3.15"/><circle class="cls-1" cx="-152.25" cy="502.43" r="3.15"/><circle class="cls-1" cx="-128.3" cy="502.43" r="3.15"/><circle class="cls-1" cx="-104.36" cy="502.43" r="3.15"/><circle class="cls-1" cx="-80.42" cy="502.43" r="3.15"/><circle class="cls-1" cx="-56.47" cy="502.43" r="3.15"/><circle class="cls-1" cx="-32.53" cy="502.43" r="3.15"/><circle class="cls-1" cx="-8.59" cy="502.43" r="3.15"/><circle class="cls-1" cx="15.36" cy="502.43" r="3.15"/><circle class="cls-1" cx="39.3" cy="502.43" r="3.15"/><circle class="cls-1" cx="-224.08" cy="523.85" r="3.15"/><circle class="cls-1" cx="-200.13" cy="523.85" r="3.15"/><circle class="cls-1" cx="-176.19" cy="523.85" r="3.15"/><circle class="cls-1" cx="-152.25" cy="523.85" r="3.15"/><circle class="cls-1" cx="-128.3" cy="523.85" r="3.15"/><circle class="cls-1" cx="-104.36" cy="523.85" r="3.15"/><circle class="cls-1" cx="-80.42" cy="523.85" r="3.15"/><circle class="cls-1" cx="-56.47" cy="523.85" r="3.15"/><circle class="cls-1" cx="-32.53" cy="523.85" r="3.15"/><circle class="cls-1" cx="-8.59" cy="523.85" r="3.15"/><circle class="cls-1" cx="15.36" cy="523.85" r="3.15"/><circle class="cls-1" cx="39.3" cy="523.85" r="3.15"/><circle class="cls-1" cx="62.61" cy="309.62" r="3.15"/><circle class="cls-1" cx="86.56" cy="309.62" r="3.15"/><circle class="cls-1" cx="110.5" cy="309.62" r="3.15"/><circle class="cls-1" cx="134.44" cy="309.62" r="3.15"/><circle class="cls-1" cx="62.61" cy="331.04" r="3.15"/><circle class="cls-1" cx="86.56" cy="331.04" r="3.15"/><circle class="cls-1" cx="110.5" cy="331.04" r="3.15"/><circle class="cls-1" cx="134.44" cy="331.04" r="3.15"/><circle class="cls-1" cx="62.61" cy="352.46" r="3.15"/><circle class="cls-1" cx="86.56" cy="352.46" r="3.15"/><circle class="cls-1" cx="110.5" cy="352.46" r="3.15"/><circle class="cls-1" cx="134.44" cy="352.46" r="3.15"/><circle class="cls-1" cx="62.61" cy="373.89" r="3.15"/><circle class="cls-1" cx="86.56" cy="373.89" r="3.15"/><circle class="cls-1" cx="110.5" cy="373.89" r="3.15"/><circle class="cls-1" cx="134.44" cy="373.89" r="3.15"/><circle class="cls-1" cx="62.61" cy="395.31" r="3.15"/><circle class="cls-1" cx="86.56" cy="395.31" r="3.15"/><circle class="cls-1" cx="110.5" cy="395.31" r="3.15"/><circle class="cls-1" cx="134.44" cy="395.31" r="3.15"/><circle class="cls-1" cx="62.61" cy="416.73" r="3.15"/><circle class="cls-1" cx="86.56" cy="416.73" r="3.15"/><circle class="cls-1" cx="110.5" cy="416.73" r="3.15"/><circle class="cls-1" cx="134.44" cy="416.73" r="3.15"/><circle class="cls-1" cx="62.61" cy="438.16" r="3.15"/><circle class="cls-1" cx="86.56" cy="438.16" r="3.15"/><circle class="cls-1" cx="110.5" cy="438.16" r="3.15"/><circle class="cls-1" cx="134.44" cy="438.16" r="3.15"/><circle class="cls-1" cx="62.61" cy="459.58" r="3.15"/><circle class="cls-1" cx="86.56" cy="459.58" r="3.15"/><circle class="cls-1" cx="110.5" cy="459.58" r="3.15"/><circle class="cls-1" cx="134.44" cy="459.58" r="3.15"/><circle class="cls-1" cx="62.61" cy="481" r="3.15"/><circle class="cls-1" cx="86.56" cy="481" r="3.15"/><circle class="cls-1" cx="110.5" cy="481" r="3.15"/><circle class="cls-1" cx="134.44" cy="481" r="3.15"/><circle class="cls-1" cx="62.61" cy="502.43" r="3.15"/><circle class="cls-1" cx="86.56" cy="502.43" r="3.15"/><circle class="cls-1" cx="110.5" cy="502.43" r="3.15"/><circle class="cls-1" cx="134.44" cy="502.43" r="3.15"/><circle class="cls-1" cx="62.61" cy="523.85" r="3.15"/><circle class="cls-1" cx="86.56" cy="523.85" r="3.15"/><circle class="cls-1" cx="110.5" cy="523.85" r="3.15"/><circle class="cls-1" cx="134.44" cy="523.85" r="3.15"/></g></mask><linearGradient id="Безымянный_градиент" x1="74.83" y1="505.83" x2="65.1" y2="306.36" gradientTransform="matrix(1, 0, 0, -1, 0, 466)" gradientUnits="userSpaceOnUse"><stop offset="0" stop-color="#ff958a"/><stop offset="0.39" stop-color="#fb8b9f"/><stop offset="0.7" stop-color="#e76ee7"/><stop offset="0.97" stop-color="#da43ff"/></linearGradient></defs><g id="Слой_2" data-name="Слой 2"><g id="Слой_1-2" data-name="Слой 1"><g class="cls-2"><circle class="cls-3" cx="69.5" cy="69.5" r="69.5"/></g></g></g></svg>