<svg width="70" height="900" viewBox="0 0 70 900" fill="none" xmlns="http://www.w3.org/2000/svg">
<rect x="105.691" y="1053" width="241.751" height="26.5833" transform="rotate(-126.764 105.691 1053)" fill="#152837"/>
<rect x="105.691" y="970" width="241.751" height="26.5833" transform="rotate(-126.764 105.691 970)" fill="#152837"/>
<rect x="105.691" y="887" width="241.751" height="26.5833" transform="rotate(-126.764 105.691 887)" fill="#152837"/>
<rect x="105.691" y="804" width="241.751" height="26.5833" transform="rotate(-126.764 105.691 804)" fill="#152837"/>
<rect x="105.691" y="721" width="241.751" height="26.5833" transform="rotate(-126.764 105.691 721)" fill="#152837"/>
<rect x="105.691" y="638" width="241.751" height="26.5833" transform="rotate(-126.764 105.691 638)" fill="#152837"/>
<rect x="105.691" y="555" width="241.751" height="26.5833" transform="rotate(-126.764 105.691 555)" fill="#152837"/>
<rect x="105.691" y="472" width="241.751" height="26.5833" transform="rotate(-126.764 105.691 472)" fill="#152837"/>
<rect x="105.691" y="389" width="241.751" height="26.5833" transform="rotate(-126.764 105.691 389)" fill="#152837"/>
<rect x="105.691" y="306" width="241.751" height="26.5833" transform="rotate(-126.764 105.691 306)" fill="#152837"/>
<rect x="105.691" y="223" width="241.751" height="26.5833" transform="rotate(-126.764 105.691 223)" fill="#152837"/>
<rect x="105.691" y="140" width="241.751" height="26.5833" transform="rotate(-126.764 105.691 140)" fill="#152837"/>
</svg>
