<svg width="101" height="35" viewBox="0 0 101 35" fill="none" xmlns="http://www.w3.org/2000/svg">
    <path d="M31.9274 2V7H31.2554V2H29.3914V1.416H33.7914V2H31.9274ZM36.4603 7.096C36.1616 7.096 35.8923 7.04533 35.6523 6.944C35.4176 6.84267 35.2149 6.69867 35.0443 6.512C34.8789 6.32 34.7509 6.09333 34.6603 5.832C34.5696 5.56533 34.5243 5.26933 34.5243 4.944C34.5243 4.61333 34.5696 4.31467 34.6603 4.048C34.7563 3.78133 34.8869 3.55467 35.0523 3.368C35.2176 3.176 35.4149 3.02933 35.6443 2.928C35.8789 2.82667 36.1376 2.776 36.4203 2.776C36.6976 2.776 36.9483 2.82667 37.1723 2.928C37.4016 3.02933 37.5963 3.17067 37.7563 3.352C37.9163 3.528 38.0389 3.73867 38.1243 3.984C38.2096 4.22933 38.2523 4.49867 38.2523 4.792V5.096H35.1963V5.288C35.1963 5.46933 35.2256 5.63733 35.2843 5.792C35.3429 5.94667 35.4256 6.08 35.5323 6.192C35.6443 6.304 35.7776 6.392 35.9323 6.456C36.0923 6.51467 36.2683 6.544 36.4603 6.544C36.7376 6.544 36.9776 6.48 37.1803 6.352C37.3829 6.224 37.5376 6.048 37.6443 5.824L38.1163 6.144C37.9936 6.42133 37.7883 6.65067 37.5003 6.832C37.2176 7.008 36.8709 7.096 36.4603 7.096ZM36.4203 3.304C36.2443 3.304 36.0816 3.336 35.9323 3.4C35.7829 3.464 35.6523 3.552 35.5403 3.664C35.4336 3.776 35.3483 3.90933 35.2843 4.064C35.2256 4.21333 35.1963 4.37867 35.1963 4.56V4.616H37.5643V4.528C37.5643 4.34667 37.5349 4.18133 37.4763 4.032C37.4229 3.88267 37.3456 3.75467 37.2443 3.648C37.1483 3.536 37.0283 3.45067 36.8843 3.392C36.7456 3.33333 36.5909 3.304 36.4203 3.304ZM39.2732 7L40.8092 4.904L39.3132 2.872H40.0812L40.7052 3.744L41.2012 4.432H41.2332L41.7132 3.744L42.3292 2.872H43.0652L41.5532 4.896L43.1052 7H42.3372L41.6412 6.032L41.1692 5.376H41.1372L40.6812 6.032L40.0092 7H39.2732ZM44.342 2.872H44.982V4.6H46.982V2.872H47.622V7H46.982V5.144H44.982V7H44.342V2.872ZM50.7789 7.096C50.4909 7.096 50.2296 7.04533 49.9949 6.944C49.7656 6.84267 49.5682 6.69867 49.4029 6.512C49.2429 6.32 49.1202 6.09333 49.0349 5.832C48.9496 5.56533 48.9069 5.26667 48.9069 4.936C48.9069 4.61067 48.9496 4.31467 49.0349 4.048C49.1202 3.78133 49.2429 3.55467 49.4029 3.368C49.5682 3.176 49.7656 3.02933 49.9949 2.928C50.2296 2.82667 50.4909 2.776 50.7789 2.776C51.0669 2.776 51.3256 2.82667 51.5549 2.928C51.7896 3.02933 51.9869 3.176 52.1469 3.368C52.3122 3.55467 52.4376 3.78133 52.5229 4.048C52.6082 4.31467 52.6509 4.61067 52.6509 4.936C52.6509 5.26667 52.6082 5.56533 52.5229 5.832C52.4376 6.09333 52.3122 6.32 52.1469 6.512C51.9869 6.69867 51.7896 6.84267 51.5549 6.944C51.3256 7.04533 51.0669 7.096 50.7789 7.096ZM50.7789 6.544C51.1362 6.544 51.4242 6.43733 51.6429 6.224C51.8616 6.01067 51.9709 5.68 51.9709 5.232V4.64C51.9709 4.192 51.8616 3.86133 51.6429 3.648C51.4242 3.43467 51.1362 3.328 50.7789 3.328C50.4216 3.328 50.1336 3.43467 49.9149 3.648C49.6962 3.86133 49.5869 4.192 49.5869 4.64V5.232C49.5869 5.68 49.6962 6.01067 49.9149 6.224C50.1336 6.43733 50.4216 6.544 50.7789 6.544ZM53.3838 6.456H53.8958C53.9758 6.35467 54.0451 6.23467 54.1038 6.096C54.1678 5.95733 54.2184 5.792 54.2558 5.6C54.2984 5.408 54.3304 5.18667 54.3518 4.936C54.3731 4.68 54.3838 4.384 54.3838 4.048V2.872H57.1278V7H56.4878V3.416H55.0078V4.064C55.0078 4.81067 54.9518 5.39733 54.8398 5.824C54.7331 6.24533 54.5891 6.54667 54.4078 6.728C54.3064 6.82933 54.1944 6.90133 54.0718 6.944C53.9491 6.98133 53.8024 7 53.6318 7H53.3838V6.456ZM60.3727 7.096C60.0847 7.096 59.8233 7.04533 59.5887 6.944C59.3593 6.84267 59.162 6.69867 58.9967 6.512C58.8367 6.32 58.714 6.09333 58.6287 5.832C58.5433 5.56533 58.5007 5.26667 58.5007 4.936C58.5007 4.61067 58.5433 4.31467 58.6287 4.048C58.714 3.78133 58.8367 3.55467 58.9967 3.368C59.162 3.176 59.3593 3.02933 59.5887 2.928C59.8233 2.82667 60.0847 2.776 60.3727 2.776C60.6607 2.776 60.9193 2.82667 61.1487 2.928C61.3833 3.02933 61.5807 3.176 61.7407 3.368C61.906 3.55467 62.0313 3.78133 62.1167 4.048C62.202 4.31467 62.2447 4.61067 62.2447 4.936C62.2447 5.26667 62.202 5.56533 62.1167 5.832C62.0313 6.09333 61.906 6.32 61.7407 6.512C61.5807 6.69867 61.3833 6.84267 61.1487 6.944C60.9193 7.04533 60.6607 7.096 60.3727 7.096ZM60.3727 6.544C60.73 6.544 61.018 6.43733 61.2367 6.224C61.4553 6.01067 61.5647 5.68 61.5647 5.232V4.64C61.5647 4.192 61.4553 3.86133 61.2367 3.648C61.018 3.43467 60.73 3.328 60.3727 3.328C60.0153 3.328 59.7273 3.43467 59.5087 3.648C59.29 3.86133 59.1807 4.192 59.1807 4.64V5.232C59.1807 5.68 59.29 6.01067 59.5087 6.224C59.7273 6.43733 60.0153 6.544 60.3727 6.544ZM63.8495 2.872H66.8095V3.416H64.4895V7H63.8495V2.872ZM68.3264 2.872H68.9664V4.976L68.9024 6.032H68.9344L71.0064 2.872H71.6064V7H70.9664V4.896L71.0304 3.84H70.9984L68.9264 7H68.3264V2.872ZM75.6433 5.104H75.6033C75.4539 5.26933 75.2833 5.39467 75.0913 5.48C74.9046 5.56 74.6646 5.6 74.3713 5.6C73.9233 5.6 73.5819 5.496 73.3473 5.288C73.1179 5.07467 73.0033 4.75467 73.0033 4.328V2.872H73.6433V4.272C73.6433 4.528 73.7153 4.71733 73.8593 4.84C74.0033 4.96267 74.2379 5.024 74.5633 5.024C74.8833 5.024 75.1419 4.984 75.3393 4.904C75.5419 4.81867 75.6433 4.69067 75.6433 4.52V2.872H76.2833V7H75.6433V5.104ZM79.6322 7.096C79.3335 7.096 79.0642 7.04533 78.8242 6.944C78.5895 6.84267 78.3868 6.69867 78.2162 6.512C78.0508 6.32 77.9228 6.09333 77.8322 5.832C77.7415 5.56533 77.6962 5.26933 77.6962 4.944C77.6962 4.61333 77.7415 4.31467 77.8322 4.048C77.9282 3.78133 78.0588 3.55467 78.2242 3.368C78.3895 3.176 78.5868 3.02933 78.8162 2.928C79.0508 2.82667 79.3095 2.776 79.5922 2.776C79.8695 2.776 80.1202 2.82667 80.3442 2.928C80.5735 3.02933 80.7682 3.17067 80.9282 3.352C81.0882 3.528 81.2108 3.73867 81.2962 3.984C81.3815 4.22933 81.4242 4.49867 81.4242 4.792V5.096H78.3682V5.288C78.3682 5.46933 78.3975 5.63733 78.4562 5.792C78.5148 5.94667 78.5975 6.08 78.7042 6.192C78.8162 6.304 78.9495 6.392 79.1042 6.456C79.2642 6.51467 79.4402 6.544 79.6322 6.544C79.9095 6.544 80.1495 6.48 80.3522 6.352C80.5548 6.224 80.7095 6.048 80.8162 5.824L81.2882 6.144C81.1655 6.42133 80.9602 6.65067 80.6722 6.832C80.3895 7.008 80.0428 7.096 79.6322 7.096ZM79.5922 3.304C79.4162 3.304 79.2535 3.336 79.1042 3.4C78.9548 3.464 78.8242 3.552 78.7122 3.664C78.6055 3.776 78.5202 3.90933 78.4562 4.064C78.3975 4.21333 78.3682 4.37867 78.3682 4.56V4.616H80.7362V4.528C80.7362 4.34667 80.7068 4.18133 80.6482 4.032C80.5948 3.88267 80.5175 3.75467 80.4162 3.648C80.3202 3.536 80.2002 3.45067 80.0562 3.392C79.9175 3.33333 79.7628 3.304 79.5922 3.304ZM84.501 7.096C84.2024 7.096 83.9357 7.04533 83.701 6.944C83.4717 6.83733 83.277 6.69067 83.117 6.504C82.957 6.31733 82.8344 6.09067 82.749 5.824C82.669 5.55733 82.629 5.26133 82.629 4.936C82.629 4.61067 82.6717 4.31467 82.757 4.048C82.8424 3.78133 82.965 3.55467 83.125 3.368C83.285 3.176 83.4797 3.02933 83.709 2.928C83.9384 2.82667 84.1997 2.776 84.493 2.776C84.893 2.776 85.2184 2.864 85.469 3.04C85.7197 3.216 85.9037 3.44533 86.021 3.728L85.509 4C85.4344 3.78667 85.309 3.62133 85.133 3.504C84.9624 3.38667 84.749 3.328 84.493 3.328C84.3064 3.328 84.1384 3.36 83.989 3.424C83.845 3.48267 83.7224 3.568 83.621 3.68C83.5197 3.792 83.4424 3.92533 83.389 4.08C83.341 4.23467 83.317 4.40267 83.317 4.584V5.288C83.317 5.46933 83.341 5.63733 83.389 5.792C83.4424 5.94667 83.5197 6.08 83.621 6.192C83.7224 6.304 83.8477 6.392 83.997 6.456C84.1464 6.51467 84.317 6.544 84.509 6.544C84.7864 6.544 85.0157 6.48 85.197 6.352C85.3784 6.224 85.5224 6.048 85.629 5.824L86.085 6.136C85.9624 6.41333 85.7704 6.64267 85.509 6.824C85.253 7.00533 84.917 7.096 84.501 7.096ZM87.6099 2.872H88.2499V4.6H89.1299L90.2419 2.872H90.9059L89.8979 4.44C89.8072 4.57867 89.7272 4.67733 89.6579 4.736C89.5886 4.78933 89.5059 4.82933 89.4099 4.856V4.888C89.5166 4.904 89.6072 4.94133 89.6819 5C89.7566 5.05333 89.8339 5.14933 89.9139 5.288L90.5859 6.456H91.0499V7H90.5859C90.4472 7 90.3272 6.96267 90.2259 6.888C90.1246 6.81333 90.0232 6.69067 89.9219 6.52L89.1299 5.144H88.2499V7H87.6099V2.872ZM92.3108 2.872H92.9508V4.976L92.8868 6.032H92.9188L94.9908 2.872H95.5908V7H94.9508V4.896L95.0148 3.84H94.9828L92.9108 7H92.3108V2.872ZM97.1077 2.872H97.7477V4.976L97.6837 6.032H97.7157L99.7877 2.872H100.388V7H99.7477V4.896L99.8117 3.84H99.7797L97.7077 7H97.1077V2.872ZM98.7237 2.24C98.4517 2.24 98.2303 2.18133 98.0597 2.064C97.889 1.94133 97.7397 1.752 97.6117 1.496L97.3877 1.04L97.9637 0.856L98.2837 1.704C98.3423 1.72533 98.4143 1.73867 98.4997 1.744C98.585 1.74933 98.6597 1.752 98.7237 1.752C98.7877 1.752 98.8623 1.74933 98.9477 1.744C99.033 1.73867 99.105 1.72533 99.1637 1.704L99.4837 0.856L100.06 1.04L99.8357 1.496C99.7077 1.752 99.5583 1.94133 99.3877 2.064C99.217 2.18133 98.9957 2.24 98.7237 2.24ZM68.3424 11.872H71.5904V16H70.9504V12.416H68.9824V16H68.3424V11.872ZM76.3233 16C76.0726 16 75.8939 15.936 75.7873 15.808C75.6806 15.68 75.6139 15.52 75.5873 15.328H75.5473C75.4566 15.568 75.3099 15.7573 75.1073 15.896C74.9099 16.0293 74.6433 16.096 74.3073 16.096C73.8753 16.096 73.5313 15.984 73.2753 15.76C73.0193 15.536 72.8913 15.2293 72.8913 14.84C72.8913 14.456 73.0299 14.16 73.3073 13.952C73.5899 13.744 74.0433 13.64 74.6673 13.64H75.5473V13.232C75.5473 12.928 75.4619 12.7013 75.2913 12.552C75.1206 12.3973 74.8779 12.32 74.5633 12.32C74.2859 12.32 74.0593 12.376 73.8833 12.488C73.7073 12.5947 73.5659 12.7413 73.4593 12.928L73.0273 12.608C73.0806 12.5013 73.1526 12.3973 73.2433 12.296C73.3339 12.1947 73.4459 12.1067 73.5793 12.032C73.7126 11.952 73.8646 11.8907 74.0353 11.848C74.2059 11.8 74.3953 11.776 74.6033 11.776C75.0886 11.776 75.4726 11.8987 75.7553 12.144C76.0433 12.3893 76.1873 12.7307 76.1873 13.168V15.44H76.7633V16H76.3233ZM74.4193 15.56C74.5846 15.56 74.7339 15.5413 74.8673 15.504C75.0059 15.4613 75.1259 15.408 75.2273 15.344C75.3286 15.2747 75.4059 15.1947 75.4593 15.104C75.5179 15.008 75.5473 14.9067 75.5473 14.8V14.12H74.6673C74.2833 14.12 74.0033 14.1733 73.8273 14.28C73.6513 14.3867 73.5633 14.5413 73.5633 14.744V14.912C73.5633 15.1253 73.6379 15.288 73.7873 15.4C73.9419 15.5067 74.1526 15.56 74.4193 15.56ZM77.9202 11.872H78.5602V12.544H78.5922C78.8588 12.032 79.2828 11.776 79.8642 11.776C80.3708 11.776 80.7655 11.9653 81.0482 12.344C81.3362 12.7227 81.4802 13.2533 81.4802 13.936C81.4802 14.6187 81.3362 15.1493 81.0482 15.528C80.7655 15.9067 80.3708 16.096 79.8642 16.096C79.2828 16.096 78.8588 15.84 78.5922 15.328H78.5602V17.6H77.9202V11.872ZM79.6162 15.528C79.9895 15.528 80.2775 15.416 80.4802 15.192C80.6882 14.9627 80.7922 14.6613 80.7922 14.288V13.584C80.7922 13.2107 80.6882 12.912 80.4802 12.688C80.2775 12.4587 79.9895 12.344 79.6162 12.344C79.4722 12.344 79.3362 12.3627 79.2082 12.4C79.0802 12.4373 78.9682 12.4933 78.8722 12.568C78.7762 12.6373 78.6988 12.7253 78.6402 12.832C78.5868 12.9333 78.5602 13.0533 78.5602 13.192V14.68C78.5602 14.8187 78.5868 14.9413 78.6402 15.048C78.6988 15.1493 78.7762 15.2373 78.8722 15.312C78.9682 15.3813 79.0802 15.4347 79.2082 15.472C79.3362 15.5093 79.4722 15.528 79.6162 15.528ZM84.037 12.416H82.517V11.872H86.197V12.416H84.677V16H84.037V12.416ZM87.5139 11.872H88.1539V13.6H90.1539V11.872H90.7939V16H90.1539V14.144H88.1539V16H87.5139V11.872ZM94.0228 16.096C93.7241 16.096 93.4548 16.0453 93.2148 15.944C92.9801 15.8427 92.7774 15.6987 92.6068 15.512C92.4414 15.32 92.3134 15.0933 92.2228 14.832C92.1321 14.5653 92.0868 14.2693 92.0868 13.944C92.0868 13.6133 92.1321 13.3147 92.2228 13.048C92.3188 12.7813 92.4494 12.5547 92.6148 12.368C92.7801 12.176 92.9774 12.0293 93.2068 11.928C93.4414 11.8267 93.7001 11.776 93.9828 11.776C94.2601 11.776 94.5108 11.8267 94.7348 11.928C94.9641 12.0293 95.1588 12.1707 95.3188 12.352C95.4788 12.528 95.6014 12.7387 95.6868 12.984C95.7721 13.2293 95.8148 13.4987 95.8148 13.792V14.096H92.7588V14.288C92.7588 14.4693 92.7881 14.6373 92.8468 14.792C92.9054 14.9467 92.9881 15.08 93.0948 15.192C93.2068 15.304 93.3401 15.392 93.4948 15.456C93.6548 15.5147 93.8308 15.544 94.0228 15.544C94.3001 15.544 94.5401 15.48 94.7428 15.352C94.9454 15.224 95.1001 15.048 95.2068 14.824L95.6788 15.144C95.5561 15.4213 95.3508 15.6507 95.0628 15.832C94.7801 16.008 94.4334 16.096 94.0228 16.096ZM93.9828 12.304C93.8068 12.304 93.6441 12.336 93.4948 12.4C93.3454 12.464 93.2148 12.552 93.1028 12.664C92.9961 12.776 92.9108 12.9093 92.8468 13.064C92.7881 13.2133 92.7588 13.3787 92.7588 13.56V13.616H95.1268V13.528C95.1268 13.3467 95.0974 13.1813 95.0388 13.032C94.9854 12.8827 94.9081 12.7547 94.8068 12.648C94.7108 12.536 94.5908 12.4507 94.4468 12.392C94.3081 12.3333 94.1534 12.304 93.9828 12.304ZM93.2228 11.056C93.0574 11.056 92.9401 11.0213 92.8708 10.952C92.8014 10.8827 92.7668 10.7947 92.7668 10.688V10.576C92.7668 10.4693 92.8014 10.3813 92.8708 10.312C92.9401 10.2427 93.0574 10.208 93.2228 10.208C93.3881 10.208 93.5054 10.2427 93.5748 10.312C93.6441 10.3813 93.6788 10.4693 93.6788 10.576V10.688C93.6788 10.7947 93.6441 10.8827 93.5748 10.952C93.5054 11.0213 93.3881 11.056 93.2228 11.056ZM94.7108 11.056C94.5454 11.056 94.4281 11.0213 94.3588 10.952C94.2894 10.8827 94.2548 10.7947 94.2548 10.688V10.576C94.2548 10.4693 94.2894 10.3813 94.3588 10.312C94.4281 10.2427 94.5454 10.208 94.7108 10.208C94.8761 10.208 94.9934 10.2427 95.0628 10.312C95.1321 10.3813 95.1668 10.4693 95.1668 10.576V10.688C95.1668 10.7947 95.1321 10.8827 95.0628 10.952C94.9934 11.0213 94.8761 11.056 94.7108 11.056ZM97.1077 11.872H97.7477V12.544H97.7797C98.0463 12.032 98.4703 11.776 99.0517 11.776C99.5583 11.776 99.953 11.9653 100.236 12.344C100.524 12.7227 100.668 13.2533 100.668 13.936C100.668 14.6187 100.524 15.1493 100.236 15.528C99.953 15.9067 99.5583 16.096 99.0517 16.096C98.4703 16.096 98.0463 15.84 97.7797 15.328H97.7477V17.6H97.1077V11.872ZM98.8037 15.528C99.177 15.528 99.465 15.416 99.6677 15.192C99.8757 14.9627 99.9797 14.6613 99.9797 14.288V13.584C99.9797 13.2107 99.8757 12.912 99.6677 12.688C99.465 12.4587 99.177 12.344 98.8037 12.344C98.6597 12.344 98.5237 12.3627 98.3957 12.4C98.2677 12.4373 98.1557 12.4933 98.0597 12.568C97.9637 12.6373 97.8863 12.7253 97.8277 12.832C97.7743 12.9333 97.7477 13.0533 97.7477 13.192V14.68C97.7477 14.8187 97.7743 14.9413 97.8277 15.048C97.8863 15.1493 97.9637 15.2373 98.0597 15.312C98.1557 15.3813 98.2677 15.4347 98.3957 15.472C98.5237 15.5093 98.6597 15.528 98.8037 15.528Z" fill="white"/>
    <g clip-path="url(#clip0)">
        <path d="M13.3044 31.0224C11.6023 31.0224 9.92272 31.0715 8.25294 30.9999C7.48541 30.9676 7.65099 30.2773 7.7464 29.796C7.97372 28.6552 8.26277 27.5257 8.51674 26.3905C8.69915 25.5766 8.86754 24.7614 9.07801 23.7974C8.54715 23.7771 8.01561 23.7837 7.48541 23.8171C7.34509 23.8325 7.15005 24.0724 7.11216 24.238C6.5958 26.4831 6.10328 28.7282 5.59112 31.0266C4.00975 31.0266 2.37645 31.0392 0.74456 31.0266C0.141195 31.0196 -0.0973445 30.6561 0.0429729 30.0163C0.840911 26.4709 1.64259 22.9265 2.44801 19.383C2.78758 17.883 3.14118 16.3873 3.47373 14.8845C3.51445 14.5954 3.53368 14.3036 3.53127 14.0117C5.19683 14.0117 6.85258 13.9934 8.50692 14.0215C9.11449 14.0313 9.32076 14.4425 9.15098 15.2156C8.91665 16.2848 8.65285 17.347 8.4115 18.4148C8.30065 18.9088 8.21225 19.4069 8.09158 20.0201C8.66829 20.0201 9.15238 20.0453 9.63507 20.0046C9.71829 19.9831 9.79506 19.9417 9.85883 19.884C9.9226 19.8264 9.97147 19.7541 10.0013 19.6735C10.4349 17.8213 10.8432 15.9621 11.281 14.0131C12.8385 14.0131 14.5153 13.9934 16.1921 14.0243C16.7393 14.0341 16.9582 14.4116 16.8446 14.9504C16.7871 15.224 16.672 15.4892 16.6453 15.7643C16.5527 16.7465 16.3647 17.5449 15.0569 17.3793C14.8002 17.347 14.3034 17.7147 14.2305 17.9827C13.9288 19.0898 13.7478 20.2277 13.5289 21.3587L13.738 21.4092C13.9709 20.6164 14.2459 19.8335 14.4269 19.0238C14.5967 18.2675 15.0148 18.0093 15.7669 18.0163C18.5256 18.0444 21.2856 18.029 24.0457 18.029H26.8646C26.5405 19.1305 26.2332 20.2614 25.8558 21.3671C25.7898 21.5608 25.4348 21.7291 25.1963 21.774C24.8104 21.8442 24.4049 21.8063 24.0078 21.8049C22.8937 21.8049 22.9035 21.8049 22.672 22.8461C21.9114 26.282 21.1481 29.7169 20.382 33.151C20.3174 33.4414 20.3006 33.7417 20.2529 34.1079C18.6898 34.1079 17.0803 34.1388 15.4737 34.0939C14.6963 34.0729 14.4915 33.708 14.6753 32.8998C15.4498 29.4438 16.2117 25.985 17.0228 22.5388C17.1631 21.9228 16.9891 21.8063 16.4433 21.7993C15.3011 21.7867 15.3123 21.7726 15.0569 22.9218C14.5476 25.2188 14.02 27.5102 13.5134 29.8058C13.4124 30.1678 13.3773 30.5425 13.3044 31.0224Z" fill="white"/>
        <path d="M59.8742 27.2845C59.0239 28.4491 58.0922 29.5646 57.3485 30.7924C56.7072 31.8518 55.8906 32.124 54.8789 31.8645L56.5066 24.5637H58.45L57.3485 29.0707L57.5113 29.1493C57.6284 29.0307 57.7394 28.9061 57.8438 28.7761C58.6857 27.6241 59.5374 26.4819 60.3457 25.3088C60.7343 24.7476 61.1595 24.3883 61.8892 24.516C62.1222 24.5423 62.3572 24.5451 62.5907 24.5244L60.914 31.835H59.0056L60.0819 27.3603L59.8742 27.2845Z" fill="white"/>
        <path d="M38.3521 24.2148C38.9878 24.4043 39.6767 24.4955 40.2492 24.8028C41.4279 25.437 41.5458 26.575 41.4475 27.7761C41.2329 30.4323 38.275 32.6563 35.6721 32.1049C33.8339 31.7162 33.0159 30.3565 33.4158 28.3598C33.8746 26.0656 35.9724 24.3453 38.3521 24.2148ZM39.4396 27.5137C39.4396 27.4211 39.4396 27.3271 39.4396 27.2331C39.4396 26.5511 39.3147 25.9057 38.6566 25.5633C37.9985 25.2209 37.3278 25.3795 36.7609 25.8159C35.5809 26.7251 35.2764 28.0259 35.3339 29.4164C35.3648 30.1699 35.7198 30.8322 36.5308 31.0441C37.3124 31.249 37.948 30.8954 38.4616 30.3425C39.1983 29.5511 39.4242 28.5647 39.4396 27.5123V27.5137Z" fill="white"/>
        <path d="M87.4987 31.8744H85.6016L87.2517 24.5625H89.2161L88.4472 27.4699C89.1488 27.4699 89.7101 27.4811 90.2896 27.4601C90.355 27.4504 90.4171 27.4249 90.4704 27.3858C90.5237 27.3467 90.5666 27.2951 90.5955 27.2355C90.7905 26.3838 90.9575 25.5265 91.1567 24.5835H93.0973L91.443 31.8506H89.5178L90.3345 28.5026C89.6553 28.5026 89.1221 28.483 88.5931 28.5152C88.5097 28.5268 88.4302 28.5584 88.3616 28.6072C88.2929 28.6561 88.2371 28.7208 88.1988 28.7959C87.9505 29.7725 87.7428 30.7673 87.4987 31.8744Z" fill="white"/>
        <path d="M30.1821 28.4978C29.4876 28.4978 28.9094 28.4768 28.3327 28.5146C28.2093 28.5231 28.0269 28.7237 27.996 28.864C27.7813 29.8336 27.5989 30.8102 27.3912 31.8584H25.4492L27.0881 24.5745H29.0526L28.2752 27.4707C28.9768 27.4707 29.5296 27.4903 30.0797 27.4566C30.1602 27.4386 30.2352 27.4012 30.298 27.3476C30.3609 27.2941 30.4097 27.226 30.4403 27.1493C30.6368 26.3173 30.7939 25.4768 30.9791 24.5703H32.9323L31.2822 31.8514H29.3486L30.1821 28.4978Z" fill="white"/>
        <path d="M81.2753 24.5218C81.7279 24.5414 82.1813 24.5381 82.6336 24.512C83.2033 24.4601 83.3464 24.7407 83.4039 25.2346C83.62 27.1093 83.8599 28.9797 84.1055 30.8473C84.1462 31.1644 84.2458 31.4731 84.3384 31.8506H81.7903C81.8674 31.6794 82.0049 31.5152 82.0007 31.3539C81.9881 30.8263 82.0007 30.2776 81.8366 29.7893C81.7903 29.649 81.2079 29.649 80.8712 29.6378C79.534 29.6181 78.8717 30.3113 78.7398 31.8688H77.2734C78.6289 29.4778 80.1219 27.1893 81.2753 24.5218ZM80.1528 28.7159C80.7323 28.7159 81.0999 28.7468 81.4591 28.6991C81.5854 28.6822 81.7889 28.4718 81.7832 28.3595C81.7496 27.7519 81.6612 27.1472 81.5924 26.5354L81.3918 26.4947L80.1528 28.7159Z" fill="white"/>
        <path d="M75.39 28.7635C76.0691 28.212 76.4719 27.5385 76.535 26.7134C76.5485 26.373 76.4461 26.0381 76.2445 25.7635C75.9541 25.386 75.543 25.5081 75.4363 25.9712C75.0481 27.6494 74.6739 29.3304 74.3138 31.0142C74.2604 31.2583 74.3068 31.5235 74.3068 31.8434H72.2539L73.8928 24.5469C74.8877 24.5469 76.0986 24.4417 77.2843 24.5764C78.47 24.7111 78.9274 25.9656 78.2974 27.1386C78.0989 27.5125 77.8215 27.8389 77.4845 28.0952C77.1476 28.3516 76.759 28.5317 76.3456 28.6232C76.0341 28.6975 75.7085 28.72 75.39 28.7635Z" fill="white"/>
        <path d="M43.6822 31.9082C43.1855 31.9082 42.721 31.9082 42.2566 31.9082C42.0489 31.9082 41.8356 31.8914 41.6953 31.8844L43.3314 24.5542C44.3445 24.5542 45.5372 24.4756 46.7131 24.578C47.7107 24.665 48.1892 25.549 47.945 26.5355C47.6546 27.7057 46.8604 28.3456 45.7364 28.629C45.4764 28.6841 45.2137 28.7253 44.9493 28.7525C45.2636 28.1912 45.6509 27.5991 45.9315 26.9606C46.0279 26.6767 46.0087 26.3662 45.8782 26.0963C45.7645 25.869 45.4572 25.7385 45.2313 25.5659C45.1008 25.7581 44.9002 25.9335 44.851 26.1454C44.4834 27.7324 44.1495 29.3264 43.8043 30.9162C43.7383 31.2052 43.7299 31.5069 43.6822 31.9082Z" fill="white"/>
        <path d="M99.7295 25.7954C97.6359 24.757 96.1752 25.9259 95.7402 27.5985C95.5903 28.1113 95.5031 28.6404 95.4807 29.1742C95.4694 30.5086 96.5148 31.3449 97.8141 31.0643C98.4259 30.9324 99.0209 30.7205 99.6776 30.5297C99.3338 31.2874 99.0433 32.0381 97.9937 32.0325C97.3679 32.0325 96.7309 32.1896 96.1191 32.1209C94.0368 31.8866 93.0321 30.3585 93.6186 28.1639C94.3343 25.4516 96.4769 23.9783 99.54 24.3936C100.082 24.4666 100.143 24.9394 99.7295 25.7954Z" fill="white"/>
        <path d="M54.1532 30.5639C53.8951 31.5307 53.3394 32.047 52.4007 32.054C51.5925 32.054 50.7632 32.1228 49.9774 31.9727C48.7145 31.7313 47.7155 30.366 48.1112 28.424C48.6289 25.8801 50.7842 23.8735 54.1013 24.4067C54.6023 24.4867 54.6542 24.8459 54.3188 25.7875C53.9582 25.6654 53.6032 25.483 53.2314 25.4297C52.078 25.2627 51.1266 25.7103 50.6383 26.7781C50.3003 27.5158 50.097 28.308 50.0377 29.1172C49.9535 30.5344 51.0424 31.3623 52.433 31.0452C52.9998 30.9161 53.5415 30.7294 54.1532 30.5639Z" fill="white"/>
        <path d="M69.1504 31.8677H67.0709L68.5499 25.5857L66.7734 25.7779C67.0639 24.5403 67.0878 24.5221 68.4194 24.5235C69.751 24.5249 71.0686 24.5235 72.5405 24.5235L71.9792 25.7709C71.9098 25.7791 71.8396 25.7791 71.7702 25.7709C70.4961 25.4271 70.4315 25.4468 70.1256 26.7195C69.7776 28.1689 69.4633 29.6254 69.1532 31.0833C69.1069 31.3205 69.1504 31.5716 69.1504 31.8677Z" fill="white"/>
        <path d="M66.4134 27.7539C66.3755 28.8891 66.3039 28.9606 65.2628 28.9606H63.2422C63.3432 27.8199 63.4134 27.7553 64.4616 27.7539H66.4134Z" fill="white"/>
    </g>
    <defs>
        <clipPath id="clip0">
            <rect width="100" height="20.1173" fill="white" transform="translate(0 14)"/>
        </clipPath>
    </defs>
</svg>