<svg width="13" height="11" viewBox="0 0 13 11" fill="none" xmlns="http://www.w3.org/2000/svg">
<path fill-rule="evenodd" clip-rule="evenodd" d="M8.14689 3.64689C8.19334 3.60033 8.24852 3.56339 8.30926 3.53818C8.37001 3.51297 8.43513 3.5 8.50089 3.5C8.56666 3.5 8.63178 3.51297 8.69253 3.53818C8.75327 3.56339 8.80845 3.60033 8.85489 3.64689L11.8549 6.64689C11.9015 6.69334 11.9384 6.74852 11.9636 6.80926C11.9888 6.87001 12.0018 6.93513 12.0018 7.00089C12.0018 7.06666 11.9888 7.13178 11.9636 7.19253C11.9384 7.25327 11.9015 7.30845 11.8549 7.35489L8.85489 10.3549C8.76101 10.4488 8.63367 10.5015 8.50089 10.5015C8.36812 10.5015 8.24078 10.4488 8.14689 10.3549C8.05301 10.261 8.00026 10.1337 8.00026 10.0009C8.00026 9.86812 8.05301 9.74078 8.14689 9.64689L10.7939 7.00089L8.14689 4.35489C8.10033 4.30845 8.06339 4.25327 8.03818 4.19253C8.01297 4.13178 8 4.06666 8 4.00089C8 3.93513 8.01297 3.87001 8.03818 3.80926C8.06339 3.74851 8.10033 3.69334 8.14689 3.64689Z" fill="white"/>
<path fill-rule="evenodd" clip-rule="evenodd" d="M1 0.5C0.867392 0.5 0.740215 0.552679 0.646447 0.646447C0.552679 0.740215 0.5 0.867392 0.5 1V5C0.5 5.66304 0.763392 6.29893 1.23223 6.76777C1.70107 7.23661 2.33696 7.5 3 7.5H11.5C11.6326 7.5 11.7598 7.44732 11.8536 7.35355C11.9473 7.25979 12 7.13261 12 7C12 6.86739 11.9473 6.74021 11.8536 6.64645C11.7598 6.55268 11.6326 6.5 11.5 6.5H3C2.60218 6.5 2.22064 6.34196 1.93934 6.06066C1.65804 5.77936 1.5 5.39782 1.5 5V1C1.5 0.867392 1.44732 0.740215 1.35355 0.646447C1.25979 0.552679 1.13261 0.5 1 0.5Z" fill="white"/>
</svg>
