<svg width="30" height="30" viewBox="0 0 30 30" fill="none" xmlns="http://www.w3.org/2000/svg">
<rect width="30" height="30" fill="white"/>
<path d="M14.9982 9.76719C12.102 9.76719 9.76464 12.1046 9.76464 15.0008C9.76464 17.897 12.102 20.2344 14.9982 20.2344C17.8944 20.2344 20.2318 17.897 20.2318 15.0008C20.2318 12.1046 17.8944 9.76719 14.9982 9.76719ZM14.9982 18.4022C13.1253 18.4022 11.5968 16.8737 11.5968 15.0008C11.5968 13.1278 13.1253 11.5993 14.9982 11.5993C16.8712 11.5993 18.3997 13.1278 18.3997 15.0008C18.3997 16.8737 16.8712 18.4022 14.9982 18.4022ZM20.4462 8.33313C19.77 8.33313 19.2239 8.87919 19.2239 9.5554C19.2239 10.2316 19.77 10.7777 20.4462 10.7777C21.1224 10.7777 21.6684 10.2342 21.6684 9.5554C21.6686 9.39483 21.6372 9.2358 21.5758 9.08742C21.5144 8.93903 21.4244 8.80421 21.3109 8.69067C21.1973 8.57713 21.0625 8.48711 20.9141 8.42576C20.7658 8.3644 20.6067 8.33292 20.4462 8.33313ZM25.2 15.0008C25.2 13.5922 25.2128 12.1964 25.1337 10.7904C25.0546 9.15733 24.682 7.70795 23.4878 6.51375C22.2911 5.31699 20.8442 4.94699 19.2111 4.86789C17.8026 4.78878 16.4068 4.80154 15.0008 4.80154C13.5922 4.80154 12.1964 4.78878 10.7904 4.86789C9.15733 4.94699 7.70795 5.31954 6.51375 6.51375C5.31699 7.71051 4.94699 9.15733 4.86789 10.7904C4.78878 12.199 4.80154 13.5948 4.80154 15.0008C4.80154 16.4068 4.78878 17.8051 4.86789 19.2111C4.94699 20.8442 5.31954 22.2936 6.51375 23.4878C7.71051 24.6846 9.15733 25.0546 10.7904 25.1337C12.199 25.2128 13.5948 25.2 15.0008 25.2C16.4093 25.2 17.8051 25.2128 19.2111 25.1337C20.8442 25.0546 22.2936 24.682 23.4878 23.4878C24.6846 22.2911 25.0546 20.8442 25.1337 19.2111C25.2153 17.8051 25.2 16.4093 25.2 15.0008ZM22.9545 21.0177C22.7682 21.4822 22.5437 21.8292 22.1839 22.1864C21.8241 22.5462 21.4796 22.7708 21.0152 22.9571C19.673 23.4904 16.4859 23.3704 14.9982 23.3704C13.5106 23.3704 10.3209 23.4904 8.97871 22.9596C8.5143 22.7733 8.16726 22.5488 7.81002 22.189C7.45023 21.8292 7.22568 21.4847 7.0394 21.0203C6.50864 19.6755 6.62857 16.4884 6.62857 15.0008C6.62857 13.5131 6.50864 10.3235 7.0394 8.98126C7.22568 8.51685 7.45023 8.16982 7.81002 7.81257C8.16982 7.45533 8.5143 7.22823 8.97871 7.04195C10.3209 6.5112 13.5106 6.63113 14.9982 6.63113C16.4859 6.63113 19.6755 6.5112 21.0177 7.04195C21.4822 7.22823 21.8292 7.45278 22.1864 7.81257C22.5462 8.17237 22.7708 8.51685 22.9571 8.98126C23.4878 10.3235 23.3679 13.5131 23.3679 15.0008C23.3679 16.4884 23.4878 19.6755 22.9545 21.0177Z" fill="#152837"/>
</svg>
