<svg xmlns="http://www.w3.org/2000/svg" viewBox="0 0 37 19.5"><defs><style>.cls-1{fill:#272727;}</style></defs><g id="Слой_2" data-name="Слой 2"><g id="Слой_1-2" data-name="Слой 1"><path class="cls-1" d="M27,19.5a1.27,1.27,0,0,1-.9-.38,1.25,1.25,0,0,1,0-1.77L32.66,11H1.25a1.25,1.25,0,0,1,0-2.5H32.66L26.08,2.15A1.25,1.25,0,1,1,27.82.35l8.79,8.5,0,0a1.07,1.07,0,0,1,.25.35h0l0,.06a1.27,1.27,0,0,1,.09.43v.08a1.27,1.27,0,0,1-.09.43l0,.06h0a1.07,1.07,0,0,1-.25.35l0,0-8.79,8.5A1.27,1.27,0,0,1,27,19.5Z"/></g></g></svg>