<svg width="70" height="900" viewBox="0 0 70 900" fill="none" xmlns="http://www.w3.org/2000/svg">
<rect x="-35.6914" y="-179" width="241.751" height="26.5833" transform="rotate(53.2363 -35.6914 -179)" fill="#152837"/>
<rect x="-35.6914" y="-96" width="241.751" height="26.5833" transform="rotate(53.2363 -35.6914 -96)" fill="#152837"/>
<rect x="-35.6914" y="-13" width="241.751" height="26.5833" transform="rotate(53.2363 -35.6914 -13)" fill="#152837"/>
<rect x="-35.6914" y="70" width="241.751" height="26.5833" transform="rotate(53.2363 -35.6914 70)" fill="#152837"/>
<rect x="-35.6914" y="153" width="241.751" height="26.5833" transform="rotate(53.2363 -35.6914 153)" fill="#152837"/>
<rect x="-35.6914" y="236" width="241.751" height="26.5833" transform="rotate(53.2363 -35.6914 236)" fill="#152837"/>
<rect x="-35.6914" y="319" width="241.751" height="26.5833" transform="rotate(53.2363 -35.6914 319)" fill="#152837"/>
<rect x="-35.6914" y="402" width="241.751" height="26.5833" transform="rotate(53.2363 -35.6914 402)" fill="#152837"/>
<rect x="-35.6914" y="485" width="241.751" height="26.5833" transform="rotate(53.2363 -35.6914 485)" fill="#152837"/>
<rect x="-35.6914" y="568" width="241.751" height="26.5833" transform="rotate(53.2363 -35.6914 568)" fill="#152837"/>
<rect x="-35.6914" y="651" width="241.751" height="26.5833" transform="rotate(53.2363 -35.6914 651)" fill="#152837"/>
<rect x="-35.6914" y="734" width="241.751" height="26.5833" transform="rotate(53.2363 -35.6914 734)" fill="#152837"/>
<rect x="-35.6914" y="817" width="241.751" height="26.5833" transform="rotate(53.2363 -35.6914 817)" fill="#152837"/>
</svg>
