<svg xmlns="http://www.w3.org/2000/svg" viewBox="0 0 37 19.5"><defs><style>.cls-1{fill:#272727;}</style></defs><g id="Слой_2" data-name="Слой 2"><g id="Слой_1-2" data-name="Слой 1"><path class="cls-1" d="M10.05,19.5a1.27,1.27,0,0,1-.87-.35L.39,10.65l0,0a1.07,1.07,0,0,1-.25-.35h0l0-.06A1.57,1.57,0,0,1,0,9.79V9.71a1.57,1.57,0,0,1,.09-.43l0-.06h0a1.07,1.07,0,0,1,.25-.35l0,0L9.18.35a1.25,1.25,0,1,1,1.74,1.8L4.34,8.5H35.75a1.25,1.25,0,0,1,0,2.5H4.34l6.58,6.35a1.25,1.25,0,0,1-.87,2.15Z"/></g></g></svg>