<svg width="168" height="33" viewBox="0 0 168 33" fill="none" xmlns="http://www.w3.org/2000/svg">
<g clip-path="url(#clip0)">
<path d="M98.0198 27.6982C96.3547 25.386 93.8686 21.976 91.6725 18.9658L89.9545 16.6009L98.0198 5.41258C98.0443 5.37854 98.0588 5.33836 98.0618 5.29652C98.0648 5.25469 98.0561 5.21284 98.0367 5.17566C98.0169 5.1371 97.9864 5.10504 97.9489 5.08329C97.9114 5.06154 97.8685 5.05101 97.8251 5.05296H93.8581C93.8222 5.05279 93.7868 5.06115 93.7548 5.07733C93.7228 5.09351 93.6951 5.11706 93.674 5.14604L87.6969 13.3453L81.7516 5.14604C81.7305 5.11706 81.7028 5.09351 81.6708 5.07733C81.6388 5.06115 81.6034 5.05279 81.5675 5.05296H77.5666C77.5233 5.05101 77.4803 5.06154 77.4428 5.08329C77.4053 5.10504 77.3749 5.1371 77.3551 5.17566C77.3356 5.21284 77.3269 5.25469 77.3299 5.29652C77.3329 5.33836 77.3475 5.37854 77.372 5.41258L78.7896 7.38412C80.7847 10.1616 83.5077 13.9418 85.4352 16.5987L77.372 27.6897C77.3472 27.7235 77.3322 27.7636 77.3289 27.8055C77.3255 27.8473 77.3338 27.8892 77.3529 27.9266C77.3724 27.9656 77.4028 27.9981 77.4403 28.0202C77.4779 28.0423 77.521 28.0532 77.5645 28.0514H81.5866C81.6225 28.0516 81.6579 28.0432 81.6899 28.0271C81.7219 28.0109 81.7496 27.9873 81.7707 27.9583L87.7054 19.7739L93.6825 27.9732C93.7036 28.0021 93.7313 28.0257 93.7633 28.0419C93.7953 28.0581 93.8307 28.0664 93.8665 28.0662H97.8357C97.879 28.0682 97.922 28.0577 97.9595 28.0359C97.997 28.0142 98.0275 27.9821 98.0473 27.9435C98.0667 27.9064 98.0754 27.8645 98.0724 27.8227C98.0694 27.7808 98.0549 27.7407 98.0304 27.7066" fill="white"/>
<path d="M116.962 8.22052C115.874 7.11846 114.579 6.24294 113.15 5.64456C111.722 5.04618 110.189 4.73682 108.64 4.73438C107.097 4.74049 105.57 5.05163 104.147 5.64991C102.724 6.24819 101.433 7.12181 100.349 8.22052C98.1657 10.4398 96.9384 13.4255 96.9297 16.5382C96.9398 19.649 98.1661 22.6326 100.347 24.8517C101.427 25.9559 102.717 26.8332 104.142 27.4322C105.566 28.0312 107.095 28.3398 108.64 28.3399C110.191 28.344 111.726 28.0374 113.155 27.4383C114.585 26.8391 115.88 25.9596 116.964 24.8517C119.146 22.6316 120.373 19.6465 120.383 16.534C120.373 13.4204 119.145 10.4343 116.962 8.21417V8.22052ZM116.638 16.534C116.64 18.659 115.803 20.6989 114.311 22.2117C112.805 23.7221 110.765 24.5786 108.632 24.5957C107.585 24.5897 106.549 24.3759 105.585 23.9666C104.621 23.5574 103.748 22.9609 103.017 22.2117C102.269 21.4678 101.675 20.583 101.272 19.6085C100.868 18.6339 100.661 17.5889 100.664 16.534C100.661 15.4786 100.868 14.4331 101.272 13.4582C101.677 12.4832 102.27 11.5982 103.019 10.8542C103.75 10.1058 104.623 9.50994 105.587 9.10109C106.55 8.69223 107.585 8.47849 108.632 8.47226C110.765 8.48893 112.805 9.34553 114.311 10.8563C115.803 12.3696 116.639 14.4092 116.638 16.534Z" fill="white"/>
<path d="M138.614 5.05859H135.328C135.268 5.05859 135.211 5.08245 135.168 5.12489C135.126 5.16734 135.102 5.22491 135.102 5.28494V14.5736H126.004V5.28494C126.004 5.25522 125.998 5.22578 125.987 5.19832C125.975 5.17086 125.959 5.14591 125.938 5.12489C125.917 5.10388 125.892 5.08721 125.864 5.07583C125.837 5.06446 125.807 5.05859 125.778 5.05859H122.519C122.49 5.05859 122.46 5.06446 122.433 5.07583C122.405 5.08721 122.38 5.10388 122.359 5.12489C122.338 5.14591 122.322 5.17086 122.31 5.19832C122.299 5.22578 122.293 5.25522 122.293 5.28494V27.8307C122.293 27.8604 122.299 27.8899 122.31 27.9173C122.322 27.9448 122.338 27.9697 122.359 27.9908C122.38 28.0118 122.405 28.0285 122.433 28.0398C122.46 28.0512 122.49 28.0571 122.519 28.0571H125.778C125.807 28.0571 125.837 28.0512 125.864 28.0398C125.892 28.0285 125.917 28.0118 125.938 27.9908C125.959 27.9697 125.975 27.9448 125.987 27.9173C125.998 27.8899 126.004 27.8604 126.004 27.8307V18.2522H135.102V27.8307C135.102 27.8907 135.126 27.9483 135.168 27.9908C135.211 28.0332 135.268 28.0571 135.328 28.0571H138.618C138.678 28.0571 138.736 28.0332 138.778 27.9908C138.821 27.9483 138.845 27.8907 138.845 27.8307V5.28494C138.845 5.22491 138.821 5.16734 138.778 5.12489C138.736 5.08245 138.678 5.05859 138.618 5.05859" fill="white"/>
<path d="M75.2176 5.02637H66.9894C61.7803 5.02637 59.4086 8.87213 59.4086 12.4471C59.4086 15.984 61.5857 18.7002 64.9921 19.4829L56.0847 27.6652C56.0511 27.6962 56.0276 27.7366 56.0174 27.7812C56.0072 27.8257 56.0108 27.8723 56.0276 27.9148C56.0442 27.9573 56.0733 27.9938 56.1111 28.0195C56.1488 28.0452 56.1935 28.0588 56.2391 28.0587H60.4707C60.5278 28.0591 60.583 28.038 60.6251 27.9994L69.6976 19.6056C69.7208 19.5844 69.7395 19.5586 69.7522 19.5298C69.765 19.5011 69.7716 19.4699 69.7716 19.4385V16.3902C69.7716 16.3302 69.7478 16.2726 69.7053 16.2302C69.6629 16.1877 69.6053 16.1639 69.5452 16.1639H66.9894C64.3298 16.1639 63.1196 14.2431 63.1196 12.4556C63.1196 10.6681 64.332 8.77482 66.9894 8.77482H71.7626V27.8365C71.7626 27.8663 71.7684 27.8957 71.7798 27.9232C71.7912 27.9506 71.8078 27.9756 71.8289 27.9966C71.8499 28.0176 71.8748 28.0343 71.9023 28.0457C71.9298 28.057 71.9592 28.0629 71.9889 28.0629H75.2155C75.2755 28.0629 75.3331 28.039 75.3756 27.9966C75.418 27.9542 75.4419 27.8966 75.4419 27.8365V5.25482C75.4419 5.19479 75.418 5.13722 75.3756 5.09477C75.3331 5.05232 75.2755 5.02847 75.2155 5.02847" fill="white"/>
<path d="M157.879 5.02637H140.976C140.916 5.02637 140.859 5.05021 140.816 5.09265C140.774 5.1351 140.75 5.19267 140.75 5.2527V8.54214C140.75 8.60217 140.774 8.65974 140.816 8.70218C140.859 8.74463 140.916 8.76847 140.976 8.76847H147.588V27.9275C147.588 27.9875 147.612 28.0451 147.654 28.0876C147.697 28.13 147.755 28.1539 147.815 28.1539H151.073C151.133 28.1539 151.19 28.13 151.233 28.0876C151.275 28.0451 151.299 27.9875 151.299 27.9275V8.77482H157.879C157.939 8.77482 157.997 8.75097 158.039 8.70852C158.082 8.66607 158.106 8.60851 158.106 8.54847V5.25905C158.106 5.19902 158.082 5.14145 158.039 5.09901C157.997 5.05656 157.939 5.03271 157.879 5.03271" fill="white"/>
<path d="M43.0467 12.0408L27.1065 0.228452C26.9064 0.0799455 26.6638 -0.000156196 26.4146 2.28668e-07H17.1052C16.8561 -6.01571e-06 16.6135 0.0800805 16.4134 0.228452L0.473162 12.0408C0.335759 12.1426 0.222579 12.2735 0.141739 12.4242C0.0608999 12.5749 0.0144052 12.7415 0.0055777 12.9123C-0.00358905 13.083 0.025032 13.2535 0.0894002 13.4119C0.153768 13.5702 0.252293 13.7124 0.377949 13.8283L20.975 32.7779C21.1888 32.9751 21.469 33.0846 21.7599 33.0846C22.0508 33.0846 22.3311 32.9751 22.5449 32.7779L43.1419 13.8283C43.2676 13.7124 43.3661 13.5702 43.4305 13.4119C43.4949 13.2535 43.5235 13.083 43.5143 12.9123C43.5055 12.7415 43.459 12.5749 43.3782 12.4242C43.2973 12.2735 43.1841 12.1426 43.0467 12.0408ZM29.8168 11.8123H13.7369L17.8585 2.32057H25.6868L29.8168 11.8123ZM29.6793 14.1392L21.7769 29.4398L13.8766 14.1392H29.6793ZM11.2107 11.8123H4.67508L14.3103 4.67288L11.2107 11.8123ZM11.2657 14.1392L17.7188 26.6348L4.13556 14.1392H11.2657ZM32.2923 14.1392H39.3801L25.8772 26.5629L32.2923 14.1392ZM32.3473 11.8123L29.2731 4.7173L38.8469 11.8123H32.3473Z" fill="#E84F2C"/>
</g>
<defs>
<clipPath id="clip0">
<rect width="167.491" height="33" fill="white"/>
</clipPath>
</defs>
</svg>
