<svg width="150" height="35" viewBox="0 0 150 35" fill="none" xmlns="http://www.w3.org/2000/svg">
<g clip-path="url(#clip0)">
<path d="M77.0938 1.45605V31.0304H86.04V9.02215H95.3066L95.972 1.45605H77.0938Z" fill="#0085C3"/>
<path d="M56.7882 28.0976L61.4708 16.8101H61.939L62.9248 31.0304H71.3042L69.5298 1.45605H61.2982L54.2004 18.1163H53.7321L46.4618 1.45605H38.4028L36.4805 30.8578H44.6873L45.5006 16.6375H45.9935L51.1444 27.9251L56.7882 28.0976Z" fill="#0085C3"/>
<path d="M99.3757 8.84963H106.966V31.0304H115.888V8.84963H124.489L124.982 1.45605H98.8828L99.3757 8.84963Z" fill="#0085C3"/>
<path d="M148.688 24.6719C146.304 25.002 143.899 25.1667 141.492 25.1648C136.785 25.1648 135.848 23.4889 135.848 19.4964V14.5673C135.848 10.4023 136.637 8.89892 141.492 8.89892C143.801 8.89629 146.107 9.06102 148.393 9.39183L148.861 1.99825C146.229 1.65436 143.579 1.47328 140.925 1.45605C131.067 1.45605 127.469 4.95568 127.469 13.3104V20.704C127.469 30.0446 131.856 32.5584 140.777 32.5584C143.606 32.5026 146.428 32.2804 149.23 31.8929L148.688 24.6719Z" fill="#0085C3"/>
<path fill-rule="evenodd" clip-rule="evenodd" d="M0 21.1602C0 28.0194 3.8301 34.9515 12.4223 34.9515C21.0146 34.9515 24.8447 28.034 24.8447 21.1602C24.7226 16.0605 23.2719 11.0809 20.6359 6.71359C18.0728 2.50486 15 0 12.4223 0C9.84466 0 6.75728 2.50486 4.2233 6.71359C1.57726 11.0773 0.121117 16.0583 0 21.1602Z" fill="#0085C3"/>
</g>
<defs>
<clipPath id="clip0">
<rect width="150" height="34.9515" fill="white"/>
</clipPath>
</defs>
</svg>
