<svg width="143" height="36" viewBox="0 0 143 36" fill="none" xmlns="http://www.w3.org/2000/svg">
<g clip-path="url(#clip0)">
<path fill-rule="evenodd" clip-rule="evenodd" d="M90.5564 10.9175H81.8477V2.5H108.571V10.9175H99.8622V33.6942H90.5564V10.9175Z" fill="#E30611"/>
<path fill-rule="evenodd" clip-rule="evenodd" d="M128.447 10.9174H142.121V2.48535H128.447C115.893 2.48535 109.18 8.76206 109.18 18.0825C109.18 27.4028 115.879 33.6795 128.447 33.6795H142.121V25.2475H128.447C122.621 25.2475 118.806 23.165 118.806 18.0679C118.806 12.9708 122.636 10.9174 128.447 10.9174Z" fill="#E30611"/>
<path fill-rule="evenodd" clip-rule="evenodd" d="M57.9184 21.1262L62.899 2.5H79.3699V33.6942H70.0495V8.29612L63.2631 33.6942H52.5883L45.8165 8.32524V33.6942H36.4961V2.5H52.9524L57.9184 21.1262Z" fill="#E30611"/>
<path fill-rule="evenodd" clip-rule="evenodd" d="M0 21.7813C0 28.6405 3.8301 35.5726 12.4223 35.5726C21.0146 35.5726 24.8447 28.6551 24.8447 21.7813C24.7226 16.6816 23.2719 11.702 20.6359 7.33469C18.0728 3.12595 15 0.621094 12.4223 0.621094C9.84466 0.621094 6.75728 3.12595 4.2233 7.33469C1.57726 11.6984 0.121117 16.6794 0 21.7813Z" fill="#E30611"/>
</g>
<defs>
<clipPath id="clip0">
<rect width="142.718" height="34.9515" fill="white" transform="translate(0 0.621094)"/>
</clipPath>
</defs>
</svg>
