<svg width="151" height="30" viewBox="0 0 151 30" fill="none" xmlns="http://www.w3.org/2000/svg">
<g clip-path="url(#clip0)">
<path d="M20.0915 25.3837C17.5214 25.3837 14.9852 25.457 12.4639 25.3503C11.3049 25.3021 11.5549 24.2726 11.699 23.5549C12.0422 21.8537 12.4787 20.1693 12.8622 18.4764C13.1376 17.2628 13.3919 16.0471 13.7097 14.6095C12.9081 14.5792 12.1055 14.589 11.3049 14.6388C11.093 14.6618 10.7985 15.0196 10.7413 15.2666C9.96157 18.6145 9.21787 21.9625 8.44451 25.39C6.05663 25.39 3.59036 25.4088 1.1262 25.39C0.215119 25.3795 -0.145076 24.8376 0.0668031 23.8834C1.27169 18.5964 2.48223 13.3108 3.69842 8.02655C4.21116 5.78968 4.7451 3.55909 5.24725 1.31803C5.30874 0.886905 5.33777 0.45187 5.33412 0.0165038C7.84913 0.0165038 10.3493 -0.0107002 12.8474 0.0311496C13.7648 0.045797 14.0763 0.658898 13.8199 1.81186C13.466 3.40633 13.0677 4.99035 12.7033 6.58273C12.5359 7.31929 12.4024 8.06212 12.2202 8.97653C13.091 8.97653 13.822 9.0142 14.5509 8.95352C14.6765 8.92133 14.7925 8.85961 14.8887 8.77363C14.985 8.68764 15.0588 8.57994 15.1039 8.45969C15.7586 5.69761 16.3752 2.92506 17.0362 0.0185952C19.3881 0.0185952 21.92 -0.0106993 24.452 0.0353355C25.2783 0.0499829 25.6089 0.612863 25.4372 1.41638C25.3504 1.82441 25.1766 2.21989 25.1364 2.63002C24.9965 4.09476 24.7126 5.28539 22.7379 5.03847C22.3501 4.99035 21.6001 5.53858 21.4899 5.93825C21.0344 7.58922 20.7611 9.28622 20.4305 10.9728L20.7462 11.0481C21.0979 9.86584 21.5132 8.69824 21.7865 7.49087C22.0429 6.36302 22.6743 5.978 23.81 5.98846C27.9755 6.03031 32.1432 6.0073 36.3109 6.0073H40.5675C40.0781 7.6499 39.6141 9.33644 39.0441 10.9853C38.9445 11.2741 38.4085 11.5252 38.0483 11.5921C37.4656 11.6968 36.8533 11.6403 36.2537 11.6382C34.5713 11.6382 34.5862 11.6382 34.2366 13.1908C33.0882 18.3146 31.9356 23.437 30.7787 28.558C30.6812 28.9912 30.6558 29.439 30.5838 29.9851C28.2234 29.9851 25.7932 30.0312 23.3672 29.9642C22.1934 29.9328 21.884 29.3888 22.1616 28.1835C23.3312 23.0297 24.4817 17.8717 25.7063 12.7326C25.9182 11.814 25.6555 11.6403 24.8313 11.6298C23.1066 11.611 23.1235 11.5901 22.7379 13.3038C21.9688 16.7292 21.1721 20.1462 20.4072 23.5695C20.2547 24.1094 20.2017 24.6681 20.0915 25.3837Z" fill="white"/>
<path d="M90.4101 19.8105C89.1261 21.5473 87.7192 23.2108 86.5963 25.0417C85.628 26.6215 84.3948 27.0275 82.8672 26.6404L85.325 15.7532H88.2595L86.5963 22.4742L86.842 22.5914C87.019 22.4145 87.1866 22.2287 87.3442 22.0348C88.6155 20.3169 89.9016 18.6136 91.122 16.8643C91.7089 16.0273 92.3509 15.4916 93.4527 15.682C93.8045 15.7212 94.1594 15.7254 94.5121 15.6946L91.9801 26.5964H89.0986L90.7237 19.9235L90.4101 19.8105Z" fill="white"/>
<path d="M57.9204 15.2334C58.8802 15.5159 59.9205 15.6519 60.785 16.1102C62.5648 17.056 62.7427 18.753 62.5944 20.5441C62.2703 24.5052 57.8038 27.8218 53.8735 26.9995C51.0979 26.4198 49.8626 24.3922 50.4665 21.4146C51.1593 17.9934 54.3269 15.428 57.9204 15.2334ZM59.5624 20.1528C59.5624 20.0147 59.5624 19.8745 59.5624 19.7343C59.5624 18.7174 59.3739 17.7549 58.3801 17.2443C57.3864 16.7337 56.3736 16.9702 55.5177 17.6209C53.7357 18.9769 53.276 20.9166 53.3628 22.9903C53.4095 24.1139 53.9455 25.1016 55.1702 25.4175C56.3503 25.723 57.3102 25.1957 58.0856 24.3713C59.198 23.1911 59.5391 21.7201 59.5624 20.1507V20.1528Z" fill="white"/>
<path d="M132.122 26.6549H129.258L131.75 15.751H134.716L133.555 20.0866C134.614 20.0866 135.462 20.1033 136.337 20.072C136.436 20.0576 136.529 20.0196 136.61 19.9612C136.69 19.9029 136.755 19.8259 136.799 19.7372C137.093 18.467 137.345 17.1885 137.646 15.7824H140.576L138.078 26.6194H135.171L136.404 21.6267C135.379 21.6267 134.574 21.5974 133.775 21.6455C133.649 21.6628 133.529 21.7099 133.425 21.7827C133.322 21.8556 133.238 21.9521 133.18 22.064C132.805 23.5204 132.491 25.004 132.122 26.6549Z" fill="white"/>
<path d="M45.5764 21.6186C44.5276 21.6186 43.6546 21.5872 42.7838 21.6437C42.5973 21.6563 42.3219 21.9555 42.2753 22.1647C41.9511 23.6106 41.6757 25.067 41.3621 26.6301H38.4297L40.9044 15.768H43.8707L42.6969 20.0869C43.7563 20.0869 44.5911 20.1162 45.4217 20.066C45.5433 20.039 45.6565 19.9832 45.7514 19.9034C45.8463 19.8235 45.92 19.722 45.9662 19.6077C46.2629 18.3669 46.5002 17.1135 46.7798 15.7617H49.7292L47.2375 26.6196H44.3178L45.5764 21.6186Z" fill="white"/>
<path d="M122.726 15.6898C123.41 15.719 124.094 15.7141 124.777 15.6752C125.638 15.5977 125.854 16.0162 125.941 16.7528C126.267 19.5484 126.629 22.3376 127 25.1227C127.061 25.5956 127.212 26.056 127.352 26.6189H123.504C123.621 26.3636 123.828 26.1188 123.822 25.8781C123.803 25.0914 123.822 24.2732 123.574 23.545C123.504 23.3358 122.625 23.3358 122.116 23.319C120.097 23.2897 119.097 24.3234 118.898 26.6461H116.684C118.73 23.0805 120.985 19.6676 122.726 15.6898ZM121.031 21.9443C121.906 21.9443 122.462 21.9903 123.004 21.9191C123.195 21.894 123.502 21.5802 123.493 21.4128C123.443 20.5067 123.309 19.6049 123.205 18.6925L122.902 18.6319L121.031 21.9443Z" fill="white"/>
<path d="M113.841 22.0162C114.866 21.1938 115.475 20.1895 115.57 18.9591C115.59 18.4514 115.436 17.952 115.131 17.5425C114.693 16.9796 114.072 17.1616 113.911 17.8521C113.325 20.3548 112.76 22.8616 112.216 25.3725C112.135 25.7366 112.205 26.1321 112.205 26.6092H109.105L111.58 15.7283C113.082 15.7283 114.911 15.5713 116.701 15.7722C118.492 15.9731 119.182 17.8438 118.231 19.5931C117.931 20.1507 117.513 20.6375 117.004 21.0197C116.495 21.4019 115.908 21.6705 115.284 21.8069C114.814 21.9178 114.322 21.9513 113.841 22.0162Z" fill="white"/>
<path d="M65.9572 26.705C65.2072 26.705 64.5059 26.705 63.8045 26.705C63.491 26.705 63.1689 26.6799 62.957 26.6694L65.4275 15.7383C66.9573 15.7383 68.7583 15.6211 70.5338 15.7738C72.0403 15.9036 72.7628 17.2218 72.3941 18.6929C71.9555 20.438 70.7563 21.3922 69.0591 21.8149C68.6665 21.897 68.2698 21.9585 67.8705 21.999C68.3451 21.162 68.9299 20.279 69.3537 19.3269C69.4992 18.9034 69.4703 18.4405 69.2731 18.0379C69.1015 17.6989 68.6375 17.5043 68.2964 17.2469C68.0993 17.5336 67.7963 17.7952 67.7222 18.1111C67.1671 20.4777 66.6628 22.8548 66.1416 25.2256C66.042 25.6567 66.0293 26.1065 65.9572 26.705Z" fill="white"/>
<path d="M150.591 17.5884C147.429 16.04 145.224 17.783 144.567 20.2773C144.34 21.042 144.209 21.8311 144.175 22.6271C144.158 24.6171 145.736 25.8642 147.698 25.4457C148.622 25.249 149.521 24.933 150.512 24.6485C149.993 25.7784 149.554 26.8979 147.97 26.8895C147.025 26.8895 146.063 27.1239 145.139 27.0213C141.995 26.6719 140.478 24.3932 141.363 21.1205C142.444 17.0757 145.679 14.8786 150.305 15.498C151.122 15.6068 151.216 16.312 150.591 17.5884Z" fill="white"/>
<path d="M81.7677 24.7004C81.3779 26.1421 80.5388 26.9121 79.1214 26.9226C77.9009 26.9226 76.6487 27.0251 75.4622 26.8012C73.5553 26.4413 72.0467 24.4053 72.6442 21.5093C73.426 17.7157 76.6805 14.7234 81.6893 15.5185C82.4457 15.6378 82.5241 16.1735 82.0178 17.5775C81.4732 17.3955 80.9372 17.1235 80.3757 17.044C78.634 16.795 77.1975 17.4625 76.4602 19.0548C75.9499 20.1549 75.6427 21.3362 75.5533 22.543C75.4262 24.6564 77.0704 25.891 79.1701 25.4181C80.0261 25.2256 80.8439 24.9473 81.7677 24.7004Z" fill="white"/>
<path d="M104.417 26.6436H101.277L103.511 17.2755L100.828 17.5622C101.267 15.7166 101.303 15.6894 103.313 15.6915C105.324 15.6936 107.314 15.6915 109.536 15.6915L108.689 17.5517C108.584 17.564 108.478 17.564 108.373 17.5517C106.449 17.039 106.352 17.0683 105.89 18.9662C105.364 21.1278 104.89 23.2998 104.422 25.4739C104.352 25.8275 104.417 26.202 104.417 26.6436Z" fill="white"/>
<path d="M100.281 20.5107C100.223 22.2036 100.115 22.3103 98.5433 22.3103H95.4922C95.6447 20.6091 95.7507 20.5128 97.3334 20.5107H100.281Z" fill="white"/>
</g>
<defs>
<clipPath id="clip0">
<rect width="151" height="30" fill="white"/>
</clipPath>
</defs>
</svg>
