<svg width="38" height="46" viewBox="0 0 38 46" fill="none" xmlns="http://www.w3.org/2000/svg">
<path fill-rule="evenodd" clip-rule="evenodd" d="M5.44768 5.99807C8.93551 2.51023 13.666 0.550781 18.5986 0.550781C23.5311 0.550781 28.2616 2.51023 31.7495 5.99807C35.2373 9.4859 37.1968 14.2164 37.1968 19.149C37.1968 24.0815 35.2373 28.812 31.7495 32.2999L18.5986 45.4508L5.44768 32.2999C3.72056 30.5729 2.35053 28.5227 1.41581 26.2663C0.481094 24.0098 0 21.5914 0 19.149C0 16.7066 0.481094 14.2881 1.41581 12.0317C2.35053 9.77523 3.72056 7.725 5.44768 5.99807ZM18.5986 24.4625C20.0078 24.4625 21.3593 23.9027 22.3558 22.9062C23.3523 21.9097 23.9121 20.5582 23.9121 19.149C23.9121 17.7397 23.3523 16.3882 22.3558 15.3918C21.3593 14.3953 20.0078 13.8355 18.5986 13.8355C17.1894 13.8355 15.8378 14.3953 14.8414 15.3918C13.8449 16.3882 13.2851 17.7397 13.2851 19.149C13.2851 20.5582 13.8449 21.9097 14.8414 22.9062C15.8378 23.9027 17.1894 24.4625 18.5986 24.4625Z" fill="white"/>
</svg>
