<?xml version="1.0" encoding="utf-8"?><svg width="70" height="747" viewBox="0 83 70 830" fill="none" xmlns="http://www.w3.org/2000/svg"><path fill="#152837" d="M105.691 1053L-39.002 859.331l21.296-15.91 144.693 193.669zM105.691 970L-39.002 776.331l21.296-15.91L126.987 954.09zM105.691 887L-39.002 693.331l21.296-15.91L126.987 871.09zM105.691 804L-39.002 610.331l21.296-15.91L126.987 788.09zM105.691 721L-39.002 527.331l21.296-15.91L126.987 705.09zM105.691 638L-39.002 444.331l21.296-15.91L126.987 622.09zM105.691 555L-39.002 361.331l21.296-15.91L126.987 539.09zM105.691 472L-39.002 278.331l21.296-15.91L126.987 456.09zM105.691 389L-39.002 195.331l21.296-15.91L126.987 373.09zM105.691 306L-39.002 112.331l21.296-15.91L126.987 290.09zM105.691 223L-39.002 29.331l21.296-15.91L126.987 207.09zM105.691 140L-39.002-53.669l21.296-15.91L126.987 124.09z"/></svg>