<?xml version="1.0" encoding="utf-8"?><svg width="70" height="900" fill="none" xmlns="http://www.w3.org/2000/svg" viewBox="0 0 70 900"><path fill="#152837" d="M-35.691-179L109 14.67 87.705 30.58-56.987-163.09zM-35.691-96L109 97.67l-21.296 15.91L-56.987-80.09zM-35.691-13L109 180.67l-21.296 15.91L-56.987 2.91zM-35.691 70L109 263.67l-21.296 15.91L-56.987 85.91zM-35.691 153L109 346.67l-21.296 15.91-144.692-193.67zM-35.691 236L109 429.67l-21.296 15.91-144.692-193.67zM-35.691 319L109 512.67l-21.296 15.91-144.692-193.67zM-35.691 402L109 595.67l-21.296 15.91-144.692-193.67zM-35.691 485L109 678.67l-21.296 15.91-144.692-193.67zM-35.691 568L109 761.67l-21.296 15.91-144.692-193.67zM-35.691 651L109 844.67l-21.296 15.91-144.692-193.67zM-35.691 734L109 927.67l-21.296 15.91-144.692-193.67zM-35.691 817L109 1010.67l-21.296 15.91-144.692-193.67z"/></svg>