<?xml version="1.0" encoding="utf-8"?><svg xmlns="http://www.w3.org/2000/svg" viewBox="0 0 19.5 26.23" width="19.5" height="26.23"><defs><style>.ccls-1{fill:#303030}</style></defs><g id="cСлой_2" data-name="Слой 2"><path class="ccls-1" d="M19.08 10.48c.48.69.09 1-.12 1.31-2.49 3.82-5 7.67-7.5 11.45-2.05 3.05-5.61 3.85-8.46 2a6.05 6.05 0 01-2-8.49c3.12-5 6.38-9.9 9.69-14.77a4.73 4.73 0 016.4-1.22c2.18 1.43 3.13 4.14 1.81 6.31-2.68 4.38-5.54 8.67-8.44 12.91a3.2 3.2 0 01-4.81.86 3.27 3.27 0 01-1-4.8C6.71 12.74 8.88 9.5 11 6.25c.19-.28.32-.87.87-.61.78.37.19.82 0 1.18-1.94 3-3.86 6-5.85 9-1 1.48-1.47 3 .19 4.15s3.07.15 4.08-1.43c2.37-3.71 4.82-7.36 7.17-11.08 1.42-2.23 1-4.32-.9-5.66S12.47 1 11 3.21Q6.51 9.93 2.14 16.73c-1.85 2.88-1.24 6 1.35 7.63s5.43.87 7.31-1.93c2.26-3.38 4.42-6.82 6.68-10.2.42-.63.58-1.57 1.6-1.75z" id="cСлой_1-2" data-name="Слой 1"/></g></svg>