<?xml version="1.0" encoding="utf-8"?><svg width="101" height="35" fill="none" xmlns="http://www.w3.org/2000/svg" viewBox="0 0 101 35"><path d="M31.927 2v5h-.672V2h-1.864v-.584h4.4V2h-1.864zm4.533 5.096c-.298 0-.568-.05-.808-.152a1.758 1.758 0 01-.608-.432 2.066 2.066 0 01-.384-.68 2.745 2.745 0 01-.136-.888c0-.33.046-.63.136-.896.096-.267.227-.493.392-.68.166-.192.363-.339.592-.44.235-.101.494-.152.776-.152.278 0 .528.05.752.152.23.101.424.243.584.424.16.176.283.387.368.632.086.245.128.515.128.808v.304h-3.056v.192c0 .181.03.35.088.504.059.155.142.288.248.4.112.112.246.2.4.264.16.059.336.088.528.088.278 0 .518-.064.72-.192.203-.128.358-.304.464-.528l.472.32a1.552 1.552 0 01-.616.688c-.282.176-.63.264-1.04.264zm-.04-3.792a1.226 1.226 0 00-.88.36 1.285 1.285 0 00-.256.4c-.058.15-.088.315-.088.496v.056h2.368v-.088c0-.181-.03-.347-.088-.496a1.075 1.075 0 00-.232-.384.926.926 0 00-.36-.256 1.18 1.18 0 00-.464-.088zM39.273 7l1.536-2.096-1.496-2.032h.768l.624.872.496.688h.032l.48-.688.616-.872h.736l-1.512 2.024L43.105 7h-.768l-.696-.968-.472-.656h-.032l-.456.656L40.01 7h-.736zm5.069-4.128h.64V4.6h2V2.872h.64V7h-.64V5.144h-2V7h-.64V2.872zm6.437 4.224c-.288 0-.55-.05-.784-.152a1.698 1.698 0 01-.592-.432 2.036 2.036 0 01-.368-.68 2.933 2.933 0 01-.128-.896c0-.325.043-.621.128-.888s.208-.493.368-.68c.165-.192.363-.339.592-.44.235-.101.496-.152.784-.152.288 0 .547.05.776.152.235.101.432.248.592.44.165.187.29.413.376.68.085.267.128.563.128.888 0 .33-.043.63-.128.896-.085.261-.21.488-.376.68-.16.187-.357.33-.592.432a1.9 1.9 0 01-.776.152zm0-.552c.357 0 .645-.107.864-.32.219-.213.328-.544.328-.992V4.64c0-.448-.11-.779-.328-.992-.219-.213-.507-.32-.864-.32s-.645.107-.864.32c-.219.213-.328.544-.328.992v.592c0 .448.11.779.328.992.219.213.507.32.864.32zm2.605-.088h.512c.08-.101.15-.221.208-.36.064-.139.114-.304.152-.496.042-.192.074-.413.096-.664.021-.256.032-.552.032-.888V2.872h2.744V7h-.64V3.416h-1.48v.648c0 .747-.056 1.333-.168 1.76-.107.421-.25.723-.432.904a.885.885 0 01-.336.216c-.123.037-.27.056-.44.056h-.248v-.544zm6.989.64c-.288 0-.55-.05-.784-.152a1.698 1.698 0 01-.592-.432 2.036 2.036 0 01-.368-.68 2.93 2.93 0 01-.128-.896c0-.325.042-.621.128-.888.085-.267.208-.493.368-.68.165-.192.362-.339.592-.44.234-.101.496-.152.784-.152.288 0 .546.05.776.152.234.101.432.248.592.44.165.187.29.413.376.68.085.267.128.563.128.888 0 .33-.043.63-.128.896-.086.261-.211.488-.376.68-.16.187-.358.33-.592.432-.23.101-.488.152-.776.152zm0-.552c.357 0 .645-.107.864-.32.218-.213.328-.544.328-.992V4.64c0-.448-.11-.779-.328-.992-.219-.213-.507-.32-.864-.32-.358 0-.646.107-.864.32-.219.213-.328.544-.328.992v.592c0 .448.109.779.328.992.218.213.506.32.864.32zm3.477-3.672h2.96v.544h-2.32V7h-.64V2.872zm4.476 0h.64v2.104l-.064 1.056h.032l2.072-3.16h.6V7h-.64V4.896l.064-1.056h-.032L68.926 7h-.6V2.872zm7.317 2.232h-.04c-.15.165-.32.29-.512.376-.186.08-.426.12-.72.12-.448 0-.79-.104-1.024-.312-.23-.213-.344-.533-.344-.96V2.872h.64v1.4c0 .256.072.445.216.568.144.123.379.184.704.184.32 0 .579-.04.776-.12.203-.085.304-.213.304-.384V2.872h.64V7h-.64V5.104zm3.99 1.992c-.3 0-.569-.05-.809-.152a1.758 1.758 0 01-.608-.432 2.066 2.066 0 01-.384-.68 2.745 2.745 0 01-.136-.888c0-.33.046-.63.136-.896.096-.267.227-.493.392-.68.165-.192.363-.339.592-.44.235-.101.493-.152.776-.152.278 0 .528.05.752.152.23.101.424.243.584.424.16.176.283.387.368.632.085.245.128.515.128.808v.304h-3.056v.192c0 .181.03.35.088.504.059.155.141.288.248.4.112.112.246.2.4.264.16.059.336.088.528.088.277 0 .517-.064.72-.192.203-.128.358-.304.464-.528l.472.32a1.552 1.552 0 01-.616.688c-.282.176-.63.264-1.04.264zm-.04-3.792a1.226 1.226 0 00-.88.36 1.285 1.285 0 00-.257.4c-.059.15-.088.315-.088.496v.056h2.368v-.088c0-.181-.03-.347-.088-.496a1.075 1.075 0 00-.232-.384.926.926 0 00-.36-.256 1.18 1.18 0 00-.464-.088zM84.5 7.096a2 2 0 01-.8-.152 1.707 1.707 0 01-.584-.44 1.94 1.94 0 01-.368-.68 3.083 3.083 0 01-.12-.888c0-.325.043-.621.128-.888a1.94 1.94 0 01.368-.68c.16-.192.355-.339.584-.44.23-.101.49-.152.784-.152.4 0 .725.088.976.264.25.176.435.405.552.688L85.509 4a.956.956 0 00-.376-.496 1.104 1.104 0 00-.64-.176c-.187 0-.355.032-.504.096a.996.996 0 00-.368.256 1.145 1.145 0 00-.232.4 1.693 1.693 0 00-.072.504v.704c0 .181.024.35.072.504a1.065 1.065 0 00.608.664c.15.059.32.088.512.088.277 0 .507-.064.688-.192.181-.128.325-.304.432-.528l.456.312a1.628 1.628 0 01-.576.688c-.256.181-.592.272-1.008.272zm3.109-4.224h.64V4.6h.88l1.112-1.728h.664L89.898 4.44c-.09.139-.17.237-.24.296a.716.716 0 01-.248.12v.032a.568.568 0 01.272.112c.075.053.152.15.232.288l.672 1.168h.464V7h-.464a.59.59 0 01-.36-.112 1.237 1.237 0 01-.304-.368l-.792-1.376h-.88V7h-.64V2.872zm4.7 0h.64v2.104l-.063 1.056h.032l2.072-3.16h.6V7h-.64V4.896l.064-1.056h-.032L92.91 7h-.6V2.872zm4.798 0h.64v2.104l-.064 1.056h.032l2.072-3.16h.6V7h-.64V4.896l.064-1.056h-.032L97.708 7h-.6V2.872zm1.616-.632c-.272 0-.494-.059-.664-.176-.171-.123-.32-.312-.448-.568l-.224-.456.576-.184.32.848a.78.78 0 00.216.04 3.65 3.65 0 00.448 0 .78.78 0 00.216-.04l.32-.848.576.184-.224.456c-.128.256-.278.445-.448.568-.171.117-.392.176-.664.176zm-30.382 9.632h3.248V16h-.64v-3.584h-1.968V16h-.64v-4.128zM76.323 16c-.25 0-.43-.064-.536-.192a.932.932 0 01-.2-.48h-.04c-.09.24-.237.43-.44.568-.197.133-.464.2-.8.2-.432 0-.776-.112-1.032-.336-.256-.224-.384-.53-.384-.92 0-.384.139-.68.416-.888.283-.208.736-.312 1.36-.312h.88v-.408c0-.304-.085-.53-.256-.68-.17-.155-.413-.232-.728-.232-.277 0-.504.056-.68.168a1.2 1.2 0 00-.424.44l-.432-.32c.054-.107.126-.21.216-.312.09-.101.203-.19.336-.264.134-.08.286-.141.456-.184.17-.048.36-.072.568-.072.486 0 .87.123 1.152.368.288.245.432.587.432 1.024v2.272h.576V16h-.44zm-1.904-.44c.166 0 .315-.019.448-.056a1.5 1.5 0 00.36-.16.761.761 0 00.232-.24.574.574 0 00.088-.304v-.68h-.88c-.384 0-.664.053-.84.16a.512.512 0 00-.264.464v.168c0 .213.075.376.224.488.155.107.366.16.632.16zm3.501-3.688h.64v.672h.032c.267-.512.69-.768 1.272-.768.507 0 .901.19 1.184.568.288.379.432.91.432 1.592 0 .683-.144 1.213-.432 1.592-.282.379-.677.568-1.184.568-.581 0-1.005-.256-1.272-.768h-.032V17.6h-.64v-5.728zm1.696 3.656c.374 0 .662-.112.864-.336.208-.23.312-.53.312-.904v-.704c0-.373-.104-.672-.312-.896-.203-.23-.49-.344-.864-.344-.144 0-.28.019-.408.056a.993.993 0 00-.336.168.79.79 0 00-.232.264.762.762 0 00-.08.36v1.488c0 .139.027.261.08.368a.91.91 0 00.232.264c.096.07.208.123.336.16.128.037.264.056.408.056zm4.421-3.112h-1.52v-.544h3.68v.544h-1.52V16h-.64v-3.584zm3.477-.544h.64V13.6h2v-1.728h.64V16h-.64v-1.856h-2V16h-.64v-4.128zm6.509 4.224c-.299 0-.568-.05-.808-.152a1.757 1.757 0 01-.608-.432 2.067 2.067 0 01-.384-.68 2.745 2.745 0 01-.136-.888c0-.33.045-.63.136-.896.096-.267.226-.493.392-.68.165-.192.362-.339.592-.44.234-.101.493-.152.776-.152.277 0 .528.05.752.152.23.101.424.243.584.424.16.176.282.387.368.632.085.245.128.515.128.808v.304h-3.056v.192c0 .181.03.35.088.504.058.155.141.288.248.4.112.112.245.2.4.264.16.059.336.088.528.088.277 0 .517-.064.72-.192.202-.128.357-.304.464-.528l.472.32a1.552 1.552 0 01-.616.688c-.283.176-.63.264-1.04.264zm-.04-3.792a1.226 1.226 0 00-.88.36 1.285 1.285 0 00-.256.4c-.059.15-.088.315-.088.496v.056h2.368v-.088c0-.181-.03-.347-.088-.496a1.076 1.076 0 00-.232-.384.926.926 0 00-.36-.256 1.18 1.18 0 00-.464-.088zm-.76-1.248c-.166 0-.283-.035-.352-.104a.357.357 0 01-.104-.264v-.112c0-.107.034-.195.104-.264.07-.07.186-.104.352-.104.165 0 .282.035.352.104.07.07.104.157.104.264v.112a.358.358 0 01-.104.264c-.07.07-.187.104-.352.104zm1.488 0c-.166 0-.283-.035-.352-.104a.357.357 0 01-.104-.264v-.112c0-.107.034-.195.104-.264.07-.07.186-.104.352-.104.165 0 .282.035.352.104.07.07.104.157.104.264v.112a.358.358 0 01-.104.264c-.07.07-.187.104-.352.104zm2.397.816h.64v.672h.032c.266-.512.69-.768 1.272-.768.506 0 .901.19 1.184.568.288.379.432.91.432 1.592 0 .683-.144 1.213-.432 1.592-.283.379-.678.568-1.184.568-.582 0-1.006-.256-1.272-.768h-.032V17.6h-.64v-5.728zm1.696 3.656c.373 0 .661-.112.864-.336.208-.23.312-.53.312-.904v-.704c0-.373-.104-.672-.312-.896-.203-.23-.491-.344-.864-.344-.144 0-.28.019-.408.056a.993.993 0 00-.336.168.79.79 0 00-.232.264.762.762 0 00-.08.36v1.488c0 .139.026.261.08.368a.91.91 0 00.232.264c.096.07.208.123.336.16.128.037.264.056.408.056z" fill="#fff"/><g clip-path="url(#eclip0)" fill="#fff"><path d="M13.304 31.022c-1.702 0-3.381.05-5.051-.022-.768-.032-.602-.723-.507-1.204.228-1.14.517-2.27.77-3.405.183-.814.352-1.63.562-2.594-.53-.02-1.062-.013-1.593.02-.14.015-.335.255-.373.421-.516 2.245-1.009 4.49-1.52 6.789-1.582 0-3.216.012-4.847 0-.604-.007-.842-.37-.702-1.01.798-3.546 1.6-7.09 2.405-10.634.34-1.5.693-2.996 1.026-4.498.04-.29.06-.581.057-.873 1.666 0 3.322-.019 4.976.01.607.01.814.42.644 1.194-.234 1.069-.498 2.131-.74 3.199-.11.494-.199.992-.32 1.605.577 0 1.061.025 1.544-.015a.532.532 0 00.366-.331c.434-1.853.842-3.712 1.28-5.66 1.557 0 3.234-.02 4.911.01.547.01.766.388.653.926-.058.274-.173.54-.2.814-.092.983-.28 1.78-1.588 1.615-.257-.032-.754.336-.827.604-.301 1.107-.482 2.245-.701 3.376l.209.05c.233-.793.508-1.575.689-2.385.17-.757.588-1.015 1.34-1.008 2.759.028 5.519.013 8.279.013h2.819c-.324 1.102-.632 2.232-1.01 3.338-.065.194-.42.362-.659.407-.386.07-.791.032-1.188.03-1.114 0-1.104 0-1.336 1.042-.76 3.436-1.524 6.87-2.29 10.305-.065.29-.081.59-.13.957-1.562 0-3.172.03-4.778-.014-.778-.021-.982-.386-.799-1.194.775-3.456 1.537-6.915 2.348-10.361.14-.616-.034-.733-.58-.74-1.142-.012-1.13-.026-1.386 1.123-.51 2.297-1.037 4.588-1.544 6.884-.1.362-.136.736-.209 1.216zM59.874 27.285c-.85 1.164-1.782 2.28-2.526 3.507-.64 1.06-1.457 1.332-2.47 1.072l1.629-7.3h1.943l-1.102 4.507.163.078c.117-.118.228-.243.333-.373.842-1.152 1.693-2.294 2.502-3.467.388-.561.814-.92 1.543-.793a3.5 3.5 0 00.702.008l-1.677 7.311h-1.908l1.076-4.475-.208-.075zM38.352 24.215c.636.19 1.325.28 1.897.588 1.179.634 1.297 1.772 1.198 2.973-.214 2.656-3.172 4.88-5.775 4.329-1.838-.389-2.656-1.748-2.256-3.745.459-2.294 2.556-4.015 4.936-4.145zm1.088 3.299v-.28c0-.683-.125-1.328-.783-1.67-.658-.343-1.33-.184-1.896.252-1.18.91-1.485 2.21-1.427 3.6.03.754.386 1.416 1.197 1.628.781.205 1.417-.149 1.93-.701.737-.792.963-1.778.979-2.83zM87.499 31.874h-1.897l1.65-7.311h1.964l-.769 2.907c.702 0 1.263.011 1.843-.01a.407.407 0 00.305-.225c.195-.851.362-1.709.562-2.651h1.94l-1.654 7.267h-1.925l.817-3.348c-.68 0-1.213-.02-1.742.012a.524.524 0 00-.394.28c-.248.977-.456 1.972-.7 3.08zM30.182 28.498c-.694 0-1.273-.021-1.85.017-.123.008-.305.209-.336.349-.215.97-.397 1.946-.605 2.994H25.45l1.64-7.284h1.964l-.778 2.897c.702 0 1.255.02 1.805-.014a.507.507 0 00.36-.308c.197-.832.354-1.672.54-2.579h1.952l-1.65 7.281H29.35l.833-3.353zM81.275 24.522c.453.02.906.016 1.359-.01.57-.052.712.229.77.723a353.7 353.7 0 00.702 5.612c.04.317.14.626.232 1.004H81.79c.077-.172.215-.336.21-.497-.012-.528 0-1.076-.163-1.565-.047-.14-.63-.14-.966-.151-1.337-.02-2 .673-2.131 2.23h-1.467c1.356-2.39 2.849-4.679 4.002-7.346zm-1.122 4.194c.58 0 .947.03 1.306-.017.126-.017.33-.227.324-.34-.033-.607-.122-1.212-.19-1.824l-.201-.04-1.24 2.22zM75.39 28.764c.68-.552 1.082-1.226 1.145-2.05a1.504 1.504 0 00-.29-.95c-.29-.378-.702-.256-.809.207-.388 1.678-.762 3.36-1.122 5.043-.054.244-.007.51-.007.83h-2.053l1.639-7.297c.995 0 2.206-.105 3.391.03 1.186.134 1.643 1.389 1.013 2.562a2.925 2.925 0 01-1.951 1.484c-.312.075-.638.097-.956.14zM43.682 31.908h-1.425c-.208 0-.421-.017-.562-.024l1.636-7.33c1.013 0 2.206-.078 3.382.024.998.087 1.476.971 1.232 1.957-.29 1.17-1.085 1.81-2.209 2.094-.26.055-.522.096-.787.123.315-.56.702-1.153.983-1.791a1.142 1.142 0 00-.054-.865c-.114-.227-.42-.358-.647-.53-.13.192-.33.367-.38.58-.368 1.586-.701 3.18-1.047 4.77-.066.29-.074.59-.122.992zM99.73 25.795c-2.094-1.038-3.555.13-3.99 1.803a6.603 6.603 0 00-.26 1.576c-.01 1.335 1.035 2.17 2.334 1.89.612-.132 1.207-.343 1.864-.534-.344.757-.635 1.508-1.684 1.502-.626 0-1.263.158-1.875.089-2.082-.234-3.087-1.763-2.5-3.957.715-2.712 2.858-4.186 5.921-3.77.542.073.603.545.19 1.401zM54.153 30.564c-.258.967-.814 1.483-1.752 1.49-.809 0-1.638.069-2.424-.081-1.262-.242-2.261-1.607-1.866-3.549.518-2.544 2.673-4.55 5.99-4.017.501.08.553.439.218 1.38-.36-.122-.716-.304-1.088-.357-1.153-.167-2.104.28-2.593 1.348a6.81 6.81 0 00-.6 2.34c-.084 1.416 1.004 2.244 2.395 1.927.567-.129 1.108-.316 1.72-.481zM69.15 31.868h-2.08l1.48-6.282-1.777.192c.29-1.238.315-1.256 1.646-1.255 1.332.002 2.65 0 4.121 0l-.56 1.248a.89.89 0 01-.21 0c-1.274-.344-1.338-.324-1.644.948-.348 1.45-.663 2.906-.973 4.364-.046.238-.003.489-.003.785zM66.413 27.754c-.037 1.135-.11 1.207-1.15 1.207h-2.02c.1-1.141.17-1.206 1.219-1.207h1.951z"/></g><defs><clipPath id="eclip0"><path fill="#fff" transform="translate(0 14)" d="M0 0h100v20.117H0z"/></clipPath></defs></svg>