<?xml version="1.0" encoding="utf-8"?><svg width="44" height="33" fill="none" xmlns="http://www.w3.org/2000/svg" viewBox="0 0 44 33"><path d="M43.047 12.04L27.107.229A1.16 1.16 0 0026.415 0h-9.31c-.249 0-.492.08-.692.228L.473 12.041a1.159 1.159 0 00-.384 1.37c.065.16.163.301.289.417l20.597 18.95a1.158 1.158 0 001.57 0l20.597-18.95a1.162 1.162 0 00-.095-1.787zm-13.23-.228h-16.08l4.121-9.491h7.829l4.13 9.491zm-.138 2.327l-7.902 15.3-7.9-15.3h15.802zm-18.468-2.327H4.675l9.635-7.14-3.1 7.14zm.055 2.327l6.453 12.496L4.136 14.139h7.13zm21.026 0h7.088L25.877 26.563l6.415-12.424zm.055-2.327l-3.074-7.095 9.574 7.095h-6.5z" fill="#E84F2C"/></svg>