<?xml version="1.0" encoding="utf-8"?><svg width="30" height="30" fill="none" xmlns="http://www.w3.org/2000/svg" viewBox="0 0 30 30"><path fill="#fff" d="M0 0h30v30H0z"/><path d="M14.998 9.767a5.226 5.226 0 00-5.233 5.234 5.226 5.226 0 005.233 5.233 5.226 5.226 0 005.234-5.233 5.226 5.226 0 00-5.234-5.234zm0 8.635a3.409 3.409 0 01-3.401-3.401 3.409 3.409 0 013.401-3.402 3.409 3.409 0 013.402 3.402 3.409 3.409 0 01-3.402 3.401zm5.448-10.069a1.22 1.22 0 00-1.222 1.222 1.22 1.22 0 001.222 1.223 1.22 1.22 0 001.13-1.69 1.222 1.222 0 00-1.13-.755zm4.754 6.668c0-1.409.013-2.805-.066-4.21-.08-1.634-.452-3.083-1.646-4.277-1.197-1.197-2.644-1.567-4.277-1.646-1.408-.08-2.804-.066-4.21-.066-1.409 0-2.805-.013-4.21.066-1.634.079-3.083.452-4.277 1.646C5.317 7.71 4.947 9.157 4.868 10.79c-.08 1.409-.066 2.805-.066 4.21 0 1.407-.013 2.805.066 4.211.079 1.633.452 3.083 1.646 4.277 1.197 1.197 2.643 1.567 4.276 1.646 1.409.079 2.805.066 4.21.066 1.41 0 2.805.013 4.211-.066 1.633-.08 3.083-.452 4.277-1.646 1.197-1.197 1.567-2.644 1.646-4.277.081-1.406.066-2.802.066-4.21zm-2.245 6.017c-.187.464-.411.811-.771 1.168-.36.36-.704.585-1.169.771-1.342.533-4.53.413-6.017.413s-4.677.12-6.02-.41a3.243 3.243 0 01-1.168-.771 3.265 3.265 0 01-.77-1.169c-.531-1.345-.411-4.532-.411-6.02 0-1.487-.12-4.677.41-6.019.187-.464.411-.811.771-1.168.36-.358.704-.585 1.169-.771 1.342-.53 4.532-.41 6.02-.41 1.487 0 4.676-.12 6.019.41.464.186.811.41 1.168.77.36.36.585.705.771 1.17.53 1.341.41 4.531.41 6.019 0 1.487.12 4.675-.413 6.017z" fill="#152837"/></svg>