<?xml version="1.0" encoding="utf-8"?><svg xmlns="http://www.w3.org/2000/svg" viewBox="0 0 37 19.5" width="37" height="19.5"><defs><style>.jcls-1{fill:#272727}</style></defs><g id="jСлой_2" data-name="Слой 2"><path class="jcls-1" d="M10.05 19.5a1.27 1.27 0 01-.87-.35l-8.79-8.5a1.07 1.07 0 01-.25-.35v-.06A1.57 1.57 0 010 9.79v-.08a1.57 1.57 0 01.09-.43v-.06a1.07 1.07 0 01.25-.35L9.18.35a1.25 1.25 0 111.74 1.8L4.34 8.5h31.41a1.25 1.25 0 010 2.5H4.34l6.58 6.35a1.25 1.25 0 01-.87 2.15z" id="jСлой_1-2" data-name="Слой 1"/></g></svg>