<?xml version="1.0" encoding="utf-8"?><svg width="122" height="16" fill="none" xmlns="http://www.w3.org/2000/svg" viewBox="0 0 122 16"><path d="M6.14 11.48H4.86V15H.14V1h6.74c1.293 0 2.42.213 3.38.64.96.427 1.7 1.04 2.22 1.84.52.8.78 1.733.78 2.8 0 1-.227 1.873-.68 2.62-.453.747-1.107 1.34-1.96 1.78L13.56 15H8.52l-2.38-3.52zm2.36-5.2c0-.52-.16-.92-.48-1.2-.32-.293-.8-.44-1.44-.44H4.86v3.28h1.72c.64 0 1.12-.14 1.44-.42.32-.293.48-.7.48-1.22zm18.182 5.16V15h-11.64V1h11.38v3.56h-6.74V6.2h5.92v3.4h-5.92v1.84h7zM37.76 7.62h4.1v5.92c-.826.573-1.786 1.013-2.88 1.32-1.093.307-2.166.46-3.22.46-1.493 0-2.833-.307-4.02-.92-1.186-.627-2.12-1.493-2.8-2.6-.666-1.12-1-2.387-1-3.8 0-1.413.334-2.673 1-3.78.68-1.12 1.62-1.987 2.82-2.6 1.214-.627 2.58-.94 4.1-.94 1.374 0 2.6.233 3.68.7 1.094.453 2 1.12 2.72 2l-3.02 2.66c-.88-1.027-1.926-1.54-3.14-1.54-1.04 0-1.866.313-2.48.94-.613.627-.92 1.48-.92 2.56 0 1.053.3 1.9.9 2.54.614.64 1.427.96 2.44.96.6 0 1.174-.113 1.72-.34V7.62zm8.207 7.58c-.76 0-1.394-.24-1.9-.72-.494-.493-.74-1.12-.74-1.88 0-.76.246-1.373.74-1.84.506-.48 1.14-.72 1.9-.72s1.386.24 1.88.72c.506.467.76 1.08.76 1.84s-.254 1.387-.76 1.88c-.494.48-1.12.72-1.88.72zM62.64 15l-.04-6.38-3.04 5.12h-2.08l-3.04-4.9V15h-4.3V1h3.88l4.56 7.46L63.02 1h3.88l.04 14h-4.3zm18.222-3.56V15h-11.64V1h11.38v3.56h-6.74V6.2h5.92v3.4h-5.92v1.84h7zM82.679 1h6.9c1.56 0 2.933.287 4.12.86 1.2.56 2.127 1.367 2.78 2.42.667 1.053 1 2.293 1 3.72s-.333 2.667-1 3.72c-.653 1.053-1.58 1.867-2.78 2.44-1.187.56-2.56.84-4.12.84h-6.9V1zm6.7 10.32c1.013 0 1.82-.287 2.42-.86.613-.587.92-1.407.92-2.46s-.307-1.867-.92-2.44c-.6-.587-1.407-.88-2.42-.88H87.4v6.64h1.98zM99.202 1h4.721v14h-4.72V1zm16.533 11.56h-5.32l-.94 2.44h-4.8l6.12-14h4.64l6.12 14h-4.88l-.94-2.44zm-1.3-3.4l-1.36-3.52-1.36 3.52h2.72z" fill="#272727"/></svg>