<?xml version="1.0" encoding="utf-8"?><svg width="168" height="33" fill="none" xmlns="http://www.w3.org/2000/svg" viewBox="0 0 168 33"><g clip-path="url(#jclip0)"><path d="M98.02 27.698a2023.474 2023.474 0 00-6.347-8.732L89.954 16.6 98.02 5.413a.226.226 0 00-.071-.33.226.226 0 00-.124-.03h-3.967a.227.227 0 00-.184.093l-5.977 8.2-5.945-8.2a.226.226 0 00-.184-.093h-4.001a.227.227 0 00-.195.36l1.418 1.971c1.995 2.778 4.718 6.558 6.645 9.215l-8.063 11.09a.226.226 0 00-.02.238.226.226 0 00.212.124h4.023a.227.227 0 00.184-.093l5.934-8.184 5.978 8.2a.227.227 0 00.183.092h3.97a.226.226 0 00.211-.122.226.226 0 00-.017-.237" fill="#fff"/><path d="M116.962 8.22a11.714 11.714 0 00-8.322-3.486 11.713 11.713 0 00-8.291 3.487 11.908 11.908 0 00-3.42 8.317 11.916 11.916 0 003.418 8.314 11.59 11.59 0 008.293 3.488 11.597 11.597 0 008.324-3.488 11.92 11.92 0 003.419-8.318 11.921 11.921 0 00-3.421-8.32v.007zm-.324 8.314a8.076 8.076 0 01-2.327 5.678 8.111 8.111 0 01-5.679 2.384 7.914 7.914 0 01-5.615-2.384 7.967 7.967 0 01-2.353-5.678 7.976 7.976 0 012.355-5.68 7.903 7.903 0 015.613-2.382 8.108 8.108 0 015.679 2.384 8.081 8.081 0 012.327 5.678zM138.614 5.059h-3.286a.227.227 0 00-.226.226v9.289h-9.098v-9.29c0-.029-.006-.058-.017-.086a.223.223 0 00-.209-.14h-3.259a.224.224 0 00-.16.067.237.237 0 00-.049.073.233.233 0 00-.017.087V27.83a.233.233 0 00.066.16.224.224 0 00.16.066h3.259a.224.224 0 00.16-.066.233.233 0 00.066-.16v-9.579h9.098v9.579a.227.227 0 00.226.226h3.29a.226.226 0 00.227-.226V5.285a.225.225 0 00-.067-.16.226.226 0 00-.16-.066M75.218 5.026h-8.229c-5.209 0-7.58 3.846-7.58 7.421 0 3.537 2.177 6.253 5.583 7.036l-8.907 8.182a.227.227 0 00.154.394h4.232c.057 0 .112-.021.154-.06l9.073-8.393a.227.227 0 00.074-.168V16.39a.226.226 0 00-.227-.226H66.99c-2.66 0-3.87-1.92-3.87-3.708 0-1.788 1.213-3.681 3.87-3.681h4.774v19.062a.226.226 0 00.226.226h3.227a.227.227 0 00.226-.226V5.255a.227.227 0 00-.226-.227M157.879 5.026h-16.903a.227.227 0 00-.226.227v3.29a.227.227 0 00.226.226h6.612v19.158c0 .06.024.118.066.16a.23.23 0 00.161.067h3.258a.227.227 0 00.226-.227V8.775h6.58c.06 0 .118-.024.16-.066a.225.225 0 00.067-.16v-3.29a.225.225 0 00-.067-.16.225.225 0 00-.16-.066" fill="#fff"/><path d="M43.047 12.04L27.107.229A1.16 1.16 0 0026.415 0h-9.31c-.249 0-.492.08-.692.228L.473 12.041a1.159 1.159 0 00-.384 1.37c.065.16.163.301.289.417l20.597 18.95a1.158 1.158 0 001.57 0l20.597-18.95a1.162 1.162 0 00-.095-1.787zm-13.23-.228h-16.08l4.121-9.491h7.829l4.13 9.491zm-.138 2.327l-7.902 15.3-7.9-15.3h15.802zm-18.468-2.327H4.675l9.635-7.14-3.1 7.14zm.055 2.327l6.453 12.496L4.136 14.139h7.13zm21.026 0h7.088L25.877 26.563l6.415-12.424zm.055-2.327l-3.074-7.095 9.574 7.095h-6.5z" fill="#E84F2C"/></g><defs><clipPath id="jclip0"><path fill="#fff" d="M0 0h167.491v33H0z"/></clipPath></defs></svg>