<?xml version="1.0" encoding="utf-8"?><svg width="150" height="35" fill="none" xmlns="http://www.w3.org/2000/svg" viewBox="0 0 150 35"><g clip-path="url(#kclip0)" fill="#0085C3"><path d="M77.094 1.456V31.03h8.946V9.022h9.267l.665-7.566H77.094zM56.788 28.098l4.683-11.288h.468l.986 14.22h8.38L69.53 1.456h-8.232L54.2 18.116h-.468l-7.27-16.66h-8.06L36.48 30.858h8.207l.814-14.22h.492l5.151 11.287 5.644.173zM99.376 8.85h7.59v22.18h8.922V8.85h8.601l.493-7.394h-26.1l.494 7.394zM148.688 24.672c-2.384.33-4.789.495-7.196.493-4.707 0-5.644-1.676-5.644-5.669v-4.929c0-4.165.789-5.668 5.644-5.668a47.8 47.8 0 016.901.493l.468-7.394a64.482 64.482 0 00-7.936-.542c-9.858 0-13.456 3.5-13.456 11.854v7.394c0 9.34 4.387 11.854 13.308 11.854a72.075 72.075 0 008.453-.665l-.542-7.221z"/><path fill-rule="evenodd" clip-rule="evenodd" d="M0 21.16c0 6.86 3.83 13.792 12.422 13.792 8.593 0 12.423-6.918 12.423-13.792a29.315 29.315 0 00-4.21-14.446C18.074 2.504 15 0 12.423 0 9.845 0 6.757 2.505 4.223 6.714A29.199 29.199 0 000 21.16z"/></g><defs><clipPath id="kclip0"><path fill="#fff" d="M0 0h150v34.952H0z"/></clipPath></defs></svg>