<?xml version="1.0" encoding="utf-8"?><svg width="143" height="36" fill="none" xmlns="http://www.w3.org/2000/svg" viewBox="0 0 143 36"><g clip-path="url(#lclip0)" fill-rule="evenodd" clip-rule="evenodd" fill="#E30611"><path d="M90.556 10.918h-8.708V2.5h26.723v8.418h-8.709v22.776h-9.306V10.917zM128.447 10.917h13.674V2.485h-13.674c-12.554 0-19.267 6.277-19.267 15.598 0 9.32 6.699 15.596 19.267 15.596h13.674v-8.432h-13.674c-5.826 0-9.641-2.082-9.641-7.18 0-5.096 3.83-7.15 9.641-7.15zM57.918 21.126L62.9 2.5h16.47v31.194h-9.32V8.296l-6.786 25.398H52.588L45.816 8.325v25.37h-9.32V2.5h16.456l4.966 18.626zM0 21.781c0 6.86 3.83 13.792 12.422 13.792 8.593 0 12.423-6.918 12.423-13.792a29.315 29.315 0 00-4.21-14.446C18.074 3.125 15 .62 12.423.62c-2.577 0-5.665 2.505-8.199 6.714A29.199 29.199 0 000 21.78z"/></g><defs><clipPath id="lclip0"><path fill="#fff" transform="translate(0 .621)" d="M0 0h142.718v34.952H0z"/></clipPath></defs></svg>