<?xml version="1.0" encoding="utf-8"?><svg width="151" height="30" fill="none" xmlns="http://www.w3.org/2000/svg" viewBox="0 0 151 30"><g clip-path="url(#mclip0)" fill="#fff"><path d="M20.091 25.384c-2.57 0-5.106.073-7.627-.034-1.16-.048-.91-1.077-.765-1.795.343-1.701.78-3.386 1.163-5.079.276-1.213.53-2.429.848-3.866-.802-.03-1.605-.021-2.405.029-.212.023-.506.38-.564.628-.78 3.348-1.523 6.695-2.296 10.123-2.388 0-4.855.019-7.319 0-.91-.01-1.271-.552-1.06-1.507A7583.501 7583.501 0 013.699 8.027c.513-2.237 1.047-4.468 1.55-6.709A8.7 8.7 0 005.333.017c2.515 0 5.015-.028 7.513.014.918.015 1.23.628.973 1.78-.354 1.595-.752 3.18-1.117 4.772-.167.736-.3 1.48-.483 2.394.871 0 1.602.037 2.33-.023a.808.808 0 00.554-.494c.655-2.762 1.271-5.535 1.932-8.441 2.352 0 4.884-.03 7.416.016.826.015 1.157.578.985 1.381-.087.408-.26.804-.3 1.214-.14 1.465-.424 2.655-2.4 2.408-.387-.048-1.137.5-1.247.9-.456 1.651-.729 3.348-1.06 5.035l.316.075c.352-1.182.767-2.35 1.04-3.557.257-1.128.888-1.513 2.024-1.503 4.166.042 8.333.02 12.5.02h4.258c-.49 1.642-.954 3.328-1.524 4.977-.1.29-.636.54-.996.607-.582.105-1.195.048-1.794.046-1.683 0-1.668 0-2.017 1.553a9284.784 9284.784 0 01-3.458 15.367c-.098.433-.123.881-.195 1.427-2.36 0-4.79.046-7.217-.02-1.174-.032-1.483-.576-1.205-1.782 1.17-5.153 2.32-10.311 3.544-15.45.212-.919-.05-1.093-.875-1.103-1.724-.019-1.707-.04-2.093 1.674-.77 3.425-1.566 6.842-2.33 10.266-.153.54-.206 1.098-.317 1.814zM90.41 19.81c-1.284 1.737-2.69 3.4-3.814 5.232-.968 1.58-2.201 1.985-3.729 1.598l2.458-10.887h2.934l-1.663 6.721.246.117c.177-.177.345-.362.502-.556 1.272-1.718 2.558-3.421 3.778-5.17.587-.838 1.229-1.373 2.33-1.183.353.04.707.043 1.06.013L91.98 26.596H89.1l1.625-6.672-.314-.113zM57.92 15.233c.96.283 2 .419 2.865.877 1.78.946 1.958 2.643 1.81 4.434-.325 3.961-4.791 7.278-8.721 6.456-2.776-.58-4.011-2.608-3.407-5.585.692-3.422 3.86-5.987 7.453-6.182zm1.642 4.92v-.419c0-1.017-.188-1.98-1.182-2.49-.994-.51-2.006-.274-2.862.377-1.782 1.356-2.242 3.296-2.155 5.37.047 1.123.583 2.11 1.807 2.427 1.18.305 2.14-.222 2.916-1.047 1.112-1.18 1.453-2.65 1.476-4.22v.002zM132.122 26.655h-2.864l2.492-10.904h2.966l-1.161 4.336c1.059 0 1.907.016 2.782-.015a.618.618 0 00.462-.335c.294-1.27.546-2.548.847-3.955h2.93l-2.498 10.837h-2.907l1.233-4.992c-1.025 0-1.83-.03-2.629.018a.79.79 0 00-.595.419c-.375 1.456-.689 2.94-1.058 4.59zM45.576 21.619c-1.048 0-1.921-.032-2.792.025-.187.012-.462.312-.509.52-.324 1.447-.6 2.903-.913 4.466H38.43l2.474-10.862h2.967l-1.174 4.319c1.06 0 1.894.03 2.725-.021a.772.772 0 00.544-.458c.297-1.241.534-2.495.814-3.846h2.95L47.237 26.62h-2.92l1.258-5.001zM122.726 15.69c.684.029 1.368.024 2.051-.015.861-.077 1.077.341 1.164 1.078.326 2.795.688 5.585 1.059 8.37.061.473.212.933.352 1.496h-3.848c.117-.255.324-.5.318-.74-.019-.788 0-1.606-.248-2.334-.07-.21-.949-.21-1.458-.226-2.019-.03-3.019 1.004-3.218 3.327h-2.214c2.046-3.566 4.301-6.978 6.042-10.956zm-1.695 6.254c.875 0 1.431.046 1.973-.025.191-.025.498-.339.489-.506-.05-.906-.184-1.808-.288-2.72l-.303-.061-1.871 3.312zM113.841 22.016c1.025-.822 1.634-1.826 1.729-3.057a2.223 2.223 0 00-.439-1.416c-.438-.563-1.059-.381-1.22.31a463.123 463.123 0 00-1.695 7.52c-.081.364-.011.76-.011 1.236h-3.1l2.475-10.88c1.502 0 3.331-.158 5.121.043 1.791.201 2.481 2.072 1.53 3.821a4.377 4.377 0 01-1.227 1.427 4.446 4.446 0 01-1.72.787c-.47.11-.962.144-1.443.21zM65.957 26.705h-2.152c-.314 0-.636-.025-.848-.036l2.47-10.93c1.53 0 3.331-.118 5.107.035 1.506.13 2.229 1.448 1.86 2.919-.439 1.745-1.638 2.7-3.335 3.122-.392.082-.79.143-1.188.184.474-.837 1.059-1.72 1.483-2.672a1.684 1.684 0 00-.08-1.29c-.172-.338-.636-.533-.978-.79-.197.287-.5.548-.574.864-.555 2.367-1.06 4.744-1.58 7.115-.1.43-.113.88-.185 1.479zM150.591 17.588c-3.162-1.548-5.367.195-6.024 2.69a9.712 9.712 0 00-.392 2.35c-.017 1.99 1.561 3.236 3.523 2.818.924-.197 1.823-.513 2.814-.798-.519 1.13-.958 2.25-2.542 2.242-.945 0-1.907.234-2.831.131-3.144-.35-4.661-2.628-3.776-5.9 1.081-4.045 4.316-6.242 8.942-5.623.817.109.911.814.286 2.09zM81.768 24.7c-.39 1.442-1.23 2.212-2.647 2.223-1.22 0-2.472.102-3.659-.122-1.907-.36-3.415-2.396-2.818-5.292.782-3.793 4.036-6.786 9.045-5.99.757.119.835.655.329 2.059-.545-.183-1.08-.454-1.642-.534-1.742-.249-3.178.418-3.916 2.01-.51 1.1-.817 2.282-.907 3.489-.127 2.113 1.517 3.348 3.617 2.875.856-.192 1.674-.47 2.598-.718zM104.417 26.644h-3.14l2.234-9.368-2.683.286c.439-1.845.475-1.873 2.485-1.87 2.011.002 4.001 0 6.223 0l-.847 1.86a1.358 1.358 0 01-.316 0c-1.924-.513-2.021-.484-2.483 1.414-.526 2.162-1 4.334-1.468 6.508-.07.354-.005.728-.005 1.17zM100.281 20.51c-.058 1.694-.166 1.8-1.738 1.8h-3.05c.152-1.7.258-1.797 1.84-1.8h2.948z"/></g><defs><clipPath id="mclip0"><path fill="#fff" d="M0 0h151v30H0z"/></clipPath></defs></svg>