<?xml version="1.0" encoding="utf-8"?><svg xmlns="http://www.w3.org/2000/svg" viewBox="0 0 37 19.5" width="37" height="19.5"><defs><style>.ncls-1{fill:#272727}</style></defs><g id="nСлой_2" data-name="Слой 2"><path class="ncls-1" d="M27 19.5a1.27 1.27 0 01-.9-.38 1.25 1.25 0 010-1.77L32.66 11H1.25a1.25 1.25 0 010-2.5h31.41l-6.58-6.35a1.25 1.25 0 111.74-1.8l8.79 8.5a1.07 1.07 0 01.25.35v.06a1.27 1.27 0 01.09.43v.08a1.27 1.27 0 01-.09.43v.06a1.07 1.07 0 01-.25.35l-8.79 8.5a1.27 1.27 0 01-.82.39z" id="nСлой_1-2" data-name="Слой 1"/></g></svg>