<?xml version="1.0" encoding="utf-8"?><svg viewBox="0 0 835.25 900" xmlns="http://www.w3.org/2000/svg" xmlns:xlink="http://www.w3.org/1999/xlink"><style>:root>svg{display:none}:root>svg:target{display:block}</style><svg viewBox="0 83 70 830" fill="none" id="border" xmlns="http://www.w3.org/2000/svg"><path fill="#152837" d="M105.691 1053L-39.002 859.331l21.296-15.91 144.693 193.669zM105.691 970L-39.002 776.331l21.296-15.91L126.987 954.09zM105.691 887L-39.002 693.331l21.296-15.91L126.987 871.09zM105.691 804L-39.002 610.331l21.296-15.91L126.987 788.09zM105.691 721L-39.002 527.331l21.296-15.91L126.987 705.09zM105.691 638L-39.002 444.331l21.296-15.91L126.987 622.09zM105.691 555L-39.002 361.331l21.296-15.91L126.987 539.09zM105.691 472L-39.002 278.331l21.296-15.91L126.987 456.09zM105.691 389L-39.002 195.331l21.296-15.91L126.987 373.09zM105.691 306L-39.002 112.331l21.296-15.91L126.987 290.09zM105.691 223L-39.002 29.331l21.296-15.91L126.987 207.09zM105.691 140L-39.002-53.669l21.296-15.91L126.987 124.09z"/></svg><svg fill="none" viewBox="0 0 70 900" id="border2" xmlns="http://www.w3.org/2000/svg"><path fill="#152837" d="M-35.691-179L109 14.67 87.705 30.58-56.987-163.09zM-35.691-96L109 97.67l-21.296 15.91L-56.987-80.09zM-35.691-13L109 180.67l-21.296 15.91L-56.987 2.91zM-35.691 70L109 263.67l-21.296 15.91L-56.987 85.91zM-35.691 153L109 346.67l-21.296 15.91-144.692-193.67zM-35.691 236L109 429.67l-21.296 15.91-144.692-193.67zM-35.691 319L109 512.67l-21.296 15.91-144.692-193.67zM-35.691 402L109 595.67l-21.296 15.91-144.692-193.67zM-35.691 485L109 678.67l-21.296 15.91-144.692-193.67zM-35.691 568L109 761.67l-21.296 15.91-144.692-193.67zM-35.691 651L109 844.67l-21.296 15.91-144.692-193.67zM-35.691 734L109 927.67l-21.296 15.91-144.692-193.67zM-35.691 817L109 1010.67l-21.296 15.91-144.692-193.67z"/></svg><svg fill="none" viewBox="0 0 70 900" id="border3" xmlns="http://www.w3.org/2000/svg"><path fill="#152837" d="M105.691 1053L-39.002 859.331l21.296-15.91 144.693 193.669zM105.691 970L-39.002 776.331l21.296-15.91L126.987 954.09zM105.691 887L-39.002 693.331l21.296-15.91L126.987 871.09zM105.691 804L-39.002 610.331l21.296-15.91L126.987 788.09zM105.691 721L-39.002 527.331l21.296-15.91L126.987 705.09zM105.691 638L-39.002 444.331l21.296-15.91L126.987 622.09zM105.691 555L-39.002 361.331l21.296-15.91L126.987 539.09zM105.691 472L-39.002 278.331l21.296-15.91L126.987 456.09zM105.691 389L-39.002 195.331l21.296-15.91L126.987 373.09zM105.691 306L-39.002 112.331l21.296-15.91L126.987 290.09zM105.691 223L-39.002 29.331l21.296-15.91L126.987 207.09zM105.691 140L-39.002-53.669l21.296-15.91L126.987 124.09z"/></svg><svg fill="none" viewBox="0 0 30 30" id="close" xmlns="http://www.w3.org/2000/svg"><path d="M30 2.625L27.375 0 15 12.375 2.625 0 0 2.625 12.375 15 0 27.375 2.625 30 15 17.625 27.375 30 30 27.375 17.625 15 30 2.625z" fill="#000"/></svg><svg fill="none" viewBox="0 0 101 35" id="copyright" xmlns="http://www.w3.org/2000/svg"><path d="M31.927 2v5h-.672V2h-1.864v-.584h4.4V2h-1.864zm4.533 5.096c-.298 0-.568-.05-.808-.152a1.758 1.758 0 01-.608-.432 2.066 2.066 0 01-.384-.68 2.745 2.745 0 01-.136-.888c0-.33.046-.63.136-.896.096-.267.227-.493.392-.68.166-.192.363-.339.592-.44.235-.101.494-.152.776-.152.278 0 .528.05.752.152.23.101.424.243.584.424.16.176.283.387.368.632.086.245.128.515.128.808v.304h-3.056v.192c0 .181.03.35.088.504.059.155.142.288.248.4.112.112.246.2.4.264.16.059.336.088.528.088.278 0 .518-.064.72-.192.203-.128.358-.304.464-.528l.472.32a1.552 1.552 0 01-.616.688c-.282.176-.63.264-1.04.264zm-.04-3.792a1.226 1.226 0 00-.88.36 1.285 1.285 0 00-.256.4c-.058.15-.088.315-.088.496v.056h2.368v-.088c0-.181-.03-.347-.088-.496a1.075 1.075 0 00-.232-.384.926.926 0 00-.36-.256 1.18 1.18 0 00-.464-.088zM39.273 7l1.536-2.096-1.496-2.032h.768l.624.872.496.688h.032l.48-.688.616-.872h.736l-1.512 2.024L43.105 7h-.768l-.696-.968-.472-.656h-.032l-.456.656L40.01 7h-.736zm5.069-4.128h.64V4.6h2V2.872h.64V7h-.64V5.144h-2V7h-.64V2.872zm6.437 4.224c-.288 0-.55-.05-.784-.152a1.698 1.698 0 01-.592-.432 2.036 2.036 0 01-.368-.68 2.933 2.933 0 01-.128-.896c0-.325.043-.621.128-.888s.208-.493.368-.68c.165-.192.363-.339.592-.44.235-.101.496-.152.784-.152.288 0 .547.05.776.152.235.101.432.248.592.44.165.187.29.413.376.68.085.267.128.563.128.888 0 .33-.043.63-.128.896-.085.261-.21.488-.376.68-.16.187-.357.33-.592.432a1.9 1.9 0 01-.776.152zm0-.552c.357 0 .645-.107.864-.32.219-.213.328-.544.328-.992V4.64c0-.448-.11-.779-.328-.992-.219-.213-.507-.32-.864-.32s-.645.107-.864.32c-.219.213-.328.544-.328.992v.592c0 .448.11.779.328.992.219.213.507.32.864.32zm2.605-.088h.512c.08-.101.15-.221.208-.36.064-.139.114-.304.152-.496.042-.192.074-.413.096-.664.021-.256.032-.552.032-.888V2.872h2.744V7h-.64V3.416h-1.48v.648c0 .747-.056 1.333-.168 1.76-.107.421-.25.723-.432.904a.885.885 0 01-.336.216c-.123.037-.27.056-.44.056h-.248v-.544zm6.989.64c-.288 0-.55-.05-.784-.152a1.698 1.698 0 01-.592-.432 2.036 2.036 0 01-.368-.68 2.93 2.93 0 01-.128-.896c0-.325.042-.621.128-.888.085-.267.208-.493.368-.68.165-.192.362-.339.592-.44.234-.101.496-.152.784-.152.288 0 .546.05.776.152.234.101.432.248.592.44.165.187.29.413.376.68.085.267.128.563.128.888 0 .33-.043.63-.128.896-.086.261-.211.488-.376.68-.16.187-.358.33-.592.432-.23.101-.488.152-.776.152zm0-.552c.357 0 .645-.107.864-.32.218-.213.328-.544.328-.992V4.64c0-.448-.11-.779-.328-.992-.219-.213-.507-.32-.864-.32-.358 0-.646.107-.864.32-.219.213-.328.544-.328.992v.592c0 .448.109.779.328.992.218.213.506.32.864.32zm3.477-3.672h2.96v.544h-2.32V7h-.64V2.872zm4.476 0h.64v2.104l-.064 1.056h.032l2.072-3.16h.6V7h-.64V4.896l.064-1.056h-.032L68.926 7h-.6V2.872zm7.317 2.232h-.04c-.15.165-.32.29-.512.376-.186.08-.426.12-.72.12-.448 0-.79-.104-1.024-.312-.23-.213-.344-.533-.344-.96V2.872h.64v1.4c0 .256.072.445.216.568.144.123.379.184.704.184.32 0 .579-.04.776-.12.203-.085.304-.213.304-.384V2.872h.64V7h-.64V5.104zm3.99 1.992c-.3 0-.569-.05-.809-.152a1.758 1.758 0 01-.608-.432 2.066 2.066 0 01-.384-.68 2.745 2.745 0 01-.136-.888c0-.33.046-.63.136-.896.096-.267.227-.493.392-.68.165-.192.363-.339.592-.44.235-.101.493-.152.776-.152.278 0 .528.05.752.152.23.101.424.243.584.424.16.176.283.387.368.632.085.245.128.515.128.808v.304h-3.056v.192c0 .181.03.35.088.504.059.155.141.288.248.4.112.112.246.2.4.264.16.059.336.088.528.088.277 0 .517-.064.72-.192.203-.128.358-.304.464-.528l.472.32a1.552 1.552 0 01-.616.688c-.282.176-.63.264-1.04.264zm-.04-3.792a1.226 1.226 0 00-.88.36 1.285 1.285 0 00-.257.4c-.059.15-.088.315-.088.496v.056h2.368v-.088c0-.181-.03-.347-.088-.496a1.075 1.075 0 00-.232-.384.926.926 0 00-.36-.256 1.18 1.18 0 00-.464-.088zM84.5 7.096a2 2 0 01-.8-.152 1.707 1.707 0 01-.584-.44 1.94 1.94 0 01-.368-.68 3.083 3.083 0 01-.12-.888c0-.325.043-.621.128-.888a1.94 1.94 0 01.368-.68c.16-.192.355-.339.584-.44.23-.101.49-.152.784-.152.4 0 .725.088.976.264.25.176.435.405.552.688L85.509 4a.956.956 0 00-.376-.496 1.104 1.104 0 00-.64-.176c-.187 0-.355.032-.504.096a.996.996 0 00-.368.256 1.145 1.145 0 00-.232.4 1.693 1.693 0 00-.072.504v.704c0 .181.024.35.072.504a1.065 1.065 0 00.608.664c.15.059.32.088.512.088.277 0 .507-.064.688-.192.181-.128.325-.304.432-.528l.456.312a1.628 1.628 0 01-.576.688c-.256.181-.592.272-1.008.272zm3.109-4.224h.64V4.6h.88l1.112-1.728h.664L89.898 4.44c-.09.139-.17.237-.24.296a.716.716 0 01-.248.12v.032a.568.568 0 01.272.112c.075.053.152.15.232.288l.672 1.168h.464V7h-.464a.59.59 0 01-.36-.112 1.237 1.237 0 01-.304-.368l-.792-1.376h-.88V7h-.64V2.872zm4.7 0h.64v2.104l-.063 1.056h.032l2.072-3.16h.6V7h-.64V4.896l.064-1.056h-.032L92.91 7h-.6V2.872zm4.798 0h.64v2.104l-.064 1.056h.032l2.072-3.16h.6V7h-.64V4.896l.064-1.056h-.032L97.708 7h-.6V2.872zm1.616-.632c-.272 0-.494-.059-.664-.176-.171-.123-.32-.312-.448-.568l-.224-.456.576-.184.32.848a.78.78 0 00.216.04 3.65 3.65 0 00.448 0 .78.78 0 00.216-.04l.32-.848.576.184-.224.456c-.128.256-.278.445-.448.568-.171.117-.392.176-.664.176zm-30.382 9.632h3.248V16h-.64v-3.584h-1.968V16h-.64v-4.128zM76.323 16c-.25 0-.43-.064-.536-.192a.932.932 0 01-.2-.48h-.04c-.09.24-.237.43-.44.568-.197.133-.464.2-.8.2-.432 0-.776-.112-1.032-.336-.256-.224-.384-.53-.384-.92 0-.384.139-.68.416-.888.283-.208.736-.312 1.36-.312h.88v-.408c0-.304-.085-.53-.256-.68-.17-.155-.413-.232-.728-.232-.277 0-.504.056-.68.168a1.2 1.2 0 00-.424.44l-.432-.32c.054-.107.126-.21.216-.312.09-.101.203-.19.336-.264.134-.08.286-.141.456-.184.17-.048.36-.072.568-.072.486 0 .87.123 1.152.368.288.245.432.587.432 1.024v2.272h.576V16h-.44zm-1.904-.44c.166 0 .315-.019.448-.056a1.5 1.5 0 00.36-.16.761.761 0 00.232-.24.574.574 0 00.088-.304v-.68h-.88c-.384 0-.664.053-.84.16a.512.512 0 00-.264.464v.168c0 .213.075.376.224.488.155.107.366.16.632.16zm3.501-3.688h.64v.672h.032c.267-.512.69-.768 1.272-.768.507 0 .901.19 1.184.568.288.379.432.91.432 1.592 0 .683-.144 1.213-.432 1.592-.282.379-.677.568-1.184.568-.581 0-1.005-.256-1.272-.768h-.032V17.6h-.64v-5.728zm1.696 3.656c.374 0 .662-.112.864-.336.208-.23.312-.53.312-.904v-.704c0-.373-.104-.672-.312-.896-.203-.23-.49-.344-.864-.344-.144 0-.28.019-.408.056a.993.993 0 00-.336.168.79.79 0 00-.232.264.762.762 0 00-.08.36v1.488c0 .139.027.261.08.368a.91.91 0 00.232.264c.096.07.208.123.336.16.128.037.264.056.408.056zm4.421-3.112h-1.52v-.544h3.68v.544h-1.52V16h-.64v-3.584zm3.477-.544h.64V13.6h2v-1.728h.64V16h-.64v-1.856h-2V16h-.64v-4.128zm6.509 4.224c-.299 0-.568-.05-.808-.152a1.757 1.757 0 01-.608-.432 2.067 2.067 0 01-.384-.68 2.745 2.745 0 01-.136-.888c0-.33.045-.63.136-.896.096-.267.226-.493.392-.68.165-.192.362-.339.592-.44.234-.101.493-.152.776-.152.277 0 .528.05.752.152.23.101.424.243.584.424.16.176.282.387.368.632.085.245.128.515.128.808v.304h-3.056v.192c0 .181.03.35.088.504.058.155.141.288.248.4.112.112.245.2.4.264.16.059.336.088.528.088.277 0 .517-.064.72-.192.202-.128.357-.304.464-.528l.472.32a1.552 1.552 0 01-.616.688c-.283.176-.63.264-1.04.264zm-.04-3.792a1.226 1.226 0 00-.88.36 1.285 1.285 0 00-.256.4c-.059.15-.088.315-.088.496v.056h2.368v-.088c0-.181-.03-.347-.088-.496a1.076 1.076 0 00-.232-.384.926.926 0 00-.36-.256 1.18 1.18 0 00-.464-.088zm-.76-1.248c-.166 0-.283-.035-.352-.104a.357.357 0 01-.104-.264v-.112c0-.107.034-.195.104-.264.07-.07.186-.104.352-.104.165 0 .282.035.352.104.07.07.104.157.104.264v.112a.358.358 0 01-.104.264c-.07.07-.187.104-.352.104zm1.488 0c-.166 0-.283-.035-.352-.104a.357.357 0 01-.104-.264v-.112c0-.107.034-.195.104-.264.07-.07.186-.104.352-.104.165 0 .282.035.352.104.07.07.104.157.104.264v.112a.358.358 0 01-.104.264c-.07.07-.187.104-.352.104zm2.397.816h.64v.672h.032c.266-.512.69-.768 1.272-.768.506 0 .901.19 1.184.568.288.379.432.91.432 1.592 0 .683-.144 1.213-.432 1.592-.283.379-.678.568-1.184.568-.582 0-1.006-.256-1.272-.768h-.032V17.6h-.64v-5.728zm1.696 3.656c.373 0 .661-.112.864-.336.208-.23.312-.53.312-.904v-.704c0-.373-.104-.672-.312-.896-.203-.23-.491-.344-.864-.344-.144 0-.28.019-.408.056a.993.993 0 00-.336.168.79.79 0 00-.232.264.762.762 0 00-.08.36v1.488c0 .139.026.261.08.368a.91.91 0 00.232.264c.096.07.208.123.336.16.128.037.264.056.408.056z" fill="#fff"/><g clip-path="url(#eclip0)" fill="#fff"><path d="M13.304 31.022c-1.702 0-3.381.05-5.051-.022-.768-.032-.602-.723-.507-1.204.228-1.14.517-2.27.77-3.405.183-.814.352-1.63.562-2.594-.53-.02-1.062-.013-1.593.02-.14.015-.335.255-.373.421-.516 2.245-1.009 4.49-1.52 6.789-1.582 0-3.216.012-4.847 0-.604-.007-.842-.37-.702-1.01.798-3.546 1.6-7.09 2.405-10.634.34-1.5.693-2.996 1.026-4.498.04-.29.06-.581.057-.873 1.666 0 3.322-.019 4.976.01.607.01.814.42.644 1.194-.234 1.069-.498 2.131-.74 3.199-.11.494-.199.992-.32 1.605.577 0 1.061.025 1.544-.015a.532.532 0 00.366-.331c.434-1.853.842-3.712 1.28-5.66 1.557 0 3.234-.02 4.911.01.547.01.766.388.653.926-.058.274-.173.54-.2.814-.092.983-.28 1.78-1.588 1.615-.257-.032-.754.336-.827.604-.301 1.107-.482 2.245-.701 3.376l.209.05c.233-.793.508-1.575.689-2.385.17-.757.588-1.015 1.34-1.008 2.759.028 5.519.013 8.279.013h2.819c-.324 1.102-.632 2.232-1.01 3.338-.065.194-.42.362-.659.407-.386.07-.791.032-1.188.03-1.114 0-1.104 0-1.336 1.042-.76 3.436-1.524 6.87-2.29 10.305-.065.29-.081.59-.13.957-1.562 0-3.172.03-4.778-.014-.778-.021-.982-.386-.799-1.194.775-3.456 1.537-6.915 2.348-10.361.14-.616-.034-.733-.58-.74-1.142-.012-1.13-.026-1.386 1.123-.51 2.297-1.037 4.588-1.544 6.884-.1.362-.136.736-.209 1.216zM59.874 27.285c-.85 1.164-1.782 2.28-2.526 3.507-.64 1.06-1.457 1.332-2.47 1.072l1.629-7.3h1.943l-1.102 4.507.163.078c.117-.118.228-.243.333-.373.842-1.152 1.693-2.294 2.502-3.467.388-.561.814-.92 1.543-.793a3.5 3.5 0 00.702.008l-1.677 7.311h-1.908l1.076-4.475-.208-.075zM38.352 24.215c.636.19 1.325.28 1.897.588 1.179.634 1.297 1.772 1.198 2.973-.214 2.656-3.172 4.88-5.775 4.329-1.838-.389-2.656-1.748-2.256-3.745.459-2.294 2.556-4.015 4.936-4.145zm1.088 3.299v-.28c0-.683-.125-1.328-.783-1.67-.658-.343-1.33-.184-1.896.252-1.18.91-1.485 2.21-1.427 3.6.03.754.386 1.416 1.197 1.628.781.205 1.417-.149 1.93-.701.737-.792.963-1.778.979-2.83zM87.499 31.874h-1.897l1.65-7.311h1.964l-.769 2.907c.702 0 1.263.011 1.843-.01a.407.407 0 00.305-.225c.195-.851.362-1.709.562-2.651h1.94l-1.654 7.267h-1.925l.817-3.348c-.68 0-1.213-.02-1.742.012a.524.524 0 00-.394.28c-.248.977-.456 1.972-.7 3.08zM30.182 28.498c-.694 0-1.273-.021-1.85.017-.123.008-.305.209-.336.349-.215.97-.397 1.946-.605 2.994H25.45l1.64-7.284h1.964l-.778 2.897c.702 0 1.255.02 1.805-.014a.507.507 0 00.36-.308c.197-.832.354-1.672.54-2.579h1.952l-1.65 7.281H29.35l.833-3.353zM81.275 24.522c.453.02.906.016 1.359-.01.57-.052.712.229.77.723a353.7 353.7 0 00.702 5.612c.04.317.14.626.232 1.004H81.79c.077-.172.215-.336.21-.497-.012-.528 0-1.076-.163-1.565-.047-.14-.63-.14-.966-.151-1.337-.02-2 .673-2.131 2.23h-1.467c1.356-2.39 2.849-4.679 4.002-7.346zm-1.122 4.194c.58 0 .947.03 1.306-.017.126-.017.33-.227.324-.34-.033-.607-.122-1.212-.19-1.824l-.201-.04-1.24 2.22zM75.39 28.764c.68-.552 1.082-1.226 1.145-2.05a1.504 1.504 0 00-.29-.95c-.29-.378-.702-.256-.809.207-.388 1.678-.762 3.36-1.122 5.043-.054.244-.007.51-.007.83h-2.053l1.639-7.297c.995 0 2.206-.105 3.391.03 1.186.134 1.643 1.389 1.013 2.562a2.925 2.925 0 01-1.951 1.484c-.312.075-.638.097-.956.14zM43.682 31.908h-1.425c-.208 0-.421-.017-.562-.024l1.636-7.33c1.013 0 2.206-.078 3.382.024.998.087 1.476.971 1.232 1.957-.29 1.17-1.085 1.81-2.209 2.094-.26.055-.522.096-.787.123.315-.56.702-1.153.983-1.791a1.142 1.142 0 00-.054-.865c-.114-.227-.42-.358-.647-.53-.13.192-.33.367-.38.58-.368 1.586-.701 3.18-1.047 4.77-.066.29-.074.59-.122.992zM99.73 25.795c-2.094-1.038-3.555.13-3.99 1.803a6.603 6.603 0 00-.26 1.576c-.01 1.335 1.035 2.17 2.334 1.89.612-.132 1.207-.343 1.864-.534-.344.757-.635 1.508-1.684 1.502-.626 0-1.263.158-1.875.089-2.082-.234-3.087-1.763-2.5-3.957.715-2.712 2.858-4.186 5.921-3.77.542.073.603.545.19 1.401zM54.153 30.564c-.258.967-.814 1.483-1.752 1.49-.809 0-1.638.069-2.424-.081-1.262-.242-2.261-1.607-1.866-3.549.518-2.544 2.673-4.55 5.99-4.017.501.08.553.439.218 1.38-.36-.122-.716-.304-1.088-.357-1.153-.167-2.104.28-2.593 1.348a6.81 6.81 0 00-.6 2.34c-.084 1.416 1.004 2.244 2.395 1.927.567-.129 1.108-.316 1.72-.481zM69.15 31.868h-2.08l1.48-6.282-1.777.192c.29-1.238.315-1.256 1.646-1.255 1.332.002 2.65 0 4.121 0l-.56 1.248a.89.89 0 01-.21 0c-1.274-.344-1.338-.324-1.644.948-.348 1.45-.663 2.906-.973 4.364-.046.238-.003.489-.003.785zM66.413 27.754c-.037 1.135-.11 1.207-1.15 1.207h-2.02c.1-1.141.17-1.206 1.219-1.207h1.951z"/></g><defs><clipPath id="eclip0"><path fill="#fff" transform="translate(0 14)" d="M0 0h100v20.117H0z"/></clipPath></defs></svg><svg fill="none" viewBox="0 0 13 11" id="enter" xmlns="http://www.w3.org/2000/svg"><path fill-rule="evenodd" clip-rule="evenodd" d="M8.147 3.647a.5.5 0 01.708 0l3 3a.5.5 0 010 .708l-3 3a.5.5 0 11-.708-.708L10.794 7 8.147 4.355a.5.5 0 010-.708z" fill="#fff"/><path fill-rule="evenodd" clip-rule="evenodd" d="M1 .5a.5.5 0 00-.5.5v4A2.5 2.5 0 003 7.5h8.5a.5.5 0 000-1H3A1.5 1.5 0 011.5 5V1A.5.5 0 001 .5z" fill="#fff"/></svg><svg fill="none" viewBox="0 0 30 30" id="facebook" xmlns="http://www.w3.org/2000/svg"><path fill="#fff" d="M0 0h30v30H0z"/><path d="M16.402 11.6V9.56c0-.883.204-1.36 1.632-1.36h1.768V4.8h-2.72c-3.4 0-4.76 2.245-4.76 4.76v2.04h-2.72V15h2.72v10.2h4.08V15h2.992l.408-3.4h-3.4z" fill="#152837"/></svg><svg fill="none" viewBox="0 0 44 33" id="favicon" xmlns="http://www.w3.org/2000/svg"><path d="M43.047 12.04L27.107.229A1.16 1.16 0 0026.415 0h-9.31c-.249 0-.492.08-.692.228L.473 12.041a1.159 1.159 0 00-.384 1.37c.065.16.163.301.289.417l20.597 18.95a1.158 1.158 0 001.57 0l20.597-18.95a1.162 1.162 0 00-.095-1.787zm-13.23-.228h-16.08l4.121-9.491h7.829l4.13 9.491zm-.138 2.327l-7.902 15.3-7.9-15.3h15.802zm-18.468-2.327H4.675l9.635-7.14-3.1 7.14zm.055 2.327l6.453 12.496L4.136 14.139h7.13zm21.026 0h7.088L25.877 26.563l6.415-12.424zm.055-2.327l-3.074-7.095 9.574 7.095h-6.5z" fill="#E84F2C"/></svg><svg fill="none" viewBox="0 0 30 30" id="instagram" xmlns="http://www.w3.org/2000/svg"><path fill="#fff" d="M0 0h30v30H0z"/><path d="M14.998 9.767a5.226 5.226 0 00-5.233 5.234 5.226 5.226 0 005.233 5.233 5.226 5.226 0 005.234-5.233 5.226 5.226 0 00-5.234-5.234zm0 8.635a3.409 3.409 0 01-3.401-3.401 3.409 3.409 0 013.401-3.402 3.409 3.409 0 013.402 3.402 3.409 3.409 0 01-3.402 3.401zm5.448-10.069a1.22 1.22 0 00-1.222 1.222 1.22 1.22 0 001.222 1.223 1.22 1.22 0 001.13-1.69 1.222 1.222 0 00-1.13-.755zm4.754 6.668c0-1.409.013-2.805-.066-4.21-.08-1.634-.452-3.083-1.646-4.277-1.197-1.197-2.644-1.567-4.277-1.646-1.408-.08-2.804-.066-4.21-.066-1.409 0-2.805-.013-4.21.066-1.634.079-3.083.452-4.277 1.646C5.317 7.71 4.947 9.157 4.868 10.79c-.08 1.409-.066 2.805-.066 4.21 0 1.407-.013 2.805.066 4.211.079 1.633.452 3.083 1.646 4.277 1.197 1.197 2.643 1.567 4.276 1.646 1.409.079 2.805.066 4.21.066 1.41 0 2.805.013 4.211-.066 1.633-.08 3.083-.452 4.277-1.646 1.197-1.197 1.567-2.644 1.646-4.277.081-1.406.066-2.802.066-4.21zm-2.245 6.017c-.187.464-.411.811-.771 1.168-.36.36-.704.585-1.169.771-1.342.533-4.53.413-6.017.413s-4.677.12-6.02-.41a3.243 3.243 0 01-1.168-.771 3.265 3.265 0 01-.77-1.169c-.531-1.345-.411-4.532-.411-6.02 0-1.487-.12-4.677.41-6.019.187-.464.411-.811.771-1.168.36-.358.704-.585 1.169-.771 1.342-.53 4.532-.41 6.02-.41 1.487 0 4.676-.12 6.019.41.464.186.811.41 1.168.77.36.36.585.705.771 1.17.53 1.341.41 4.531.41 6.019 0 1.487.12 4.675-.413 6.017z" fill="#152837"/></svg><svg fill="none" viewBox="0 0 168 33" id="logo" xmlns="http://www.w3.org/2000/svg"><g clip-path="url(#jclip0)"><path d="M98.02 27.698a2023.474 2023.474 0 00-6.347-8.732L89.954 16.6 98.02 5.413a.226.226 0 00-.071-.33.226.226 0 00-.124-.03h-3.967a.227.227 0 00-.184.093l-5.977 8.2-5.945-8.2a.226.226 0 00-.184-.093h-4.001a.227.227 0 00-.195.36l1.418 1.971c1.995 2.778 4.718 6.558 6.645 9.215l-8.063 11.09a.226.226 0 00-.02.238.226.226 0 00.212.124h4.023a.227.227 0 00.184-.093l5.934-8.184 5.978 8.2a.227.227 0 00.183.092h3.97a.226.226 0 00.211-.122.226.226 0 00-.017-.237" fill="#fff"/><path d="M116.962 8.22a11.714 11.714 0 00-8.322-3.486 11.713 11.713 0 00-8.291 3.487 11.908 11.908 0 00-3.42 8.317 11.916 11.916 0 003.418 8.314 11.59 11.59 0 008.293 3.488 11.597 11.597 0 008.324-3.488 11.92 11.92 0 003.419-8.318 11.921 11.921 0 00-3.421-8.32v.007zm-.324 8.314a8.076 8.076 0 01-2.327 5.678 8.111 8.111 0 01-5.679 2.384 7.914 7.914 0 01-5.615-2.384 7.967 7.967 0 01-2.353-5.678 7.976 7.976 0 012.355-5.68 7.903 7.903 0 015.613-2.382 8.108 8.108 0 015.679 2.384 8.081 8.081 0 012.327 5.678zM138.614 5.059h-3.286a.227.227 0 00-.226.226v9.289h-9.098v-9.29c0-.029-.006-.058-.017-.086a.223.223 0 00-.209-.14h-3.259a.224.224 0 00-.16.067.237.237 0 00-.049.073.233.233 0 00-.017.087V27.83a.233.233 0 00.066.16.224.224 0 00.16.066h3.259a.224.224 0 00.16-.066.233.233 0 00.066-.16v-9.579h9.098v9.579a.227.227 0 00.226.226h3.29a.226.226 0 00.227-.226V5.285a.225.225 0 00-.067-.16.226.226 0 00-.16-.066M75.218 5.026h-8.229c-5.209 0-7.58 3.846-7.58 7.421 0 3.537 2.177 6.253 5.583 7.036l-8.907 8.182a.227.227 0 00.154.394h4.232c.057 0 .112-.021.154-.06l9.073-8.393a.227.227 0 00.074-.168V16.39a.226.226 0 00-.227-.226H66.99c-2.66 0-3.87-1.92-3.87-3.708 0-1.788 1.213-3.681 3.87-3.681h4.774v19.062a.226.226 0 00.226.226h3.227a.227.227 0 00.226-.226V5.255a.227.227 0 00-.226-.227M157.879 5.026h-16.903a.227.227 0 00-.226.227v3.29a.227.227 0 00.226.226h6.612v19.158c0 .06.024.118.066.16a.23.23 0 00.161.067h3.258a.227.227 0 00.226-.227V8.775h6.58c.06 0 .118-.024.16-.066a.225.225 0 00.067-.16v-3.29a.225.225 0 00-.067-.16.225.225 0 00-.16-.066" fill="#fff"/><path d="M43.047 12.04L27.107.229A1.16 1.16 0 0026.415 0h-9.31c-.249 0-.492.08-.692.228L.473 12.041a1.159 1.159 0 00-.384 1.37c.065.16.163.301.289.417l20.597 18.95a1.158 1.158 0 001.57 0l20.597-18.95a1.162 1.162 0 00-.095-1.787zm-13.23-.228h-16.08l4.121-9.491h7.829l4.13 9.491zm-.138 2.327l-7.902 15.3-7.9-15.3h15.802zm-18.468-2.327H4.675l9.635-7.14-3.1 7.14zm.055 2.327l6.453 12.496L4.136 14.139h7.13zm21.026 0h7.088L25.877 26.563l6.415-12.424zm.055-2.327l-3.074-7.095 9.574 7.095h-6.5z" fill="#E84F2C"/></g><defs><clipPath id="jclip0"><path fill="#fff" d="M0 0h167.491v33H0z"/></clipPath></defs></svg><svg fill="none" viewBox="0 0 150 35" id="mgts" xmlns="http://www.w3.org/2000/svg"><g clip-path="url(#kclip0)" fill="#0085C3"><path d="M77.094 1.456V31.03h8.946V9.022h9.267l.665-7.566H77.094zM56.788 28.098l4.683-11.288h.468l.986 14.22h8.38L69.53 1.456h-8.232L54.2 18.116h-.468l-7.27-16.66h-8.06L36.48 30.858h8.207l.814-14.22h.492l5.151 11.287 5.644.173zM99.376 8.85h7.59v22.18h8.922V8.85h8.601l.493-7.394h-26.1l.494 7.394zM148.688 24.672c-2.384.33-4.789.495-7.196.493-4.707 0-5.644-1.676-5.644-5.669v-4.929c0-4.165.789-5.668 5.644-5.668a47.8 47.8 0 016.901.493l.468-7.394a64.482 64.482 0 00-7.936-.542c-9.858 0-13.456 3.5-13.456 11.854v7.394c0 9.34 4.387 11.854 13.308 11.854a72.075 72.075 0 008.453-.665l-.542-7.221z"/><path fill-rule="evenodd" clip-rule="evenodd" d="M0 21.16c0 6.86 3.83 13.792 12.422 13.792 8.593 0 12.423-6.918 12.423-13.792a29.315 29.315 0 00-4.21-14.446C18.074 2.504 15 0 12.423 0 9.845 0 6.757 2.505 4.223 6.714A29.199 29.199 0 000 21.16z"/></g><defs><clipPath id="kclip0"><path fill="#fff" d="M0 0h150v34.952H0z"/></clipPath></defs></svg><svg fill="none" viewBox="0 0 143 36" id="mts" xmlns="http://www.w3.org/2000/svg"><g clip-path="url(#lclip0)" fill-rule="evenodd" clip-rule="evenodd" fill="#E30611"><path d="M90.556 10.918h-8.708V2.5h26.723v8.418h-8.709v22.776h-9.306V10.917zM128.447 10.917h13.674V2.485h-13.674c-12.554 0-19.267 6.277-19.267 15.598 0 9.32 6.699 15.596 19.267 15.596h13.674v-8.432h-13.674c-5.826 0-9.641-2.082-9.641-7.18 0-5.096 3.83-7.15 9.641-7.15zM57.918 21.126L62.9 2.5h16.47v31.194h-9.32V8.296l-6.786 25.398H52.588L45.816 8.325v25.37h-9.32V2.5h16.456l4.966 18.626zM0 21.781c0 6.86 3.83 13.792 12.422 13.792 8.593 0 12.423-6.918 12.423-13.792a29.315 29.315 0 00-4.21-14.446C18.074 3.125 15 .62 12.423.62c-2.577 0-5.665 2.505-8.199 6.714A29.199 29.199 0 000 21.78z"/></g><defs><clipPath id="lclip0"><path fill="#fff" transform="translate(0 .621)" d="M0 0h142.718v34.952H0z"/></clipPath></defs></svg><svg fill="none" viewBox="0 0 151 30" id="norsi" xmlns="http://www.w3.org/2000/svg"><g clip-path="url(#mclip0)" fill="#fff"><path d="M20.091 25.384c-2.57 0-5.106.073-7.627-.034-1.16-.048-.91-1.077-.765-1.795.343-1.701.78-3.386 1.163-5.079.276-1.213.53-2.429.848-3.866-.802-.03-1.605-.021-2.405.029-.212.023-.506.38-.564.628-.78 3.348-1.523 6.695-2.296 10.123-2.388 0-4.855.019-7.319 0-.91-.01-1.271-.552-1.06-1.507A7583.501 7583.501 0 013.699 8.027c.513-2.237 1.047-4.468 1.55-6.709A8.7 8.7 0 005.333.017c2.515 0 5.015-.028 7.513.014.918.015 1.23.628.973 1.78-.354 1.595-.752 3.18-1.117 4.772-.167.736-.3 1.48-.483 2.394.871 0 1.602.037 2.33-.023a.808.808 0 00.554-.494c.655-2.762 1.271-5.535 1.932-8.441 2.352 0 4.884-.03 7.416.016.826.015 1.157.578.985 1.381-.087.408-.26.804-.3 1.214-.14 1.465-.424 2.655-2.4 2.408-.387-.048-1.137.5-1.247.9-.456 1.651-.729 3.348-1.06 5.035l.316.075c.352-1.182.767-2.35 1.04-3.557.257-1.128.888-1.513 2.024-1.503 4.166.042 8.333.02 12.5.02h4.258c-.49 1.642-.954 3.328-1.524 4.977-.1.29-.636.54-.996.607-.582.105-1.195.048-1.794.046-1.683 0-1.668 0-2.017 1.553a9284.784 9284.784 0 01-3.458 15.367c-.098.433-.123.881-.195 1.427-2.36 0-4.79.046-7.217-.02-1.174-.032-1.483-.576-1.205-1.782 1.17-5.153 2.32-10.311 3.544-15.45.212-.919-.05-1.093-.875-1.103-1.724-.019-1.707-.04-2.093 1.674-.77 3.425-1.566 6.842-2.33 10.266-.153.54-.206 1.098-.317 1.814zM90.41 19.81c-1.284 1.737-2.69 3.4-3.814 5.232-.968 1.58-2.201 1.985-3.729 1.598l2.458-10.887h2.934l-1.663 6.721.246.117c.177-.177.345-.362.502-.556 1.272-1.718 2.558-3.421 3.778-5.17.587-.838 1.229-1.373 2.33-1.183.353.04.707.043 1.06.013L91.98 26.596H89.1l1.625-6.672-.314-.113zM57.92 15.233c.96.283 2 .419 2.865.877 1.78.946 1.958 2.643 1.81 4.434-.325 3.961-4.791 7.278-8.721 6.456-2.776-.58-4.011-2.608-3.407-5.585.692-3.422 3.86-5.987 7.453-6.182zm1.642 4.92v-.419c0-1.017-.188-1.98-1.182-2.49-.994-.51-2.006-.274-2.862.377-1.782 1.356-2.242 3.296-2.155 5.37.047 1.123.583 2.11 1.807 2.427 1.18.305 2.14-.222 2.916-1.047 1.112-1.18 1.453-2.65 1.476-4.22v.002zM132.122 26.655h-2.864l2.492-10.904h2.966l-1.161 4.336c1.059 0 1.907.016 2.782-.015a.618.618 0 00.462-.335c.294-1.27.546-2.548.847-3.955h2.93l-2.498 10.837h-2.907l1.233-4.992c-1.025 0-1.83-.03-2.629.018a.79.79 0 00-.595.419c-.375 1.456-.689 2.94-1.058 4.59zM45.576 21.619c-1.048 0-1.921-.032-2.792.025-.187.012-.462.312-.509.52-.324 1.447-.6 2.903-.913 4.466H38.43l2.474-10.862h2.967l-1.174 4.319c1.06 0 1.894.03 2.725-.021a.772.772 0 00.544-.458c.297-1.241.534-2.495.814-3.846h2.95L47.237 26.62h-2.92l1.258-5.001zM122.726 15.69c.684.029 1.368.024 2.051-.015.861-.077 1.077.341 1.164 1.078.326 2.795.688 5.585 1.059 8.37.061.473.212.933.352 1.496h-3.848c.117-.255.324-.5.318-.74-.019-.788 0-1.606-.248-2.334-.07-.21-.949-.21-1.458-.226-2.019-.03-3.019 1.004-3.218 3.327h-2.214c2.046-3.566 4.301-6.978 6.042-10.956zm-1.695 6.254c.875 0 1.431.046 1.973-.025.191-.025.498-.339.489-.506-.05-.906-.184-1.808-.288-2.72l-.303-.061-1.871 3.312zM113.841 22.016c1.025-.822 1.634-1.826 1.729-3.057a2.223 2.223 0 00-.439-1.416c-.438-.563-1.059-.381-1.22.31a463.123 463.123 0 00-1.695 7.52c-.081.364-.011.76-.011 1.236h-3.1l2.475-10.88c1.502 0 3.331-.158 5.121.043 1.791.201 2.481 2.072 1.53 3.821a4.377 4.377 0 01-1.227 1.427 4.446 4.446 0 01-1.72.787c-.47.11-.962.144-1.443.21zM65.957 26.705h-2.152c-.314 0-.636-.025-.848-.036l2.47-10.93c1.53 0 3.331-.118 5.107.035 1.506.13 2.229 1.448 1.86 2.919-.439 1.745-1.638 2.7-3.335 3.122-.392.082-.79.143-1.188.184.474-.837 1.059-1.72 1.483-2.672a1.684 1.684 0 00-.08-1.29c-.172-.338-.636-.533-.978-.79-.197.287-.5.548-.574.864-.555 2.367-1.06 4.744-1.58 7.115-.1.43-.113.88-.185 1.479zM150.591 17.588c-3.162-1.548-5.367.195-6.024 2.69a9.712 9.712 0 00-.392 2.35c-.017 1.99 1.561 3.236 3.523 2.818.924-.197 1.823-.513 2.814-.798-.519 1.13-.958 2.25-2.542 2.242-.945 0-1.907.234-2.831.131-3.144-.35-4.661-2.628-3.776-5.9 1.081-4.045 4.316-6.242 8.942-5.623.817.109.911.814.286 2.09zM81.768 24.7c-.39 1.442-1.23 2.212-2.647 2.223-1.22 0-2.472.102-3.659-.122-1.907-.36-3.415-2.396-2.818-5.292.782-3.793 4.036-6.786 9.045-5.99.757.119.835.655.329 2.059-.545-.183-1.08-.454-1.642-.534-1.742-.249-3.178.418-3.916 2.01-.51 1.1-.817 2.282-.907 3.489-.127 2.113 1.517 3.348 3.617 2.875.856-.192 1.674-.47 2.598-.718zM104.417 26.644h-3.14l2.234-9.368-2.683.286c.439-1.845.475-1.873 2.485-1.87 2.011.002 4.001 0 6.223 0l-.847 1.86a1.358 1.358 0 01-.316 0c-1.924-.513-2.021-.484-2.483 1.414-.526 2.162-1 4.334-1.468 6.508-.07.354-.005.728-.005 1.17zM100.281 20.51c-.058 1.694-.166 1.8-1.738 1.8h-3.05c.152-1.7.258-1.797 1.84-1.8h2.948z"/></g><defs><clipPath id="mclip0"><path fill="#fff" d="M0 0h151v30H0z"/></clipPath></defs></svg><svg fill="none" viewBox="0 0 38 46" id="pointer" xmlns="http://www.w3.org/2000/svg"><path fill-rule="evenodd" clip-rule="evenodd" d="M5.448 5.998A18.598 18.598 0 1131.749 32.3L18.6 45.45 5.448 32.3a18.598 18.598 0 010-26.302zm13.15 18.465a5.313 5.313 0 100-10.627 5.313 5.313 0 000 10.626z" fill="#fff"/></svg><svg viewBox="0 0 835.25 841.19" id="slider-bg" xmlns="http://www.w3.org/2000/svg"><defs><style>.ocls-1{fill:#6084bf}</style></defs><g id="oLayer_2" data-name="Layer 2"><path class="ocls-1" d="M835.25 455.74L225.25 0v259.25L0 90.96v284l624.04 466.23V563.26l211.21 157.8V455.74z" id="oLayer_1-2" data-name="Layer 1"/></g></svg></svg>