<svg width="44" height="33" viewBox="0 0 44 33" fill="none" xmlns="http://www.w3.org/2000/svg">
<path d="M43.0467 12.0408L27.1065 0.228452C26.9064 0.0799455 26.6638 -0.000156196 26.4146 2.28668e-07H17.1052C16.8561 -6.01571e-06 16.6135 0.0800805 16.4134 0.228452L0.473162 12.0408C0.335759 12.1426 0.222579 12.2735 0.141739 12.4242C0.0608999 12.5749 0.0144052 12.7415 0.0055777 12.9123C-0.00358905 13.083 0.025032 13.2535 0.0894002 13.4119C0.153768 13.5702 0.252293 13.7124 0.377949 13.8283L20.975 32.7779C21.1888 32.9751 21.469 33.0846 21.7599 33.0846C22.0508 33.0846 22.3311 32.9751 22.5449 32.7779L43.1419 13.8283C43.2676 13.7124 43.3661 13.5702 43.4305 13.4119C43.4949 13.2535 43.5235 13.083 43.5143 12.9123C43.5055 12.7415 43.459 12.5749 43.3782 12.4242C43.2973 12.2735 43.1841 12.1426 43.0467 12.0408ZM29.8168 11.8123H13.7369L17.8585 2.32057H25.6868L29.8168 11.8123ZM29.6793 14.1392L21.7769 29.4398L13.8766 14.1392H29.6793ZM11.2107 11.8123H4.67508L14.3103 4.67288L11.2107 11.8123ZM11.2657 14.1392L17.7188 26.6348L4.13556 14.1392H11.2657ZM32.2923 14.1392H39.3801L25.8772 26.5629L32.2923 14.1392ZM32.3473 11.8123L29.2731 4.7173L38.8469 11.8123H32.3473Z" fill="#E84F2C"/>
</svg>
